<svg data-v-423bf9ae="" xmlns="http://www.w3.org/2000/svg" viewBox="0 0 329.4501241913191 60" class="font"><!----><!----><!----><g data-v-423bf9ae="" id="99f8e80b-2499-4bd2-90c5-e9c60fed5694" fill="white" transform="matrix(6.109979823280842,0,0,6.109979823280842,1.8940906369603567,-11.670061748471603)"><path d="M3.76 1.95L3.76 1.95L3.76 1.95Q5.87 1.95 6.53 3.42L6.53 3.42L6.53 3.42Q6.90 4.14 6.90 6.19L6.90 6.19L6.90 6.23L6.18 6.23L6.18 6.56L6.90 6.56L6.90 10.10L6.43 10.10L6.43 11.37L5.48 11.37L5.48 11.73L2.15 11.73L2.15 11.37L1.75 11.37L1.75 10.10L0.90 10.10L0.90 9.10L1.40 9.10L1.40 8.57L0.90 8.57L0.90 9.10L-0.31 9.10L-0.31 8.57L0.60 8.57L0.60 8.57Q0.59 7.38 0.59 6.74L0.59 6.74L0.59 5.91L0.59 5.91Q0.59 3.58 1.37 2.80L1.37 2.80L1.37 2.80Q2.09 1.95 3.76 1.95ZM2.56 5.32L2.56 5.32L2.58 5.32L2.56 5.35L2.56 6.23L1.83 6.23L1.83 6.56L2.56 6.56L2.56 6.56Q2.55 8.67 2.55 9.75L2.55 9.75L2.55 10.10L4.18 10.10L4.18 9.56L4.94 9.56L4.94 9.54L4.94 9.54Q4.94 8.54 4.92 6.75L4.92 6.75L4.92 6.75Q4.92 6.68 4.94 6.38L4.94 6.38L4.94 6.38Q4.94 4.45 4.71 4.01L4.71 4.01L4.71 4.01Q4.48 3.58 3.86 3.58L3.86 3.58L3.62 3.58L3.62 3.58Q2.87 3.58 2.69 4.24L2.69 4.24L2.69 4.24Q2.61 4.56 2.56 5.32ZM6.90 6.56L6.90 6.23L8.08 6.23L8.08 6.56L6.90 6.56ZM7.92 1.96L7.92 1.96L9.91 1.96L9.91 1.96Q9.95 1.96 10.55 3.53L10.55 3.53L10.55 3.53Q10.60 3.59 11.81 6.62L11.81 6.62L12.33 6.62L12.33 1.96L14.07 1.96L14.07 7.51L14.27 7.51L14.27 9.67L13.56 9.67L13.56 10.08L14.27 10.08L14.27 11.37L11.65 11.37L11.65 9.73L11.18 9.73L11.18 9.73Q10.24 7.44 9.91 6.56L9.91 6.56L9.91 4.92L9.67 4.92L9.67 9.93L9.27 9.93L9.27 11.66L7.64 11.66L7.64 7.94L7.93 7.94L7.93 7.92L7.93 7.92Q7.92 3.09 7.92 1.96ZM11.78 6.62L10.86 6.62L10.86 6.98L11.94 6.98L11.94 6.98Q11.81 6.62 11.78 6.62L11.78 6.62ZM13.13 6.62L12.34 6.62L12.34 6.98L11.96 6.98L11.96 6.98Q12.30 7.85 12.37 8.11L12.37 8.11L12.39 8.11L12.39 8.07L12.39 8.07Q12.34 7.18 12.34 6.98L12.34 6.98L13.13 6.98L13.13 6.62ZM11.65 11.73L11.65 11.55L14.81 11.55L14.81 11.73L11.65 11.73ZM14.96 8.85L14.96 1.91L16.91 1.91L16.91 5.94L16.52 5.94L16.52 10.10L19.43 10.10L19.43 10.97L18.85 10.97L18.85 11.17L19.43 11.17L19.43 11.73L17.55 11.73L17.55 11.58L14.97 11.58L14.97 11.58Q14.96 11.42 14.96 11.33L14.96 11.33L14.96 9.14L15.45 9.14L15.45 8.85L14.96 8.85ZM19.43 11.17L19.43 10.97L20.14 10.97L20.14 11.17L19.43 11.17ZM20.73 1.93L20.73 1.93L22.57 1.93L22.57 1.93Q22.60 1.94 22.60 1.97L22.60 1.97L22.60 6.73L22.60 6.73Q22.60 6.76 22.57 6.76L22.57 6.76L22.35 6.76L22.35 11.70L22.35 11.70Q22.35 11.73 22.32 11.73L22.32 11.73L20.73 11.73L20.73 11.73Q20.69 11.73 20.69 11.70L20.69 11.70L20.69 6.64L20.20 6.64L20.20 6.64Q20.17 6.64 20.17 6.61L20.17 6.61L20.17 6.40L20.17 6.40Q20.17 6.36 20.20 6.36L20.20 6.36L20.69 6.36L20.69 1.97L20.69 1.97Q20.70 1.93 20.73 1.93ZM21.65 6.36L20.71 6.36L20.71 6.64L21.65 6.64L21.65 6.36ZM22.90 7.49L22.90 1.96L26.25 1.96L26.25 1.96Q27.93 1.96 28.42 3.14L28.42 3.14L28.42 3.14Q28.64 3.75 28.64 4.53L28.64 4.53L28.64 4.94L28.64 4.94Q28.64 6.36 28.01 7.11L28.01 7.11L27.30 7.11L27.30 7.47L28.39 7.47L28.39 9.81L27.75 9.81L27.75 10.17L28.72 10.17L28.72 11.55L26.68 11.55L26.68 9.34L25.89 9.34L25.89 7.92L24.53 7.92L24.53 10.34L24.82 10.34L24.82 11.73L22.93 11.73L22.93 11.73Q22.90 11.73 22.90 11.70L22.90 11.70L22.90 7.77L23.74 7.77L23.74 7.49L22.90 7.49ZM25.63 3.55L24.82 3.55L24.82 6.31L25.29 6.31L25.29 6.31Q26.33 6.31 26.50 6.11L26.50 6.11L26.50 6.11Q26.67 6.00 26.76 5.67L26.76 5.67L27.49 5.67L27.49 5.32L26.83 5.32L26.83 5.35L26.83 5.35Q26.78 5.67 26.75 5.67L26.75 5.67L25.81 5.67L25.81 5.32L26.80 5.32L26.80 5.32Q26.83 5.32 26.83 5.29L26.83 5.29L26.83 5.29Q26.84 4.87 26.84 4.81L26.84 4.81L26.84 4.81Q26.84 3.90 26.53 3.69L26.53 3.69L26.53 3.69Q26.28 3.55 25.63 3.55L25.63 3.55ZM30.37 7.57L32.05 1.96L33.69 1.96L33.69 1.96Q33.73 2.10 35.29 7.29L35.29 7.29L35.59 7.29L35.59 10.51L34.92 10.51L34.92 10.76L35.59 10.76L35.59 11.45L33.78 11.45L33.78 9.47L31.55 9.47L31.55 10.32L30.65 10.32L30.65 11.73L29.00 11.73L29.00 11.63L29.13 11.63L29.13 10.32L29.80 10.32L29.80 7.57L30.37 7.57ZM32.85 4.71L32.82 4.71L32.82 4.72L32.82 4.72Q32.61 5.89 32.00 8.40L32.00 8.40L33.53 8.40L33.53 7.29L33.40 7.29L33.40 7.29Q32.85 4.92 32.85 4.71L32.85 4.71ZM28.52 7.57L28.52 7.28L29.80 7.28L29.80 7.57L28.52 7.57ZM33.78 11.73L33.78 11.57L35.97 11.57L35.97 11.73L33.78 11.73ZM36.17 6.62L36.17 1.96L39.15 1.96L39.15 1.96Q41.01 1.96 41.71 3.22L41.71 3.22L41.71 3.22Q42.31 4.20 42.31 6.49L42.31 6.49L42.60 6.49L42.60 8.83L39.70 8.83L39.70 8.56L40.61 8.56L40.61 6.49L40.35 6.49L40.35 5.63L40.35 5.63Q40.35 4.19 39.70 3.79L39.70 3.79L39.70 3.79Q39.33 3.58 38.49 3.58L38.49 3.58L38.09 3.58L38.09 6.44L38.36 6.44L38.36 8.83L36.41 8.83L36.41 6.62L36.17 6.62ZM35.30 9.13L35.30 8.83L36.18 8.83L36.18 9.13L38.36 9.13L38.36 9.78L39.70 9.78L39.70 9.13L42.60 9.13L42.60 9.78L40.61 9.78L40.61 11.52L38.36 11.52L38.36 11.73L36.20 11.73L36.20 11.73Q36.17 11.73 36.17 11.70L36.17 11.70L36.17 9.13L35.30 9.13ZM38.36 9.13L38.36 8.83L39.70 8.83L39.70 9.13L38.36 9.13ZM42.60 9.13L42.60 8.83L44.52 8.83L44.52 9.13L42.60 9.13ZM43.36 1.93L43.36 1.93L45.21 1.93L45.21 1.93Q45.23 1.94 45.23 1.97L45.23 1.97L45.23 6.73L45.23 6.73Q45.23 6.76 45.21 6.76L45.21 6.76L44.99 6.76L44.99 11.70L44.99 11.70Q44.99 11.73 44.95 11.73L44.95 11.73L43.36 11.73L43.36 11.73Q43.33 11.73 43.33 11.70L43.33 11.70L43.33 6.64L42.83 6.64L42.83 6.64Q42.80 6.64 42.80 6.61L42.80 6.61L42.80 6.40L42.80 6.40Q42.81 6.36 42.83 6.36L42.83 6.36L43.33 6.36L43.33 1.97L43.33 1.97Q43.33 1.93 43.36 1.93ZM44.28 6.36L43.34 6.36L43.34 6.64L44.28 6.64L44.28 6.36ZM49.29 1.95L49.29 1.95L49.29 1.95Q51.40 1.95 52.06 3.42L52.06 3.42L52.06 3.42Q52.44 4.14 52.44 6.19L52.44 6.19L52.44 6.23L51.71 6.23L51.71 6.56L52.44 6.56L52.44 10.10L51.96 10.10L51.96 11.37L51.01 11.37L51.01 11.73L47.69 11.73L47.69 11.37L47.28 11.37L47.28 10.10L46.43 10.10L46.43 9.10L46.94 9.10L46.94 8.57L46.43 8.57L46.43 9.10L45.22 9.10L45.22 8.57L46.14 8.57L46.14 8.57Q46.12 7.38 46.12 6.74L46.12 6.74L46.12 5.91L46.12 5.91Q46.12 3.58 46.91 2.80L46.91 2.80L46.91 2.80Q47.63 1.95 49.29 1.95ZM48.10 5.32L48.10 5.32L48.12 5.32L48.10 5.35L48.10 6.23L47.37 6.23L47.37 6.56L48.10 6.56L48.10 6.56Q48.08 8.67 48.08 9.75L48.08 9.75L48.08 10.10L49.72 10.10L49.72 9.56L50.47 9.56L50.47 9.54L50.47 9.54Q50.47 8.54 50.46 6.75L50.46 6.75L50.46 6.75Q50.46 6.68 50.47 6.38L50.47 6.38L50.47 6.38Q50.47 4.45 50.24 4.01L50.24 4.01L50.24 4.01Q50.01 3.58 49.39 3.58L49.39 3.58L49.15 3.58L49.15 3.58Q48.41 3.58 48.23 4.24L48.23 4.24L48.23 4.24Q48.15 4.56 48.10 5.32ZM52.44 6.56L52.44 6.23L53.61 6.23L53.61 6.56L52.44 6.56Z"></path></g><!----><!----></svg>