<svg xmlns="http://www.w3.org/2000/svg" version="1.1" xmlns:xlink="http://www.w3.org/1999/xlink" xmlns:svgjs="http://svgjs.dev/svgjs" width="2000" height="328" viewBox="0 0 2000 328"><g transform="matrix(1,0,0,1,-1.2121212121212466,-0.7027916083916068)"><svg xmlns="http://www.w3.org/2000/svg" version="1.1" xmlns:xlink="http://www.w3.org/1999/xlink" xmlns:svgjs="http://svgjs.com/svgjs" viewBox="0 0 396 65" data-background-color="#040404" preserveAspectRatio="xMidYMid meet" height="328" width="2000"><defs></defs><g id="tight-bounds" transform="matrix(1,0,0,1,0.2400000000000091,0.13927272727272566)"><svg viewBox="0 0 395.52 64.72145454545455" height="64.72145454545455" width="395.52"><g><svg viewBox="0 0 395.52 64.72145454545455" height="64.72145454545455" width="395.52"><g><svg viewBox="0 0 395.52 64.72145454545455" height="64.72145454545455" width="395.52"><g><svg viewBox="0 0 395.52 64.72145454545455" height="64.72145454545455" width="395.52"><g><svg viewBox="0 0 395.52 64.72145454545455" height="64.72145454545455" width="395.52"><g transform="matrix(1,0,0,1,0,0)"><svg width="395.52" viewBox="3.85 -35.5 219.98000000000002 36" height="64.72145454545455" data-palette-color="#a852ff"><g class="undefined-text-0" data-fill-palette-color="primary" id="text-0"><path d="M24.4-3.28Q21.65 0.5 15.5 0.5 9.35 0.5 6.6-3.28 3.85-7.05 3.85-15.05L3.85-15.05 3.85-19.95Q3.85-27.95 6.6-31.73 9.35-35.5 15.5-35.5 21.65-35.5 24.4-31.73 27.15-27.95 27.15-19.95L27.15-19.95 27.15-15.05Q27.15-7.05 24.4-3.28ZM19.7-33.38Q17.95-34 15.5-34 13.05-34 11.3-33.38 9.55-32.75 8.15-31.25 6.75-29.75 6.05-26.93 5.35-24.1 5.35-19.95L5.35-19.95 5.35-15.05Q5.35-10.9 6.05-8.08 6.75-5.25 8.15-3.75 9.55-2.25 11.3-1.63 13.05-1 15.5-1 17.95-1 19.7-1.63 21.45-2.25 22.85-3.75 24.25-5.25 24.95-8.08 25.65-10.9 25.65-15.05L25.65-15.05 25.65-19.95Q25.65-24.1 24.95-26.93 24.25-29.75 22.85-31.25 21.45-32.75 19.7-33.38ZM39.85 0L39.85-1.5 55.35-1.5 37.45-32.45 37.45 0 35.95 0 35.95-35 37.7-35 56.4-2.65 56.4-35 57.9-35 57.9 0 39.85 0ZM69.3-1.5L88.69-1.5 88.69 0 67.8 0 67.8-35 69.3-35 69.3-1.5ZM95.89-35L95.89 0 94.39 0 94.39-35 95.89-35ZM109.69 0L109.69-1.5 123.49-1.5 117.44-18.1 120.24-19.7Q123.69-21.6 123.69-25.75L123.69-25.75Q123.69-33.5 111.89-33.5L111.89-33.5 107.29-33.5 107.29 0 105.79 0 105.79-35 111.89-35Q118.49-35 121.84-32.58 125.19-30.15 125.19-25.75L125.19-25.75Q125.19-20.75 120.99-18.4L120.99-18.4 119.29-17.45 125.64 0 109.69 0ZM134.19 0L134.19-1.5 152.59-1.5 141.99-30.65 130.84 0 129.24 0 141.99-35.05 154.74 0 134.19 0ZM165.39 0L165.39 0 160.59 0 160.59-35 165.39-35Q172.59-35 177.59-29.7 182.59-24.4 182.59-17.5 182.59-10.6 177.59-5.3 172.59 0 165.39 0ZM162.09-1.5L165.39-1.5Q171.94-1.5 176.51-6.33 181.09-11.15 181.09-17.5 181.09-23.85 176.51-28.68 171.94-33.5 165.39-33.5L165.39-33.5 162.09-33.5 162.09-1.5ZM191.73-35L191.73 0 190.23 0 190.23-35 191.73-35ZM221.08-3.28Q218.33 0.5 212.18 0.5 206.03 0.5 203.28-3.28 200.53-7.05 200.53-15.05L200.53-15.05 200.53-19.95Q200.53-27.95 203.28-31.73 206.03-35.5 212.18-35.5 218.33-35.5 221.08-31.73 223.83-27.95 223.83-19.95L223.83-19.95 223.83-15.05Q223.83-7.05 221.08-3.28ZM216.38-33.38Q214.63-34 212.18-34 209.73-34 207.98-33.38 206.23-32.75 204.83-31.25 203.43-29.75 202.73-26.93 202.03-24.1 202.03-19.95L202.03-19.95 202.03-15.05Q202.03-10.9 202.73-8.08 203.43-5.25 204.83-3.75 206.23-2.25 207.98-1.63 209.73-1 212.18-1 214.63-1 216.38-1.63 218.13-2.25 219.53-3.75 220.93-5.25 221.63-8.08 222.33-10.9 222.33-15.05L222.33-15.05 222.33-19.95Q222.33-24.1 221.63-26.93 220.93-29.75 219.53-31.25 218.13-32.75 216.38-33.38Z" fill="#a852ff" data-fill-palette-color="primary"></path></g></svg></g></svg></g></svg></g></svg></g><g></g></svg></g></svg><rect width="395.52" height="64.72145454545455" fill="none" stroke="none" visibility="hidden"></rect></g></svg></g></svg>