<?xml version="1.0" encoding="UTF-8" standalone="no"?>
<!-- Created with Inkscape (http://www.inkscape.org/) -->

<svg
   width="1410.3667mm"
   height="1410.3668mm"
   viewBox="0 0 1410.3667 1410.3668"
   version="1.1"
   id="svg1"
   xml:space="preserve"
   xmlns:inkscape="http://www.inkscape.org/namespaces/inkscape"
   xmlns:sodipodi="http://sodipodi.sourceforge.net/DTD/sodipodi-0.dtd"
   xmlns="http://www.w3.org/2000/svg"
   xmlns:svg="http://www.w3.org/2000/svg"><sodipodi:namedview
     id="namedview1"
     pagecolor="#ffffff"
     bordercolor="#000000"
     borderopacity="0.25"
     inkscape:showpageshadow="2"
     inkscape:pageopacity="0.0"
     inkscape:pagecheckerboard="0"
     inkscape:deskcolor="#d1d1d1"
     inkscape:document-units="mm" /><defs
     id="defs1" /><g
     id="g1"
     inkscape:groupmode="layer"
     inkscape:label="1"
     transform="matrix(0.26458333,0,0,0.26458334,4.9379573e-6,0)"><g
       id="group-R5"><path
         id="path2"
         d="M 0,0 H 39978.9 V 39978.9 H 0 Z"
         style="fill:none;fill-opacity:1;fill-rule:nonzero;stroke:none"
         transform="matrix(0.13333333,0,0,-0.13333333,0,5330.52)" /><path
         id="path3"
         d="m 19639.6,2901.9 c -3575.5,0 -6473.9,445.6 -6473.9,995.2 0,269.8 698.2,514.5 1832.2,693.8 1.7,-111 21.1,-219.3 59.4,-327.3 45.6,-125.4 122.3,-240.1 216.7,-331 192.1,-181.5 430.4,-276.3 662.8,-340.1 234.6,-61.4 471.8,-92.3 707.8,-108.1 144.9,-9.9 289.4,-13.8 433.6,-13.8 90.9,0 181.6,1.6 272.2,4.2 234.3,7.3 467.7,23.4 700.2,44.2 58.7,5.9 114.9,10.1 175.5,17.9 62.6,11.3 125.9,15.7 187.4,36.8 125.1,29.5 243.1,92.2 349.3,166.2 l 75.9,61.2 c 25.3,20.3 45.7,45.4 68.7,68.1 47.3,44.7 81.5,98.3 120.9,148.4 68.2,105.9 128.2,216.4 170.3,331.2 69.4,177.8 114.9,360 147.6,542.6 97.4,0.6 195,1 293.4,1 98.4,0 196,-0.4 293.4,-1 32.8,-182.6 78.3,-364.8 147.6,-542.7 42.2,-114.8 102.1,-225.2 170.4,-331.1 39.3,-50.1 73.7,-103.7 120.9,-148.4 22.9,-22.7 43.3,-47.8 68.7,-68.1 l 75.9,-61.3 c 106.2,-73.9 224.1,-136.6 349.2,-166.1 61.6,-21.1 124.8,-25.5 187.4,-36.8 60.7,-7.8 116.9,-12 175.5,-17.9 232.6,-20.8 466,-36.9 700.3,-44.2 90.6,-2.6 181.3,-4.2 272.2,-4.2 144.2,0 288.8,3.9 433.6,13.8 235.9,15.8 473.2,46.7 707.8,108.1 232.4,63.9 470.7,158.6 662.8,340.1 94.4,90.9 171.1,205.7 216.6,331.1 38.3,107.9 57.7,216.2 59.5,327.2 1133.9,-179.3 1832.1,-424 1832.1,-693.8 0,-549.6 -2898.4,-995.2 -6473.9,-995.2"
         style="fill:none;fill-opacity:1;fill-rule:nonzero;stroke:none"
         transform="matrix(0.13333333,0,0,-0.13333333,0,5330.52)" /><path
         id="path4"
         d="m 23266.7,9728.1 h -7254.1 c -439.3,0 -795.4,356.1 -795.4,795.3 v 6056.7 c 0,439.3 356.1,795.4 795.4,795.4 h 7254.1 c 439.2,0 795.3,-356.1 795.3,-795.4 v -6056.7 c 0,-439.2 -356.1,-795.3 -795.3,-795.3"
         style="fill:#ffffff;fill-opacity:1;fill-rule:nonzero;stroke:none"
         transform="matrix(0.13333333,0,0,-0.13333333,0,5330.52)" /><path
         id="path5"
         d="m 23638.1,9953 c -1.9,41.7 -3.7,83.4 -5.5,125.2 l -13.6,314.6 -7.1,157.4 -12.4,157 -50,627.8 c -9.2,94.5 -19.2,188.9 -29.4,283.3 179.8,60.4 330.9,183.3 427.5,342.9 v -1437.8 c 0,-238.5 -123.3,-448.8 -309.5,-570.4 m -8008,7.3 c -180,122.7 -298.5,329.3 -298.5,563.1 v 1437.8 c 93.9,-155 239.1,-275.4 412.2,-337.5 -10.2,-95.8 -20.1,-191.5 -29.1,-287.4 l -48.4,-628.3 -11.7,-157.1 -6.5,-157.4 -13,-314.8 c -1.6,-39.5 -3.3,-78.9 -5,-118.4"
         style="fill:#b9afbe;fill-opacity:1;fill-rule:nonzero;stroke:none"
         transform="matrix(0.13333333,0,0,-0.13333333,0,5330.52)" /><path
         id="path6"
         d="m 16012.6,17261.1 c -375.5,0 -681,-305.5 -681,-681 v -6056.7 c 0,-375.4 305.5,-680.9 681,-680.9 h 7254.1 c 375.4,0 680.9,305.5 680.9,680.9 v 6056.7 c 0,375.5 -305.5,681 -680.9,681 h -7254.1 m 7254.1,-7647.5 h -7254.1 c -501.7,0 -909.8,408.1 -909.8,909.8 v 6056.7 c 0,501.7 408.1,909.8 909.8,909.8 h 7254.1 c 501.6,0 909.8,-408.1 909.8,-909.8 v -6056.7 c 0,-501.7 -408.2,-909.8 -909.8,-909.8"
         style="fill:#371b45;fill-opacity:1;fill-rule:nonzero;stroke:none"
         transform="matrix(0.13333333,0,0,-0.13333333,0,5330.52)" /><path
         id="path7"
         d="m 17876.5,16287.4 -1317.8,-2236.8 c 0,0 -120.9,36 -322.3,118.4 v 0.5 c -812,333.4 -2930.4,1424.3 -3672.6,3961.4 -84.9,290.9 -151.9,601.2 -196.9,931.1 -516.7,3799.9 1077.5,5879.8 3112.9,5652 0,0 -1902,-6094.3 2396.7,-8426.6"
         style="fill:#ffffff;fill-opacity:1;fill-rule:nonzero;stroke:none"
         transform="matrix(0.13333333,0,0,-0.13333333,0,5330.52)" /><path
         id="path8"
         d="m 16164.6,14324.5 c -354.4,154.8 -888.1,428 -1438.7,857.1 -379.2,295.6 -800.7,693.9 -1178.5,1211.4 680.8,-775.8 1423.5,-975 2006.3,-975.1 526.4,0 922.4,162.4 1025.3,209 -43.4,-88.8 -80.7,-179.6 -115.9,-271.2 -38,-98.6 -73.2,-197.9 -104.4,-298.5 -15.9,-50.2 -32.7,-100.1 -47.8,-150.6 l -41.6,-152 c -27.7,-101.5 -55.7,-203 -77.7,-305.8 -9,-41.4 -18,-82.9 -27,-124.3"
         style="fill:#b9afbe;fill-opacity:1;fill-rule:nonzero;stroke:none"
         transform="matrix(0.13333333,0,0,-0.13333333,0,5330.52)" /><path
         id="path9"
         d="m 12746.4,18925.6 c -244.1,0 -381.7,20.6 -397.7,23.1 -62.4,10 -104.9,68.6 -95,131 10,62.4 69.1,104.8 130.9,95.1 11.1,-1.8 1134.1,-166 2896.4,520.4 58.8,23 125.3,-6.2 148.2,-65.1 22.9,-58.8 -6.2,-125.2 -65.1,-148.1 -1216.8,-474 -2129.8,-556.4 -2617.7,-556.4"
         style="fill:#371b45;fill-opacity:1;fill-rule:nonzero;stroke:none"
         transform="matrix(0.13333333,0,0,-0.13333333,0,5330.52)" /><path
         id="path10"
         d="m 15177.5,24616.8 c -642.6,0 -1221.9,-248 -1689.3,-726.6 -927.4,-949.6 -1294.8,-2703.9 -1008,-4813.1 269.5,-1983.2 1370,-3213 2245.7,-3895.5 784.6,-611.5 1534.8,-906.4 1781.1,-993.2 l 1211.5,2056.2 c -1729.8,986.1 -2685.8,2756 -2766.7,5126.9 -51.3,1503.3 266.8,2824 379.8,3240.7 -51.7,3.1 -103.1,4.6 -154.1,4.6 m 1381.1,-10680.7 c -10.9,0 -21.9,1.5 -32.7,4.8 -38.2,11.3 -946.7,287.6 -1933.6,1054.7 -912.2,709 -2058.4,1987.2 -2339,4050.7 -300.6,2211.6 79.8,3988.6 1071.1,5003.8 587.7,601.7 1337.2,870.7 2168,777.8 33.9,-3.8 64.4,-22.5 83.1,-51.1 18.7,-28.6 23.6,-64.1 13.4,-96.7 -4.7,-15.1 -469.9,-1531 -408.1,-3306.9 82.1,-2362.3 1007.5,-4039.5 2750.5,-4985.1 27.3,-14.8 47.3,-40 55.7,-69.9 8.3,-30 4,-62 -11.7,-88.7 l -1318.1,-2237.1 c -21,-35.5 -58.9,-56.3 -98.6,-56.3"
         style="fill:#371b45;fill-opacity:1;fill-rule:nonzero;stroke:none"
         transform="matrix(0.13333333,0,0,-0.13333333,0,5330.52)" /><path
         id="path11"
         d="m 21402.7,16287.4 1317.8,-2236.8 c 0,0 120.9,36 322.3,118.4 v 0.5 c 812,333.4 2930.5,1424.3 3672.6,3961.4 84.9,290.9 151.9,601.2 196.9,931.1 516.7,3799.9 -1077.5,5879.8 -3112.9,5652 0,0 1902,-6094.3 -2396.7,-8426.6"
         style="fill:#ffffff;fill-opacity:1;fill-rule:nonzero;stroke:none"
         transform="matrix(0.13333333,0,0,-0.13333333,0,5330.52)" /><path
         id="path12"
         d="m 23098.1,14317.3 c -9.5,42.6 -19.1,85.1 -28.6,127.7 -97.9,401.5 -210.5,800.5 -372.3,1183.3 97.8,-44.7 496.6,-210.4 1028.3,-210.4 582.9,0 1325.5,199.1 2006.4,975.2 -377.9,-517.6 -799.3,-915.9 -1178.5,-1211.5 -559.3,-435.8 -1101,-710.8 -1455.3,-864.3"
         style="fill:#b9afbe;fill-opacity:1;fill-rule:nonzero;stroke:none"
         transform="matrix(0.13333333,0,0,-0.13333333,0,5330.52)" /><path
         id="path13"
         d="m 26532.8,18925.6 c -487.8,0 -1400.8,82.3 -2617.7,556.4 -58.9,22.9 -88,89.3 -65.1,148.1 23,58.9 89.5,88.1 148.2,65.1 1762.1,-686.4 2885.2,-522.2 2896.5,-520.4 62.5,9.8 120.9,-32.9 130.8,-95.2 9.8,-62.4 -32.7,-120.9 -95,-130.9 -15.9,-2.5 -153.6,-23.1 -397.7,-23.1"
         style="fill:#371b45;fill-opacity:1;fill-rule:nonzero;stroke:none"
         transform="matrix(0.13333333,0,0,-0.13333333,0,5330.52)" /><path
         id="path14"
         d="m 21560.7,16244.6 1211.5,-2056.2 c 246.3,86.8 996.5,381.7 1781.2,993.2 875.6,682.5 1976.1,1912.3 2245.7,3895.5 286.7,2109.2 -80.7,3863.5 -1008,4813.1 -504.5,516.5 -1140.3,764.4 -1843.5,722 113.1,-416.7 431.1,-1737.4 379.9,-3240.7 -80.9,-2370.9 -1036.9,-4140.8 -2766.8,-5126.9 m 1160,-2308.5 c -39.8,0 -77.7,20.8 -98.6,56.3 L 21304,16229.5 c -15.8,26.7 -20,58.7 -11.7,88.7 8.3,29.9 28.4,55.1 55.7,69.9 1743,945.6 2668.4,2622.8 2750.5,4985.1 61.7,1775.9 -403.5,3291.8 -408.2,3306.9 -10.1,32.6 -5.2,68.1 13.5,96.7 18.7,28.6 49.1,47.3 83,51.1 830.8,92.9 1580.4,-176 2168,-777.8 991.4,-1015.2 1371.7,-2792.2 1071.1,-5003.8 -280.5,-2063.5 -1426.7,-3341.7 -2338.9,-4050.7 -987,-767.1 -1895.5,-1043.4 -1933.6,-1054.7 -10.9,-3.3 -21.9,-4.8 -32.7,-4.8"
         style="fill:#371b45;fill-opacity:1;fill-rule:nonzero;stroke:none"
         transform="matrix(0.13333333,0,0,-0.13333333,0,5330.52)" /><path
         id="path15"
         d="m 24145.7,4408.2 c -178.4,-831.6 -1543.7,-914.5 -3063.9,-760.1 -1519.6,154.4 -1068.3,2838 -1068.3,5581.1 0,0 -170,-29.5 -373.9,-29.5 -203.9,0 -373.8,29.5 -373.8,29.5 0,-2743.1 451.3,-5426.7 -1068.4,-5581.1 -1520.2,-154.4 -2885.5,-71.5 -3063.9,760.1 -63.5,296.9 20,545.2 153.9,742.1 v 0.5 c 239.9,353.3 641.7,539.7 641.7,539.7 -280.4,2425.7 -203.4,4576.6 -21,6252.3 243.8,2240.7 677.1,3632.5 697.6,3696.5 v 0.5 c 0.5,1.5 0.5,2 0.5,2 l 356.3,1270.8 5521.6,-201.9 188.9,-1068.9 c 0,0 1341.8,-4203.8 677.2,-9951.3 0,0 973.5,-451.2 795.5,-1282.3"
         style="fill:#ffffff;fill-opacity:1;fill-rule:nonzero;stroke:none"
         transform="matrix(0.13333333,0,0,-0.13333333,0,5330.52)" /><path
         id="path16"
         d="m 17078.5,3699.5 c -140,0 -279.7,3.8 -418.5,13.3 -226,14.9 -450.3,44.9 -664,100.8 -211.8,57.3 -416.6,144.2 -563,283.7 -72.3,70 -127,152.9 -160.7,245.1 -32.8,91.1 -49.7,197.5 -45,297.4 3.9,113.3 34.5,223.8 85.2,327.3 76.7,-261.5 378.8,-701.3 1543.1,-701.3 1656.6,0 1914.5,587.7 1914.5,1674.1 v 2115.6 c 0,288.2 -116.5,565 -325.8,763.1 -217,205.6 -491.9,508.3 -657.8,850.5 -24.2,49.8 16.1,98.1 61.2,98.1 14.6,0 29.8,-5.1 43.4,-16.9 212.9,-185.2 600.7,-416.6 1261.3,-507.3 -0.5,-4.5 -0.8,-9.1 -0.8,-13.7 -0.6,-930.7 53.8,-1857.6 61.9,-2779.6 2.6,-460.3 -6.3,-921.1 -68.7,-1369.6 -32.2,-223.5 -79.7,-444.2 -159.2,-647.6 -37.5,-103 -89.7,-196.7 -146.2,-285.6 -32.7,-40.5 -60.6,-85.8 -98.4,-120.5 -18.3,-17.8 -34.3,-38.6 -54.4,-54.2 l -59.3,-47.8 c -83.3,-56.9 -173,-106.8 -274.3,-130 -48.4,-17.4 -101.9,-20.2 -153.1,-30.1 -54.1,-7.1 -113.4,-11.7 -170,-17.3 -228.8,-20.5 -457.9,-36.3 -686.7,-43.4 -88.3,-2.6 -176.5,-4.1 -264.7,-4.1"
         style="fill:#b9afbe;fill-opacity:1;fill-rule:nonzero;stroke:none"
         transform="matrix(0.13333333,0,0,-0.13333333,0,5330.52)" /><path
         id="path17"
         d="m 22200.7,3699.5 c -88.1,0 -176.4,1.5 -264.7,4.1 -228.7,7.1 -457.7,22.9 -686.6,43.4 -56.5,5.6 -116,10.2 -170.1,17.3 -51.1,9.9 -104.7,12.7 -153,30.1 -101.3,23.2 -191,73.1 -274.4,130 l -59.3,47.8 c -20.1,15.6 -36.1,36.4 -54.4,54.2 -37.8,34.7 -65.7,80 -98.3,120.4 -56.6,88.9 -108.7,182.7 -146.3,285.7 -79.5,203.4 -126.9,424 -159.2,647.5 -62.4,448.6 -71.2,909.4 -68.7,1369.7 8.1,921.9 62.5,1848.9 61.9,2779.6 0,4.3 -0.3,9.1 -0.8,13.7 660.6,90.7 1048.5,322.1 1261.4,507.3 13.6,11.8 28.7,16.9 43.4,16.9 45,0 85.3,-48.3 61.2,-98.1 -166,-342.2 -440.9,-644.9 -657.9,-850.5 -209.3,-198.1 -325.7,-474.9 -325.7,-763.1 V 5939.9 c 0,-1086.4 257.8,-1674.1 1914.5,-1674.1 1164.2,0 1466.3,439.8 1543,701.3 50.7,-103.5 81.3,-214 85.3,-327.2 4.7,-100 -12.2,-206.3 -45,-297.4 -33.8,-92.3 -88.4,-175.2 -160.7,-245.2 -146.4,-139.5 -351.2,-226.4 -562.9,-283.7 -213.8,-55.9 -438.1,-85.9 -664.1,-100.8 -138.8,-9.5 -278.5,-13.3 -418.6,-13.3"
         style="fill:#b9afbe;fill-opacity:1;fill-rule:nonzero;stroke:none"
         transform="matrix(0.13333333,0,0,-0.13333333,0,5330.52)" /><path
         id="path18"
         d="m 21537.7,10758.4 h -3796.2 c -474.6,0 -859.4,384.7 -859.4,859.4 0,179.4 -145.5,324.9 -325,324.9 h -515.3 c 5.3,61.5 11.7,122.8 18.8,184.1 h 1125.1 v -220.3 0 c 0,-422.3 342.3,-764.6 764.6,-764.6 h 3378.6 c 422.3,0 764.6,342.3 764.6,764.6 v 220.3 h 1142.6 c 6.8,-61.3 13.1,-122.6 18.1,-184.1 h -532.1 c -179.5,0 -324.9,-145.5 -324.9,-324.9 0,-474.7 -384.8,-859.4 -859.5,-859.4 m 1552.8,2473.5 h -318.7 c 111.9,548 72.5,1214.4 13.4,1707.4 33.2,-178.1 66.6,-355.8 100.4,-533.5 71.7,-390.7 147.7,-780.7 204.9,-1173.9 m -6583,0 h -301.6 c 72,495.1 171.7,983.1 263.3,1474.6 -42.7,-457.6 -56.9,-1008.8 38.3,-1474.6"
         style="fill:#b9afbe;fill-opacity:1;fill-rule:nonzero;stroke:none"
         transform="matrix(0.13333333,0,0,-0.13333333,0,5330.52)" /><path
         id="path19"
         d="m 19997.8,9342.8 c 101.9,9.1 209.4,25.9 314.3,42 105.3,17.3 210.2,38.1 314.7,61 104.6,23.2 206.9,53.8 309.7,84.6 102,33.3 202.8,69.9 304.4,111.1 l 0.3,0.1 c 5.1,2.1 11.1,-0.3 13.2,-5.5 1.7,-4.2 0.3,-8.8 -2.9,-11.5 -84.6,-71.4 -178.6,-132.4 -276.7,-184.7 -98.2,-52.2 -200.6,-95.8 -303.9,-136.9 -103.5,-40.5 -209,-75.7 -315.7,-107.1 -107.3,-32 -213.3,-57.5 -326.7,-80 -62.1,-12.3 -122.4,28 -134.8,90.1 -12.3,62.1 28.1,122.5 90.2,134.8 3.9,0.9 7.9,1.3 11.9,1.7 l 2,0.3"
         style="fill:#371b45;fill-opacity:1;fill-rule:nonzero;stroke:none"
         transform="matrix(0.13333333,0,0,-0.13333333,0,5330.52)" /><path
         id="path20"
         d="m 19250.7,9115.9 c -113.4,22.5 -219.4,48 -326.7,80.1 -106.7,31.3 -212.2,66.5 -315.6,107 -103.3,41.1 -205.8,84.7 -303.9,136.9 -98.1,52.3 -192.1,113.3 -276.8,184.7 -4.2,3.5 -4.7,9.9 -1.1,14.2 2.9,3.4 7.5,4.5 11.5,2.9 l 0.2,-0.1 c 101.6,-41.3 202.4,-77.9 304.4,-111.2 102.9,-30.8 205.2,-61.4 309.7,-84.6 104.6,-22.9 209.4,-43.7 314.8,-61 104.8,-16.1 212.3,-32.9 314.2,-42 l 1.9,-0.3 c 63.1,-5.6 109.6,-61.3 103.9,-124.4 -5.6,-63.1 -61.3,-109.6 -124.4,-103.9 -4.1,0.3 -8.2,0.9 -12.1,1.7"
         style="fill:#371b45;fill-opacity:1;fill-rule:nonzero;stroke:none"
         transform="matrix(0.13333333,0,0,-0.13333333,0,5330.52)" /><path
         id="path21"
         d="m 15885.7,5796.5 c 121.5,49.9 237.2,82.1 358.4,112 120.1,29.9 242.6,49.1 365.9,62.2 123.3,12.7 247.8,18.6 372.5,14.1 124.6,-5.7 249.3,-20.7 372,-46.4 122.8,-25.7 243,-65.3 357.9,-116 115.1,-50.1 224.6,-114.3 322.8,-191.6 200.1,-151.2 350.3,-356.8 450.7,-575.6 2.6,-5.7 0.1,-12.3 -5.5,-14.9 -4.7,-2.2 -10,-0.8 -13.3,2.9 l -0.3,0.3 c -78.1,91 -154.6,180.3 -242.4,257.1 -41.5,40.7 -88.1,75.2 -132.4,111.6 -47.5,32.3 -91.8,68.5 -141.9,95.9 -48.2,30.4 -98.5,56.6 -148.9,82.3 -51.9,22.6 -102.8,47.1 -156.4,65.3 -105.8,39 -215.7,67.2 -327.7,83.7 -111.8,17.8 -225.2,26 -339.1,25.7 -113.7,1.2 -228,-7 -341.6,-21.6 -113.5,-14.7 -226.3,-36.9 -338.1,-62.6 -110.6,-26 -224.7,-59.8 -325.7,-96.2 l -4.6,-1.7 c -59.4,-21.4 -124.9,9.4 -146.4,68.8 -20.9,57.8 7.9,121.5 64.1,144.7"
         style="fill:#371b45;fill-opacity:1;fill-rule:nonzero;stroke:none"
         transform="matrix(0.13333333,0,0,-0.13333333,0,5330.52)" /><path
         id="path22"
         d="m 17529.4,7212.3 c -1032.9,0 -1763.3,348.3 -1808.8,370.6 -56.8,27.7 -80.3,96.2 -52.6,153 27.8,56.8 96.2,80.3 153,52.6 15.9,-7.7 1617.4,-767.6 3399.6,2.2 58.1,25.2 125.4,-1.6 150.5,-59.6 25,-58.1 -1.7,-125.4 -59.7,-150.5 -639.3,-276.1 -1250.7,-368.3 -1782,-368.3"
         style="fill:#371b45;fill-opacity:1;fill-rule:nonzero;stroke:none"
         transform="matrix(0.13333333,0,0,-0.13333333,0,5330.52)" /><path
         id="path23"
         d="m 23306.6,5584.7 c -101,36.5 -215.1,70.1 -325.7,96.3 -111.8,25.6 -224.5,47.9 -338.1,62.5 -113.6,14.6 -227.9,22.8 -341.6,21.6 -113.8,0.3 -227.3,-7.9 -339,-25.7 -112.1,-16.4 -221.9,-44.7 -327.8,-83.8 -53.6,-18.1 -104.4,-42.6 -156.4,-65.2 -50.4,-25.7 -100.7,-51.9 -148.8,-82.3 -50.2,-27.4 -94.4,-63.6 -142,-95.9 -44.3,-36.4 -90.9,-70.9 -132.4,-111.6 -87.7,-76.8 -164.3,-166.1 -242.4,-257.1 l -0.3,-0.3 c -4.1,-4.7 -11.2,-5.3 -15.8,-1.2 -4,3.3 -5,8.7 -2.9,13.2 100.4,218.7 250.6,424.4 450.7,575.6 98.2,77.4 207.6,141.5 322.7,191.6 114.9,50.7 235.2,90.3 358,116 122.7,25.7 247.3,40.7 371.9,46.4 124.7,4.6 249.2,-1.4 372.5,-14.1 123.3,-13.1 245.8,-32.4 365.9,-62.2 121.3,-29.9 236.9,-62.2 358.4,-112 58.4,-24 86.4,-90.8 62.3,-149.3 -23.2,-56.9 -87.1,-84.8 -144.4,-64.2 l -4.8,1.7"
         style="fill:#371b45;fill-opacity:1;fill-rule:nonzero;stroke:none"
         transform="matrix(0.13333333,0,0,-0.13333333,0,5330.52)" /><path
         id="path24"
         d="m 21749.8,7212.3 c -531.4,0 -1142.6,92.1 -1782,368.3 -58,25.1 -84.7,92.4 -59.7,150.5 25.1,58 92.6,84.6 150.5,59.6 1782.4,-769.9 3383.7,-9.9 3399.6,-2.2 57.1,27.7 125.4,4 153,-52.7 27.7,-56.8 4.2,-125.2 -52.6,-152.9 -45.4,-22.3 -776.1,-370.6 -1808.8,-370.6"
         style="fill:#371b45;fill-opacity:1;fill-rule:nonzero;stroke:none"
         transform="matrix(0.13333333,0,0,-0.13333333,0,5330.52)" /><path
         id="path25"
         d="m 22689.3,15646.9 c 166.1,-388.5 280.7,-793.9 380.2,-1201.9 45.6,-204.9 93.4,-409.6 129.1,-616.5 l 58,-309.5 c 19.3,-103.2 34.3,-207.1 51.6,-310.6 l 50.5,-310.8 c 17.2,-103.5 29.2,-207.8 43.9,-311.7 26.9,-208.2 60.2,-415.7 80.2,-624.7 22.1,-208.7 46.4,-417.3 66.7,-626.2 l 50,-627.8 12.4,-157 7.1,-157.4 13.6,-314.6 c 8.8,-209.8 20.6,-419.5 20.1,-629.5 l 7.2,-629.9 c 0.5,-209.9 -7.9,-419.8 -11.4,-629.7 -1.7,-420.2 -38.2,-839 -62.7,-1258.1 -9.7,-209.8 -36.5,-418.3 -56.2,-627.3 l -65.9,-626.2 -65.5,116.9 0.4,-0.2 c 116.9,-57.7 216,-121.6 315.2,-196 97.8,-74.2 189.7,-157.6 271.8,-252.1 81.6,-94.9 153.9,-201 205.9,-319.4 53.7,-117.3 83.3,-247.6 89.2,-377.8 5.1,-131.4 -13.9,-258.6 -58.8,-385.2 -45.5,-125.4 -122.2,-240.2 -216.6,-331.1 -192.1,-181.5 -430.4,-276.2 -662.8,-340.1 -234.6,-61.4 -471.9,-92.3 -707.8,-108.1 -236.1,-16.1 -471.4,-16.5 -705.8,-9.6 -234.3,7.3 -467.7,23.4 -700.3,44.2 -58.6,5.9 -114.8,10.1 -175.5,17.9 -62.6,11.3 -125.8,15.7 -187.4,36.8 -125.1,29.5 -243,92.2 -349.2,166.1 l -75.9,61.3 c -25.4,20.3 -45.8,45.4 -68.7,68.1 -47.2,44.7 -81.6,98.3 -120.9,148.4 -68.3,105.9 -128.2,216.3 -170.4,331.1 -89.1,228.5 -138.8,464.2 -172.8,698.6 -65.2,469.8 -73.4,938.4 -71,1403.9 8.3,931.2 62.6,1855.4 61.9,2778.1 l 134.2,-112.8 c -68.6,-11.1 -131.1,-17.9 -196.9,-23.2 -65,-5.2 -130.5,-7.9 -196.4,-8.1 -65.9,0.2 -131.3,2.9 -196.4,8.1 -65.8,5.3 -128.2,12.1 -196.9,23.2 l 134.2,112.8 c -0.6,-922.7 53.6,-1846.9 61.9,-2778.1 2.4,-465.5 -5.8,-934 -71,-1403.8 -34,-234.5 -83.6,-470.1 -172.8,-698.6 -42.1,-114.8 -102.1,-225.3 -170.3,-331.2 -39.4,-50.1 -73.6,-103.7 -120.9,-148.4 -23,-22.7 -43.4,-47.8 -68.7,-68.1 l -75.9,-61.2 c -106.2,-74 -224.2,-136.7 -349.3,-166.2 -61.5,-21.1 -124.8,-25.5 -187.4,-36.8 -60.6,-7.8 -116.8,-12 -175.5,-17.9 -232.5,-20.8 -465.9,-36.9 -700.2,-44.2 -234.3,-6.9 -469.7,-6.5 -705.8,9.6 -236,15.8 -473.2,46.7 -707.8,108.1 -232.4,63.8 -470.7,158.6 -662.8,340.1 -94.4,90.9 -171.1,205.6 -216.7,331 -44.9,126.6 -63.9,253.8 -58.8,385.2 6,130.3 35.6,260.6 89.2,377.8 52.1,118.5 124.2,224.6 205.8,319.4 82.1,94.5 174.1,177.9 271.8,252.2 99.3,74.3 198.4,138.3 315.3,196 l 0.5,0.2 -65.6,-116.9 -68.4,626 c -20.2,209 -47.7,417.4 -58,627.2 -25.5,419.1 -63.8,837.9 -66.4,1258.1 -3.9,210 -12.7,420 -12.6,630 l 6,630.1 c -0.8,210.1 10.6,419.9 19,629.8 l 13,314.8 6.5,157.4 11.7,157.1 48.4,628.3 c 19.7,209.1 43.5,417.9 65.1,626.7 19.5,209.2 51.8,417 79.2,625.2 15,103.9 27,208.3 44.4,311.9 l 50.8,311 c 17.4,103.5 32.6,207.5 52,310.7 l 58.3,309.7 c 37.1,206.7 82.7,412 127.1,617.3 22,102.8 50,204.3 77.7,305.8 l 41.6,152 c 15.1,50.5 31.9,100.4 47.8,150.6 31.2,100.6 66.4,199.9 104.4,298.5 37.9,98.5 78.2,196.2 126,291.5 4.4,8.9 15.3,12.5 24.2,8.1 7.1,-3.6 10.8,-11.2 9.8,-18.6 v -0.4 c -112.7,-833 -309.4,-1637.8 -425.7,-2463.6 L 16152,12864 c -15.7,-102.8 -25.9,-206.4 -39.2,-309.6 -23.2,-206.7 -54.3,-412.5 -71.7,-619.9 -19.6,-207.1 -41.4,-414 -59.3,-621.2 l -42.6,-622.6 -11,-155.7 -6.8,-155.8 -13.4,-311.8 c -8.7,-207.8 -20.4,-415.6 -20,-623.7 l -7,-624 c -0.5,-208 7.9,-416 11.3,-624 3.8,-416.2 30.1,-831.5 50.7,-1247.2 7,-208.2 31.2,-414.9 48.1,-622.4 l 51.8,-622.4 0.4,-4.5 c 4,-48.9 -23.8,-93.2 -66,-112.5 l -0.1,-0.1 c -91,-44.8 -188,-106.1 -273.7,-170.9 -86.7,-65.9 -167,-139.1 -236.9,-219.5 -140.1,-160.2 -232.3,-353.9 -239.3,-556.4 -4.7,-99.9 12.2,-206.3 45,-297.4 33.7,-92.2 88.4,-175.1 160.7,-245.1 146.4,-139.5 351.2,-226.4 563,-283.7 213.7,-55.9 438,-85.9 664,-100.8 226.1,-15.4 454.7,-15.9 683.2,-9.2 228.8,7.1 457.9,22.9 686.7,43.4 56.6,5.6 115.9,10.2 170,17.3 51.2,9.9 104.7,12.7 153.1,30.1 101.3,23.2 191,73.1 274.3,130 l 59.3,47.8 c 20.1,15.6 36.1,36.4 54.4,54.2 37.8,34.7 65.7,80 98.4,120.5 56.5,88.9 108.7,182.6 146.2,285.6 79.5,203.4 127,424.1 159.2,647.6 62.4,448.5 71.3,909.3 68.7,1369.6 -8.1,922 -62.5,1848.9 -61.9,2779.6 0,63.3 51.3,114.5 114.6,114.4 6,0 11.9,-0.4 17.7,-1.3 l 1.9,-0.3 c 54.8,-9 116.7,-16 175.5,-20.7 59.6,-4.7 119.2,-7.2 178.3,-7.4 59.2,0.2 118.8,2.7 178.3,7.4 58.9,4.7 120.7,11.7 175.6,20.7 l 1.2,0.2 c 62.4,10.1 121.3,-32.2 131.4,-94.6 1,-6 1.5,-12.6 1.5,-18.4 0.6,-930.7 -53.8,-1857.7 -61.9,-2779.6 -2.5,-460.3 6.3,-921.1 68.7,-1369.7 32.3,-223.5 79.7,-444.1 159.2,-647.5 37.6,-103 89.7,-196.8 146.3,-285.7 32.6,-40.4 60.5,-85.7 98.3,-120.4 18.3,-17.8 34.3,-38.6 54.4,-54.2 l 59.3,-47.8 c 83.4,-56.9 173.1,-106.8 274.4,-130 48.3,-17.4 101.9,-20.2 153,-30.1 54.1,-7.1 113.6,-11.7 170.1,-17.3 228.9,-20.5 457.9,-36.3 686.6,-43.4 228.6,-6.7 457.1,-6.2 683.3,9.2 226,14.9 450.3,44.9 664.1,100.8 211.7,57.3 416.5,144.2 562.9,283.7 72.3,70 126.9,152.9 160.7,245.2 32.8,91.1 49.7,197.4 45,297.4 -7.1,202.4 -99.3,396.2 -239.4,556.4 -69.9,80.3 -150.2,153.5 -236.9,219.4 -85.8,64.9 -182.8,126.2 -273.6,171 h -0.2 c -44.8,20.7 -69.9,66.7 -66,113.2 l 0.4,3.8 54.3,622.2 c 17.5,207.4 42.3,414.2 49.9,622.3 21.7,415.7 49.8,831 54.4,1247.3 3.9,208.1 12.7,416.1 12.6,624.1 l -5.9,624.3 c 0.8,208.2 -10.4,416.1 -18.7,624 l -13,311.9 -6.2,156 -10.2,155.7 -41,623.1 c -17.3,207.4 -38.6,414.5 -57.7,621.8 -16.9,207.5 -47.1,413.5 -71,620.4 -13.2,103.2 -23.6,206.9 -39.4,309.7 l -45.8,308.9 c -58,412.4 -137.9,821 -213,1230.4 -77.7,409.1 -153.8,818.4 -228.6,1230.8 v 0.6 c -1.7,9.2 4.4,18 13.6,19.7 8,1.4 15.6,-2.9 18.7,-10"
         style="fill:#371b45;fill-opacity:1;fill-rule:nonzero;stroke:none"
         transform="matrix(0.13333333,0,0,-0.13333333,0,5330.52)" /><path
         id="path26"
         d="m 23289,12260.3 h -7298.7 c -229.5,0 -415.5,186 -415.5,415.4 v 7.2 c 0,229.5 186,415.5 415.5,415.5 H 23289 c 229.4,0 415.4,-186 415.4,-415.5 v -7.2 c 0,-229.4 -186,-415.4 -415.4,-415.4"
         style="fill:#ffffff;fill-opacity:1;fill-rule:nonzero;stroke:none"
         transform="matrix(0.13333333,0,0,-0.13333333,0,5330.52)" /><path
         id="path27"
         d="m 23289,12393.8 h -1195.5 v 214.4 H 23289 c 107.9,0 206.1,41.2 279.9,108.7 1.3,-11.2 2,-22.5 2,-34 v -7.2 c 0,-155.4 -126.5,-281.9 -281.9,-281.9 m -6103.3,0 h -1195.4 c -155.5,0 -282,126.5 -282,281.9 v 7.2 c 0,11.5 0.7,22.9 2,34 73.8,-67.5 172,-108.7 280,-108.7 h 1195.4 v -214.4"
         style="fill:#b9afbe;fill-opacity:1;fill-rule:nonzero;stroke:none"
         transform="matrix(0.13333333,0,0,-0.13333333,0,5330.52)" /><path
         id="path28"
         d="m 15990.3,12964.9 c -155.5,0 -282,-126.5 -282,-282 v -7.2 c 0,-155.4 126.5,-281.9 282,-281.9 H 23289 c 155.4,0 281.9,126.5 281.9,281.9 v 7.2 c 0,155.5 -126.5,282 -281.9,282 h -7298.7 m 7298.7,-838.1 h -7298.7 c -302.7,0 -549,246.2 -549,548.9 v 7.2 c 0,302.7 246.3,549 549,549 H 23289 c 302.7,0 548.9,-246.3 548.9,-549 v -7.2 c 0,-302.7 -246.2,-548.9 -548.9,-548.9"
         style="fill:#371b45;fill-opacity:1;fill-rule:nonzero;stroke:none"
         transform="matrix(0.13333333,0,0,-0.13333333,0,5330.52)" /><path
         id="path29"
         d="m 21328.9,11141.9 h -3378.6 c -422.3,0 -764.6,342.3 -764.6,764.6 v 1498.2 c 0,422.2 342.3,764.6 764.6,764.6 h 3378.6 c 422.3,0 764.6,-342.4 764.6,-764.6 v -1498.2 c 0,-422.3 -342.3,-764.6 -764.6,-764.6"
         style="fill:#ffffff;fill-opacity:1;fill-rule:nonzero;stroke:none"
         transform="matrix(0.13333333,0,0,-0.13333333,0,5330.52)" /><path
         id="path30"
         d="m 21328.9,11141.9 h -3378.6 c -422.3,0 -764.6,342.3 -764.6,764.6 v 368.5 c 0,-422.3 342.3,-764.6 764.6,-764.6 h 3378.6 c 422.3,0 764.6,342.3 764.6,764.6 v -148.2 -220.3 c 0,-422.3 -342.3,-764.6 -764.6,-764.6"
         style="fill:#b9afbe;fill-opacity:1;fill-rule:nonzero;stroke:none"
         transform="matrix(0.13333333,0,0,-0.13333333,0,5330.52)" /><path
         id="path31"
         d="m 18906.2,11008.7 c -73.6,0 -133.2,59.6 -133.2,133.2 v 1189.7 l -481.3,310.1 c -38.1,24.5 -61.1,66.7 -61.1,112 v 1415.6 c 0,73.5 59.6,133.2 133.2,133.2 73.5,0 133.2,-59.7 133.2,-133.2 v -1343 l 481.3,-310.1 c 38.1,-24.5 61.1,-66.7 61.1,-112 v -1262.3 c 0,-73.6 -59.7,-133.2 -133.2,-133.2"
         style="fill:#371b45;fill-opacity:1;fill-rule:nonzero;stroke:none"
         transform="matrix(0.13333333,0,0,-0.13333333,0,5330.52)" /><path
         id="path32"
         d="m 21357.8,12622.1 c 0,-321.2 -260.4,-581.5 -581.5,-581.5 -321.2,0 -581.5,260.3 -581.5,581.5 0,321.1 260.3,581.5 581.5,581.5 321.1,0 581.5,-260.4 581.5,-581.5"
         style="fill:#39a1ff;fill-opacity:1;fill-rule:nonzero;stroke:none"
         transform="matrix(0.13333333,0,0,-0.13333333,0,5330.52)" /><path
         id="path33"
         d="m 20460.2,12133.9 c -130.4,84.6 -224.9,220.2 -255.1,378.5 0.5,-2.6 1,-5.1 1.5,-7.6 v 0.1 c 31.8,-155.1 125.2,-287.7 253.6,-371 m 762.5,115.6 c 0.4,0.4 0.7,0.8 1,1.2 -0.3,-0.4 -0.6,-0.8 -1,-1.2 m 1.1,1.4 c 74.3,89.3 122.2,201.3 132.1,324 1.2,15.6 1.9,31.3 1.9,47.2 0,-141.1 -50.3,-270.5 -134,-371.2 m 134,371.2 c 0,0.5 0,1.1 0,1.6 0,-0.5 0,-1.1 0,-1.6 v 0 m -1163,0 v 0 c 0,0.5 0,1.1 0,1.7 0,-0.6 0,-1.1 0,-1.7 m 0,2.5 c 0,0.2 0,0.5 0,0.7 0,-0.2 0,-0.5 0,-0.7 m 1163,0 c 0,0.3 0,0.5 0,0.7 0,-0.2 0,-0.4 0,-0.7 m -1163,1.9 c 0,0.1 0,0.1 0,0.2 0,0 0,-0.1 0,-0.2"
         style="fill:#b9afbe;fill-opacity:1;fill-rule:nonzero;stroke:none"
         transform="matrix(0.13333333,0,0,-0.13333333,0,5330.52)" /><path
         id="path34"
         d="m 20776.3,12040.6 c -116.6,0 -225.1,34.3 -316.1,93.3 -128.4,83.3 -221.8,215.9 -253.6,371 13.6,66.3 38.5,128.6 72.6,184.6 101.9,-168 286.2,-280.4 497.1,-280.4 210.8,0 395.1,112.4 497,280.4 34.1,-56.1 59,-118.3 72.6,-184.7 4.7,22.9 8,46.3 10,70.1 -9.9,-122.7 -57.8,-234.7 -132.1,-324 0,-0.1 0,-0.2 -0.1,-0.2 -0.3,-0.4 -0.6,-0.8 -1,-1.2 -106.6,-127.7 -267,-208.9 -446.4,-208.9"
         style="fill:#3872be;fill-opacity:1;fill-rule:nonzero;stroke:none"
         transform="matrix(0.13333333,0,0,-0.13333333,0,5330.52)" /><path
         id="path35"
         d="m 20205.1,12512.4 c -6.8,35.5 -10.3,72.2 -10.3,109.7 v 0 c 0,-37.5 3.5,-74.2 10.3,-109.7 m 1152.7,111.3 c 0,0.3 0,0.6 0,0.9 0,-0.3 0,-0.6 0,-0.9 m -1163,0.1 c 0,0.2 0,0.5 0,0.8 0,-0.3 0,-0.6 0,-0.8 m 1163,1.5 c -0.1,5 -0.2,9.9 -0.3,14.9 -3.6,116 -41.1,223.4 -103,312.7 64.5,-93.1 102.6,-205.9 103.3,-327.6 m -1163,0 c 0,0.5 0,0.8 0,1.2 0,-0.4 0,-0.8 0,-1.2 m 0,1.4 c 1.4,178.5 83.2,337.8 210.9,443.5 -119.8,-99.2 -199.1,-245.5 -209.7,-410.5 -0.7,-10.9 -1.1,-21.9 -1.2,-33"
         style="fill:#ffffff;fill-opacity:1;fill-rule:nonzero;stroke:none"
         transform="matrix(0.13333333,0,0,-0.13333333,0,5330.52)" /><path
         id="path36"
         d="m 21357.5,12640.2 c -1.9,57.9 -12.5,113.6 -30.1,166.1 -13.7,-41.2 -32,-80.3 -54.1,-116.8 -102,167.6 -286.5,279.6 -497,279.6 -210.6,0 -395,-112 -497.1,-279.6 -22.1,36.5 -40.4,75.6 -54.1,116.8 -15.6,-46.6 -25.7,-95.7 -29.1,-146.6 10.6,165 89.9,311.3 209.7,410.5 100.6,83.3 229.8,133.3 370.6,133.3 198.2,0 373.2,-99.1 478.2,-250.6 61.9,-89.3 99.4,-196.7 103,-312.7"
         style="fill:#c3e3ff;fill-opacity:1;fill-rule:nonzero;stroke:none"
         transform="matrix(0.13333333,0,0,-0.13333333,0,5330.52)" /><path
         id="path37"
         d="m 20206.6,12504.8 c -0.5,2.5 -1,5 -1.5,7.6 -6.8,35.5 -10.3,72.2 -10.3,109.7 0,0.6 0,1.1 0,1.7 0,0.2 0,0.5 0,0.8 0,0.2 0,0.5 0,0.7 0,0.4 0,0.8 0,1.2 0,0.1 0,0.2 0,0.2 0.1,11.1 0.5,22.1 1.2,33 -0.8,-12.5 -1.2,-25 -1.2,-37.6 0,-40.2 4.1,-79.4 11.8,-117.2 v -0.1 m 1149.3,70.1 c 1.2,15.6 1.9,31.3 1.9,47.2 0,6 -0.1,12.1 -0.3,18.1 0.1,-5 0.2,-9.9 0.3,-14.9 0,-0.2 0,-0.4 0,-0.7 0,-0.3 0,-0.6 0,-0.9 0,-0.5 0,-1.1 0,-1.6 v 0 c 0,-15.9 -0.7,-31.6 -1.9,-47.2"
         style="fill:#eae7eb;fill-opacity:1;fill-rule:nonzero;stroke:none"
         transform="matrix(0.13333333,0,0,-0.13333333,0,5330.52)" /><path
         id="path38"
         d="m 21345.9,12504.8 c -13.6,66.4 -38.5,128.6 -72.6,184.7 22.1,36.5 40.4,75.6 54.1,116.8 17.6,-52.5 28.2,-108.2 30.1,-166.1 0.2,-6 0.3,-12.1 0.3,-18.1 0,-15.9 -0.7,-31.6 -1.9,-47.2 -2,-23.8 -5.3,-47.2 -10,-70.1 m -1139.3,0.1 c -7.7,37.8 -11.8,77 -11.8,117.2 0,12.6 0.4,25.1 1.2,37.6 3.4,50.9 13.5,100 29.1,146.6 13.7,-41.2 32,-80.3 54.1,-116.8 -34.1,-56 -59,-118.3 -72.6,-184.6"
         style="fill:#c3d4eb;fill-opacity:1;fill-rule:nonzero;stroke:none"
         transform="matrix(0.13333333,0,0,-0.13333333,0,5330.52)" /><path
         id="path39"
         d="m 20776.3,13070.4 c -247.2,0 -448.3,-201.1 -448.3,-448.3 0,-247.2 201.1,-448.3 448.3,-448.3 247.2,0 448.3,201.1 448.3,448.3 0,247.2 -201.1,448.3 -448.3,448.3 z m 0,-1163 c -394.1,0 -714.7,320.6 -714.7,714.7 0,394.1 320.6,714.7 714.7,714.7 394.1,0 714.6,-320.6 714.6,-714.7 0,-394.1 -320.5,-714.7 -714.6,-714.7"
         style="fill:#371b45;fill-opacity:1;fill-rule:nonzero;stroke:none"
         transform="matrix(0.13333333,0,0,-0.13333333,0,5330.52)" /><path
         id="path40"
         d="m 17950.3,14036 c -348.1,0 -631.4,-283.2 -631.4,-631.4 v -1498.1 c 0,-348.2 283.3,-631.4 631.4,-631.4 h 3378.6 c 348.2,0 631.5,283.2 631.5,631.4 v 1498.1 c 0,348.2 -283.3,631.4 -631.5,631.4 z m 3378.6,-3027.3 h -3378.6 c -495,0 -897.8,402.7 -897.8,897.8 v 1498.1 c 0,495.1 402.8,897.8 897.8,897.8 h 3378.6 c 495.1,0 897.8,-402.7 897.8,-897.8 v -1498.1 c 0,-495.1 -402.7,-897.8 -897.8,-897.8"
         style="fill:#371b45;fill-opacity:1;fill-rule:nonzero;stroke:none"
         transform="matrix(0.13333333,0,0,-0.13333333,0,5330.52)" /><path
         id="path41"
         d="m 24308.8,18770.8 c -53.9,-1 -98.4,42 -99.4,95.9 l -51.7,2812.4 c -1,54 41.8,98.5 95.8,99.5 565.7,10.4 1032.8,-439.8 1043.2,-1005.5 l 17.6,-959.1 c 10.4,-565.7 -439.8,-1032.7 -1005.5,-1043.2"
         style="fill:#ffffff;fill-opacity:1;fill-rule:nonzero;stroke:none"
         transform="matrix(0.13333333,0,0,-0.13333333,0,5330.52)" /><path
         id="path42"
         d="m 24272.6,21758.2 c -6.3,0 -12.4,-0.1 -18.7,-0.2 -42.5,-0.8 -76.4,-36 -75.7,-78.5 l 51.7,-2812.4 c 0.9,-42.6 36.9,-78.7 78.5,-75.7 553.5,10.2 995.5,468.8 985.4,1022.3 l -17.7,959 c -10,547.2 -458.5,985.5 -1003.5,985.5 m 34.4,-3007.9 c -64.1,0 -117,51.5 -118.2,116 l -51.7,2812.5 c -1.2,65.1 50.9,119.1 116,120.4 6.5,0.1 13,0.1 19.5,0.1 567.4,0 1034.2,-456.2 1044.6,-1025.9 l 17.7,-959 c 10.5,-576.1 -449.6,-1053.4 -1025.7,-1064.1 h -2.2"
         style="fill:#371b45;fill-opacity:1;fill-rule:nonzero;stroke:none"
         transform="matrix(0.13333333,0,0,-0.13333333,0,5330.52)" /><path
         id="path43"
         d="m 24374.4,18889 c 60.9,223.5 106.2,452.4 135.2,685.4 288.5,50.1 534.8,220.6 686.2,457.2 l 4.1,-219.7 c 8.8,-478.9 -356,-879.5 -825.5,-922.9"
         style="fill:#b9afbe;fill-opacity:1;fill-rule:nonzero;stroke:none"
         transform="matrix(0.13333333,0,0,-0.13333333,0,5330.52)" /><path
         id="path44"
         d="m 24272.4,21664.3 51.1,-2778.6 c 493.8,18.1 885.5,430.1 876.4,926.2 l -17.7,959.1 c -9,496 -415.6,893.3 -909.6,893.3 h -0.2 m 34.4,-2779.1 h -0.1 0.1 m 0.2,-228.8 c -115.1,0 -209.9,92.5 -212.1,208.1 l -51.7,2812.5 c -2.1,117 91.3,213.8 208.2,216 7.1,0.1 14.1,0.2 21.2,0.2 618.4,0 1127.1,-497.2 1138.5,-1118 l 17.7,-959.1 c 11.5,-627.8 -490,-1148 -1117.8,-1159.7 -1.4,0 -2.7,0 -4,0"
         style="fill:#371b45;fill-opacity:1;fill-rule:nonzero;stroke:none"
         transform="matrix(0.13333333,0,0,-0.13333333,0,5330.52)" /><path
         id="path45"
         d="m 14970.3,21607.8 c 53.9,1 98.5,-41.9 99.5,-95.8 l 51.7,-2812.5 c 1,-53.9 -41.9,-98.4 -95.9,-99.4 -565.7,-10.5 -1032.7,439.8 -1043.2,1005.5 l -17.6,959 c -10.4,565.8 439.8,1032.8 1005.5,1043.2"
         style="fill:#ffffff;fill-opacity:1;fill-rule:nonzero;stroke:none"
         transform="matrix(0.13333333,0,0,-0.13333333,0,5330.52)" /><path
         id="path46"
         d="m 14970.3,21607.8 h 0.5 -0.5 m 0.4,-20.6 c -553.5,-10.1 -995.5,-468.7 -985.3,-1022.2 l 17.6,-959 c 4.9,-268.1 114,-518.3 307.1,-704.4 193.1,-186.1 448.9,-286.9 715.1,-280.9 42.5,0.7 76.5,36 75.8,78.5 l -51.8,2812.4 c -0.8,42.5 -35.9,77.9 -78.5,75.6 m 35.5,-3007.8 c -271.8,0 -528.4,103.4 -724.7,292.6 -200.9,193.7 -314.5,454.1 -319.6,733.2 l -17.6,959 c -10.6,576.2 449.6,1053.5 1025.6,1064.2 65.5,-0.7 119.1,-50.9 120.4,-116 l 51.8,-2812.5 c 1.1,-65.2 -51,-119.2 -116.1,-120.4 -6.6,-0.1 -13.2,-0.1 -19.8,-0.1"
         style="fill:#371b45;fill-opacity:1;fill-rule:nonzero;stroke:none"
         transform="matrix(0.13333333,0,0,-0.13333333,0,5330.52)" /><path
         id="path47"
         d="m 14958.5,18715.6 c -218.8,11.3 -423.9,100 -583.3,253.6 -175,168.7 -273.9,395.5 -278.4,638.5 l -3.8,211.3 c 166.5,-212.9 415.5,-358.1 697.7,-388.3 38.2,-244.4 94.6,-483.3 167.8,-715.1"
         style="fill:#b9afbe;fill-opacity:1;fill-rule:nonzero;stroke:none"
         transform="matrix(0.13333333,0,0,-0.13333333,0,5330.52)" /><path
         id="path48"
         d="m 14970.3,21607.8 h 0.5 -0.5 m -14.6,-114.9 c -493.9,-18 -885.5,-430 -876.4,-926.2 l 17.5,-959 c 4.5,-243 103.4,-469.8 278.4,-638.5 170.9,-164.7 394.4,-254.8 631,-254.8 h 0.6 l -51.1,2778.5 m 50.4,-3007.4 c -296.1,0 -575.8,112.7 -789.7,318.9 -219.1,211.1 -342.8,494.9 -348.4,799.1 l -17.6,959 c -11.5,628 489.9,1148.2 1117.8,1159.7 114.8,3.4 213.8,-91.2 216,-208.1 l 51.8,-2812.5 c 2,-116.9 -91.4,-213.7 -208.3,-215.9 -7.2,-0.2 -14.4,-0.2 -21.6,-0.2"
         style="fill:#371b45;fill-opacity:1;fill-rule:nonzero;stroke:none"
         transform="matrix(0.13333333,0,0,-0.13333333,0,5330.52)" /><path
         id="path49"
         d="m 24426.9,19937.3 c -139.1,-2643.6 -2395.1,-4673.9 -5038.8,-4534.8 -2643.6,139.2 -4673.9,2395.2 -4534.7,5038.8 139.1,2643.7 2395.1,4674 5038.8,4534.8 2643.6,-139.1 4673.9,-2395.1 4534.7,-5038.8"
         style="fill:#ffffff;fill-opacity:1;fill-rule:nonzero;stroke:none"
         transform="matrix(0.13333333,0,0,-0.13333333,0,5330.52)" /><path
         id="path50"
         d="m 19634.4,24962.4 c -1180.1,0 -2303.3,-430 -3187.1,-1225.4 -947.6,-852.8 -1506.4,-2023.6 -1573.4,-3296.7 -138.3,-2628.2 1887.2,-4878.9 4515.3,-5017.2 1273.3,-67.1 2496.1,365.7 3443.8,1218.6 947.6,852.8 1506.4,2023.6 1573.4,3296.7 67,1273.1 -365.7,2496.1 -1218.6,3443.8 -852.8,947.6 -2023.6,1506.4 -3296.7,1573.4 -85.8,4.5 -171.5,6.8 -256.7,6.8 m 11.6,-9587.2 c -86.1,0 -172.3,2.3 -258.9,6.8 -2650.8,139.6 -4693.8,2409.7 -4554.3,5060.4 67.6,1284.1 631.2,2465 1587,3325.2 955.8,860.2 2190.2,1296.2 3473.4,1229.1 1284.1,-67.6 2465.1,-631.2 3325.2,-1587 860.2,-955.8 1296.7,-2189.4 1229.1,-3473.4 l -20.6,1.1 20.6,-1.1 c -67.6,-1284.1 -631.2,-2465 -1587,-3325.2 -891.3,-802.2 -2024.3,-1235.9 -3214.5,-1235.9"
         style="fill:#371b45;fill-opacity:1;fill-rule:nonzero;stroke:none"
         transform="matrix(0.13333333,0,0,-0.13333333,0,5330.52)" /><path
         id="path51"
         d="m 19645.2,15510.2 c -83.4,0 -167.1,2.2 -251.1,6.6 -1248,65.7 -2395.8,613.5 -3231.8,1542.5 -196.6,218.4 -370.4,451.7 -520.4,697 168.1,-204.7 547.9,-436.8 1056.7,-642.6 153.7,-81 368.5,-155.3 615.1,-221.4 619.2,-345.5 1324.7,-558.3 2080.6,-598.1 85.6,-4.5 171,-6.7 255.7,-6.7 679.3,-0.1 1328.7,142.8 1917.9,401.1 683.4,129.6 1224.1,331.2 1575.8,549.3 134.8,81 241.8,165 318.8,249.9 -199,-280.4 -430.5,-540.8 -692.3,-776.4 -866.6,-779.9 -1967.4,-1201.2 -3125,-1201.2"
         style="fill:#b9afbe;fill-opacity:1;fill-rule:nonzero;stroke:none"
         transform="matrix(0.13333333,0,0,-0.13333333,0,5330.52)" /><path
         id="path52"
         d="m 19634.5,24868.5 c -1156.9,0 -2258,-421.5 -3124.4,-1201.3 -929,-836 -1476.7,-1983.8 -1542.4,-3231.9 -65.8,-1248.1 358.5,-2447 1194.6,-3376 836,-929 1983.8,-1476.8 3231.8,-1542.5 1248.8,-65.4 2447.1,358.6 3376.1,1194.6 929,836.1 1476.8,1983.9 1542.4,3232 v 0 c 65.8,1248 -358.5,2447 -1194.5,3376 -836.1,929 -1983.9,1476.7 -3231.9,1542.4 -84.2,4.5 -168.1,6.7 -251.7,6.7 m 11.6,-9587.2 c -87.7,0 -175.7,2.3 -264,7 -2702.4,142.2 -4785.3,2456.6 -4643,5159.1 68.9,1309.1 643.5,2513 1617.9,3390 974.5,876.9 2233.2,1321.8 3541.2,1253 1309.1,-68.9 2513.1,-643.5 3390,-1617.9 877,-974.4 1321.9,-2232.1 1253,-3541.2 -68.9,-1309.1 -643.5,-2513 -1617.9,-3390 -908.7,-817.8 -2063.8,-1260 -3277.2,-1260"
         style="fill:#371b45;fill-opacity:1;fill-rule:nonzero;stroke:none"
         transform="matrix(0.13333333,0,0,-0.13333333,0,5330.52)" /><path
         id="path53"
         d="m 24405.2,19862.6 c -35.2,-881.6 -372.1,-1689.2 -919.5,-2348.1 -410.3,-493.9 -1844.7,-969.5 -3840.8,-969.5 -1837.6,0 -3660.6,725.8 -4030.4,1247.2 -493.4,695.5 -765,1524.7 -729.9,2406.2 93,2332.8 2262.8,3627.1 4891.9,3534.4 2629.1,-92.8 4721.7,-1537.4 4628.7,-3870.2"
         style="fill:#371b45;fill-opacity:1;fill-rule:nonzero;stroke:none"
         transform="matrix(0.13333333,0,0,-0.13333333,0,5330.52)" /><path
         id="path54"
         d="m 19918.8,16541.3 c -90,0 -180.8,1.2 -273.2,3.7 757.7,0 1434.3,68.6 2004.7,180.6 -27.4,-12.6 -54.7,-24.9 -82.4,-37 -483.4,-91.7 -1038.4,-147.3 -1649.1,-147.3"
         style="fill:#acafb4;fill-opacity:1;fill-rule:nonzero;stroke:none"
         transform="matrix(0.13333333,0,0,-0.13333333,0,5330.52)" /><path
         id="path55"
         d="m 21567.9,16688.6 c 27.7,12.1 55,24.4 82.4,37 646.4,127 1156.6,309.9 1493.4,512.3 -351.7,-218.1 -892.4,-419.7 -1575.8,-549.3"
         style="fill:#7e7b8a;fill-opacity:1;fill-rule:nonzero;stroke:none"
         transform="matrix(0.13333333,0,0,-0.13333333,0,5330.52)" /><path
         id="path56"
         d="m 17481.2,16849.7 c -57.1,13.8 -113.1,28 -167.5,42.6 -7.6,4.2 -15.5,8.7 -23.1,13 62.4,-19.1 126.1,-37.7 190.6,-55.6"
         style="fill:#acafb4;fill-opacity:1;fill-rule:nonzero;stroke:none"
         transform="matrix(0.13333333,0,0,-0.13333333,0,5330.52)" /><path
         id="path57"
         d="m 17313.7,16892.3 c -246.6,66.1 -461.4,140.4 -615.1,221.4 182.1,-73.7 380.7,-144 592,-208.4 7.6,-4.3 15.5,-8.8 23.1,-13"
         style="fill:#7e7b8a;fill-opacity:1;fill-rule:nonzero;stroke:none"
         transform="matrix(0.13333333,0,0,-0.13333333,0,5330.52)" /><path
         id="path58"
         d="m 24408.1,20034.8 c -1.8,278.8 -35.4,544.1 -97.8,795.4 63.7,-245.6 97.4,-510.5 97.8,-795.4"
         style="fill:#2a1b3b;fill-opacity:1;fill-rule:nonzero;stroke:none"
         transform="matrix(0.13333333,0,0,-0.13333333,0,5330.52)" /><path
         id="path59"
         d="m 19645.6,16545 c -0.2,0 -0.5,0 -0.7,0 -452.7,12 -1413.5,123.5 -2163.7,304.7 -64.5,17.9 -128.2,36.5 -190.6,55.6 -211.3,64.4 -409.9,134.7 -592,208.4 -55,29 -102.1,58.8 -140,89.5 442.6,-26.1 860.7,-38.2 1254,-38.2 2655.3,0 4190.3,552.1 4633.6,1088.5 347.9,421 628.7,889.6 828.1,1393.8 90.1,116.5 160,263.9 196.7,430.7 21.9,99.6 30.2,198 26.3,291.7 64.5,285.5 103.8,579.6 115.6,880.3 12.2,300.7 -4.6,584.6 -46.8,852.2 356.4,-346.6 613.5,-768.7 744.2,-1272 62.4,-251.3 96,-516.6 97.8,-795.4 0,-50.6 -0.9,-101.8 -3,-153.7 -35.1,-886.6 -372.2,-1698.7 -919.3,-2361.2 -77.8,-94.1 -193,-189.5 -342.1,-282 -336.8,-202.4 -847,-385.3 -1493.4,-512.3 -570.4,-112 -1247,-180.6 -2004.7,-180.6"
         style="fill:#2a1b3b;fill-opacity:1;fill-rule:nonzero;stroke:none"
         transform="matrix(0.13333333,0,0,-0.13333333,0,5330.52)" /><path
         id="path60"
         d="m 24077.4,21891.3 c -30,0 -59.7,11.7 -81.9,34.4 -5.3,5.4 -10.2,11.4 -14.4,17.7 -863.4,1311.9 -2518.7,2200.8 -4216.9,2264.5 -1726,64.4 -3393.2,-702 -4348.9,-2001.1 -2.5,-3.4 -5.2,-6.7 -8.1,-9.8 -42.9,-46.4 -115.5,-49.6 -162,-6.8 -44.4,41.1 -49.2,109 -11.9,155.5 1000.4,1357.3 2739.1,2158.1 4539.5,2091 1767.9,-66.4 3492.9,-993.6 4396.5,-2362.9 35.9,-48.4 28.1,-116.9 -18.7,-156 -21.4,-17.8 -47.4,-26.5 -73.2,-26.5"
         style="fill:#371b45;fill-opacity:1;fill-rule:nonzero;stroke:none"
         transform="matrix(0.13333333,0,0,-0.13333333,0,5330.52)" /><path
         id="path61"
         d="m 15942.7,18940 c 0,0 -605.3,2296.5 607.4,3155.2 836.1,592 1902.8,742.8 2470.2,742.8 255.5,0 409.6,-30.6 396,-65.2 0,0 -1896.3,-398.6 -2687.4,-1910.3 -610,-1165.7 -786.2,-1922.5 -786.2,-1922.5"
         style="fill:#9b8da2;fill-opacity:1;fill-rule:nonzero;stroke:none"
         transform="matrix(0.13333333,0,0,-0.13333333,0,5330.52)" /><path
         id="path62"
         d="m 23664.5,28227.6 c -154.9,-150.9 -225.4,-368.8 -188.9,-581.7 l 607.2,-3539.6 c 91.9,-536.7 -471.3,-946 -953.5,-692.6 l -3178.8,1671.1 c -191.4,100.4 -419.8,100.4 -611.2,0 l -3178.8,-1671.1 c -218.9,-115 -454.8,-93.5 -638.7,14.5 -220.4,130.4 -364.8,385.2 -314.8,678.1 l 607.1,3539.6 c 36.5,212.9 -34,430.8 -188.9,581.7 l -2571.6,2506.7 c -390.3,380.3 -174.9,1042.4 363.8,1120.9 l 3554.1,516.2 c 213.9,31 398.8,165.4 494.8,359.3 l 1589.1,3220.3 c 241.4,488.8 937.5,488.8 1178.9,0 l 1589.2,-3220.3 c 95.9,-193.9 280.8,-328.3 494.7,-359.3 l 3554.1,-516.2 c 309.4,-45 512.2,-282.9 554.7,-548.7 31.5,-197.4 -25,-410.3 -190.9,-572.2 l -2571.6,-2506.7"
         style="fill:#ffd143;fill-opacity:1;fill-rule:nonzero;stroke:none"
         transform="matrix(0.13333333,0,0,-0.13333333,0,5330.52)" /><path
         id="path63"
         d="m 26236.1,30734.3 c 165.9,161.9 222.4,374.8 190.9,572.2 -40.2,251.7 -224.4,478 -506.3,539.6 10.2,-31.1 18,-62.9 23.2,-95.3 29.2,-183.3 -23.2,-381.1 -177.3,-531.4 l -2388.5,-2328.1 c -143.8,-140.2 -209.3,-342.6 -175.4,-540.3 l 563.9,-3287.5 c 85.4,-498.5 -437.7,-878.6 -885.5,-643.2 l -2952.4,1552 c -177.7,93.3 -389.9,93.3 -567.6,0 l -2952.4,-1552 c -203.3,-106.8 -422.3,-86.8 -593.2,13.4 -204.6,121.1 -338.8,357.9 -292.4,629.8 L 16087,28351 c 33.9,197.7 -31.5,400.1 -175.5,540.3 l -2388.4,2328.1 c -181.6,177 -221.9,419.7 -154.1,626.9 -502.9,-109.8 -693.8,-743.3 -315.4,-1112 l 2571.6,-2506.7 c 155,-150.9 225.4,-368.8 188.9,-581.7 L 15207,24106.3 c -50,-292.9 94.4,-547.7 314.8,-678.2 183.9,-107.9 419.8,-129.4 638.7,-14.5 l 3178.8,1671.2 c 191.4,100.4 419.8,100.4 611.2,0 l 3178.8,-1671.2 c 482.2,-253.3 1045.4,156 953.5,692.7 l -607.2,3539.6 c -36.5,212.9 34,430.8 188.9,581.7 l 2571.6,2506.7"
         style="fill:#ffa82c;fill-opacity:1;fill-rule:nonzero;stroke:none"
         transform="matrix(0.13333333,0,0,-0.13333333,0,5330.52)" /><path
         id="path64"
         d="m 13392.9,31402.1 c -41.4,89.7 -58.6,185.7 -54.2,280 32,11.2 65.6,19.5 100.5,24.6 l 3553.8,516.4 c 262.9,38.2 490.1,203.2 607.7,441.5 l 1589.4,3220.3 c 87.3,177.1 257.3,282.7 454.7,282.7 197.5,0.1 367.5,-105.6 454.9,-282.7 l 39.4,-79.8 c -104,65.9 -224.2,98.8 -344.3,98.8 -228.4,0 -456.8,-119 -574.4,-357.2 l -1549.2,-3139.3 c -93.5,-188.9 -273.9,-319.8 -482.3,-350.3 l -3464.2,-502.8 c -131.9,-19.3 -244,-74.5 -331.8,-152.2"
         style="fill:#fff1c6;fill-opacity:1;fill-rule:nonzero;stroke:none"
         transform="matrix(0.13333333,0,0,-0.13333333,0,5330.52)" /><path
         id="path65"
         d="m 13183.6,30816.7 -25.5,24.9 c -141.4,137.8 -189.4,332.1 -128.4,519.9 50.1,154.2 162.3,268.8 309,320.6 -4.4,-94.3 12.8,-190.3 54.2,-280 -164.4,-145.5 -243.7,-369.8 -209.3,-585.4"
         style="fill:#ffe5bf;fill-opacity:1;fill-rule:nonzero;stroke:none"
         transform="matrix(0.13333333,0,0,-0.13333333,0,5330.52)" /><path
         id="path66"
         d="m 25940.7,31538.8 c -24.5,6.5 -49.8,11.7 -75.9,15.5 l -3464.1,502.8 c -193.5,28.3 -362.9,143.2 -461,310.7 104.1,-75.3 226.1,-125.7 357,-144.7 l 3553.8,-516.4 c 34.9,-5.1 68.5,-13.4 100.4,-24.6 2.3,-47.7 -1,-95.8 -10.2,-143.3"
         style="fill:#fff1c6;fill-opacity:1;fill-rule:nonzero;stroke:none"
         transform="matrix(0.13333333,0,0,-0.13333333,0,5330.52)" /><path
         id="path67"
         d="m 26270.5,31324.6 c -80.3,100.2 -192.2,177.7 -329.8,214.2 9.2,47.5 12.5,95.6 10.2,143.3 146.8,-51.8 259,-166.4 309.1,-320.6 3.9,-12.3 7.5,-24.6 10.5,-36.9"
         style="fill:#ffe5bf;fill-opacity:1;fill-rule:nonzero;stroke:none"
         transform="matrix(0.13333333,0,0,-0.13333333,0,5330.52)" /><path
         id="path68"
         d="m 19339.1,25084.8 h 0.5 -0.5 m 305.8,225.4 c 128.9,0 257.9,-30.9 375.5,-92.7 l 3178.7,-1671.1 c 174.7,-91.9 374.4,-77.4 534.1,38.5 159.7,116.1 235.2,301.5 201.8,496.1 l -607.1,3539.5 c -44.9,261.9 41.9,529 232.2,714.4 l 2571.6,2506.7 c 141.3,137.8 189.3,332.2 128.3,519.9 -61,187.8 -214.1,316.8 -409.5,345.2 l -3553.8,516.4 c -262.9,38.2 -490.1,203.2 -607.7,441.5 l -1589.3,3220.3 c -87.4,177.1 -257.4,282.8 -454.9,282.7 -197.4,0 -367.4,-105.6 -454.7,-282.7 l -1589.4,-3220.3 c -117.6,-238.3 -344.8,-403.3 -607.7,-441.5 l -3553.8,-516.4 c -195.4,-28.4 -348.5,-157.4 -409.5,-345.2 -61,-187.8 -13,-382.1 128.4,-519.9 l 2571.6,-2506.7 c 190.2,-185.4 277,-452.5 232.1,-714.3 L 15354.7,24081 c -33.4,-194.6 42.1,-380 201.8,-496.1 159.8,-115.9 359.4,-130.4 534.1,-38.5 l 3178.7,1671.1 c 117.6,61.8 246.6,92.7 375.6,92.7 m 3791,-2122.8 c -128.3,0 -257.2,30.9 -376.4,93.6 l -3178.6,1671.1 c -147.8,77.7 -324.2,77.7 -472,0 L 16230.2,23281 c -273.9,-144 -599.4,-120.6 -849.9,61.3 -250.3,181.9 -373.4,484.4 -321.2,789.4 l 607.2,3539.5 c 28.2,164.6 -26.4,332.5 -145.9,448.9 l -2571.6,2506.7 c -221.6,216 -299.9,533 -204.2,827.3 95.6,294.3 345.2,504.8 651.4,549.3 l 3553.9,516.4 c 165.2,24 308,127.7 381.9,277.5 l 1589.4,3220.3 c 136.9,277.5 414.2,449.9 723.6,449.9 309.5,0 586.8,-172.4 723.8,-449.9 l 1589.3,-3220.3 c 73.9,-149.8 216.7,-253.5 381.9,-277.5 l 3553.8,-516.4 c 306.3,-44.5 555.9,-254.9 651.5,-549.2 95.7,-294.3 17.4,-611.3 -204.2,-827.4 l -2571.6,-2506.7 c -119.5,-116.5 -174.1,-284.3 -145.9,-448.9 l 607.2,-3539.5 c 52.2,-305 -70.8,-607.5 -321.2,-789.4 -141.4,-102.7 -306.9,-154.9 -473.5,-154.9"
         style="fill:#371b45;fill-opacity:1;fill-rule:nonzero;stroke:none"
         transform="matrix(0.13333333,0,0,-0.13333333,0,5330.52)" /><path
         id="path69"
         d="m 12565.1,22510.5 c 0,0 751.6,2797.5 3114.7,3317 909.7,200 985.7,-737.8 589.5,-1675.7 -391.7,-927.3 -1245.1,-1854.6 -2210.4,-1681.9 l -507.8,400.9 c -324.7,256.3 -804.3,123.3 -951.2,-263.4 -11.8,-30.9 -23.4,-63.2 -34.8,-96.9"
         style="fill:#ffffff;fill-opacity:1;fill-rule:nonzero;stroke:none"
         transform="matrix(0.13333333,0,0,-0.13333333,0,5330.52)" /><path
         id="path70"
         d="m 15228.4,22749.6 c 1.1,10.9 2.2,21.9 3.3,32.7 163.6,118.3 316,262.4 454.5,422.9 19.6,-4.2 39.4,-7.7 59.3,-10.4 -151.7,-175.1 -324.3,-328.1 -517.1,-445.2"
         style="fill:#8da5be;fill-opacity:1;fill-rule:nonzero;stroke:none"
         transform="matrix(0.13333333,0,0,-0.13333333,0,5330.52)" /><path
         id="path71"
         d="m 14749.9,22209.4 c -306.6,0 -754.7,65 -989.4,407.4 0,0 28.1,8.6 77.9,27.2 l 220.5,-174.1 c 79.1,-14.2 157.3,-20.9 234.6,-20.9 242.6,0 476,66.6 694.1,181.2 -11.6,-133.3 -21.2,-270.4 -28.2,-410.8 -55.1,-5.3 -127.2,-10 -209.5,-10"
         style="fill:#b9afbe;fill-opacity:1;fill-rule:nonzero;stroke:none"
         transform="matrix(0.13333333,0,0,-0.13333333,0,5330.52)" /><path
         id="path72"
         d="m 14959.4,22219.4 c 7,140.4 16.6,277.5 28.2,410.8 83.7,44 165.2,95.1 244.1,152.1 -1.1,-10.8 -2.2,-21.8 -3.3,-32.7 -50.5,-30.8 -102.5,-59 -155.8,-84.5 v -431.3 c 0,0 -42.6,-7.7 -113.2,-14.4"
         style="fill:#371b45;fill-opacity:1;fill-rule:nonzero;stroke:none"
         transform="matrix(0.13333333,0,0,-0.13333333,0,5330.52)" /><path
         id="path73"
         d="m 16362.6,24398.3 c 182.9,547.5 190.9,1060.4 -50.3,1305.5 246.8,-139.4 266.6,-685.6 87.2,-1288.3 -12.3,-6.2 -24.6,-11.9 -36.9,-17.2"
         style="fill:#b99144;fill-opacity:1;fill-rule:nonzero;stroke:none"
         transform="matrix(0.13333333,0,0,-0.13333333,0,5330.52)" /><path
         id="path74"
         d="m 15905.3,23489.2 c 145.4,210.3 268.5,436.5 364,662.6 34.8,82.5 66,164.9 93.3,246.5 12.3,5.3 24.6,11 36.9,17.2 -90.9,-305.1 -232.9,-624.7 -422.3,-913.2 -23.8,-6.1 -47.8,-10.5 -71.9,-13.1"
         style="fill:#b97735;fill-opacity:1;fill-rule:nonzero;stroke:none"
         transform="matrix(0.13333333,0,0,-0.13333333,0,5330.52)" /><path
         id="path75"
         d="m 15745.5,23194.8 c -19.9,2.7 -39.7,6.2 -59.3,10.4 77.6,90.1 150.8,185.3 219.1,284 24.1,2.6 48.1,7 71.9,13.1 -70.7,-107.6 -148,-210.9 -231.7,-307.5"
         style="fill:#371b45;fill-opacity:1;fill-rule:nonzero;stroke:none"
         transform="matrix(0.13333333,0,0,-0.13333333,0,5330.52)" /><path
         id="path76"
         d="m 15016.8,25607.7 c 67.4,45.8 139.9,75.1 213.1,88.3 -111.7,-39.8 -188.9,-76.6 -209,-86.5 -1.4,-0.6 -2.7,-1.2 -4.1,-1.8 m 213.1,88.3 c 13.2,4.7 26.8,9.4 40.9,14.1 -12.5,-4.4 -24.7,-8.8 -37.1,-13.4 -1.2,-0.2 -2.5,-0.5 -3.8,-0.7"
         style="fill:#8da5be;fill-opacity:1;fill-rule:nonzero;stroke:none"
         transform="matrix(0.13333333,0,0,-0.13333333,0,5330.52)" /><path
         id="path77"
         d="m 14293.5,22449 c -77.3,0 -155.5,6.7 -234.6,20.9 l -220.5,174.1 c 290.7,108.1 1321.7,552.5 1823.6,1571.4 472,958.4 81.9,1488.8 -341.2,1488.8 -28.9,0 -58.1,-2.5 -87.1,-7.5 12.4,4.6 24.6,9 37.1,13.4 154.7,52 363,104.1 575.6,104.1 159.6,0 321.5,-29.3 465.3,-110 0.2,-0.2 0.4,-0.3 0.6,-0.4 241.2,-245.1 233.2,-758 50.3,-1305.5 -27.3,-81.6 -58.5,-164 -93.3,-246.5 -95.5,-226.1 -218.6,-452.3 -364,-662.6 -68.3,-98.7 -141.5,-193.9 -219.1,-284 -138.5,-160.5 -290.9,-304.6 -454.5,-422.9 -78.9,-57 -160.4,-108.1 -244.1,-152.1 -218.1,-114.6 -451.5,-181.2 -694.1,-181.2 m 722.3,3158 c 0.3,0.2 0.7,0.4 1,0.7 1.4,0.6 2.7,1.2 4.1,1.8 -3.4,-1.7 -5.1,-2.5 -5.1,-2.5"
         style="fill:#b9afbe;fill-opacity:1;fill-rule:nonzero;stroke:none"
         transform="matrix(0.13333333,0,0,-0.13333333,0,5330.52)" /><path
         id="path78"
         d="m 12455.1,22541.8 c 63.5,210.3 138.8,406.6 221.8,604 83.5,196.3 175.3,388.9 276.1,577.1 201.6,376 438.6,735.5 721.4,1060 283,323.3 614.3,612.1 996.5,823.1 190.9,104.8 393.3,190.8 603.5,251 104.9,31 212,54.4 319.7,72.6 106,18.8 224.4,32.6 342.4,22.2 118.3,-9.3 242.7,-42.9 350.9,-113.1 108.9,-69 192.8,-173.6 245.4,-284.4 105,-224.8 112.4,-461.5 92.9,-682.8 -21.2,-222.9 -76.1,-437.3 -149.5,-643.3 -74.9,-205.5 -168,-403.6 -280.5,-590.2 -111.2,-187.3 -240.9,-363.8 -387.6,-526 -72.8,-81.6 -151.2,-158.5 -234.3,-230.3 -83.3,-71.4 -169.4,-140.4 -262.9,-199.2 -185,-119.7 -391,-212 -608.1,-255.5 -216.3,-44 -442.7,-35.5 -646.1,30.8 -6.4,2.1 -10,9.1 -7.8,15.6 1.7,5.3 6.8,8.7 12.2,8.5 104.9,-3.9 208.2,2.3 308.7,17.3 100.5,16.4 198.2,41.5 292.1,75.9 188,68.7 360.9,170.7 518.7,292.4 316.3,243.8 574.6,562.9 779.5,910 101,174.5 190.7,356.2 260.8,544.6 71,187.7 124.5,382.1 148.7,576.8 23.2,193 17.2,392.8 -55.3,552.2 -36.5,78.6 -88.6,144.4 -156.8,189.2 -67.8,45.7 -151.4,71.4 -241.6,80 -91.2,8.6 -183.7,1.7 -284,-16.5 -99.1,-16.7 -197.5,-38.1 -293.9,-66.7 -193.3,-55.3 -379.6,-134.5 -556.5,-231.4 -353.9,-195.4 -665.5,-465.9 -934.7,-773.4 -268.9,-308.6 -497.3,-654.1 -692,-1017.5 -97.4,-181.8 -186.3,-368.4 -267.1,-558.4 -79.9,-189.2 -154.7,-385.6 -212.5,-577.2 l -1,-3.5 c -18.3,-60.5 -82.1,-94.8 -142.7,-76.5 -60.5,18.2 -94.7,82.1 -76.4,142.6"
         style="fill:#371b45;fill-opacity:1;fill-rule:nonzero;stroke:none"
         transform="matrix(0.13333333,0,0,-0.13333333,0,5330.52)" /><path
         id="path79"
         d="m 26714.1,22510.5 c 0,0 -751.6,2797.5 -3114.7,3317 -909.7,200 -985.6,-737.8 -589.5,-1675.7 391.8,-927.3 1245.1,-1854.6 2210.4,-1681.9 l 507.9,400.9 c 324.6,256.3 804.2,123.3 951.2,-263.4 11.7,-30.9 23.3,-63.2 34.7,-96.9"
         style="fill:#ffffff;fill-opacity:1;fill-rule:nonzero;stroke:none"
         transform="matrix(0.13333333,0,0,-0.13333333,0,5330.52)" /><path
         id="path80"
         d="m 24050.8,22749.6 c -192.2,116.8 -364.6,269.5 -516,443.9 20.1,2.6 40,5.8 59.9,9.9 138,-159.9 289.9,-303.3 452.8,-421.1 1.1,-10.8 2.2,-21.8 3.3,-32.7"
         style="fill:#8da5be;fill-opacity:1;fill-rule:nonzero;stroke:none"
         transform="matrix(0.13333333,0,0,-0.13333333,0,5330.52)" /><path
         id="path81"
         d="m 24529.3,22209.4 c -82.2,0 -154.4,4.7 -209.4,10 -7.1,140.4 -16.7,277.5 -28.3,410.8 218.2,-114.6 451.5,-181.2 694.1,-181.2 77.3,0 155.6,6.7 234.6,20.9 l 220.5,174.1 c 49.8,-18.6 77.9,-27.2 77.9,-27.2 -234.7,-342.4 -682.7,-407.4 -989.4,-407.4"
         style="fill:#b9afbe;fill-opacity:1;fill-rule:nonzero;stroke:none"
         transform="matrix(0.13333333,0,0,-0.13333333,0,5330.52)" /><path
         id="path82"
         d="m 24319.9,22219.4 c -70.7,6.7 -113.3,14.4 -113.3,14.4 v 431.3 c -53.3,25.5 -105.2,53.7 -155.8,84.5 -1.1,10.9 -2.2,21.9 -3.3,32.7 78.9,-57.1 160.4,-108.1 244.1,-152.1 11.6,-133.3 21.2,-270.4 28.3,-410.8"
         style="fill:#371b45;fill-opacity:1;fill-rule:nonzero;stroke:none"
         transform="matrix(0.13333333,0,0,-0.13333333,0,5330.52)" /><path
         id="path83"
         d="m 22914.9,24403.7 c -11.4,5.2 -22.6,10.7 -33.8,16.6 l -3.2,1.6 c -177.4,600 -156.8,1142.9 89,1281.9 -240.3,-244.3 -233.2,-754.6 -52,-1300.1"
         style="fill:#b99144;fill-opacity:1;fill-rule:nonzero;stroke:none"
         transform="matrix(0.13333333,0,0,-0.13333333,0,5330.52)" /><path
         id="path84"
         d="m 23372.9,23490.6 c -24.5,3.2 -48.9,8.3 -73.1,15.2 -189.7,289.6 -331.5,610.3 -421.9,916.1 l 3.2,-1.6 c 11.2,-5.9 22.4,-11.4 33.8,-16.6 27.7,-83.4 59.4,-167.6 95,-251.9 95.4,-225.7 218,-451.3 363,-661.2"
         style="fill:#b97735;fill-opacity:1;fill-rule:nonzero;stroke:none"
         transform="matrix(0.13333333,0,0,-0.13333333,0,5330.52)" /><path
         id="path85"
         d="m 23534.8,23193.5 c -85.1,98.1 -163.4,202.9 -235,312.3 24.2,-6.9 48.6,-12 73.1,-15.2 69.1,-99.9 143.2,-196.3 221.8,-287.2 -19.9,-4.1 -39.8,-7.3 -59.9,-9.9"
         style="fill:#371b45;fill-opacity:1;fill-rule:nonzero;stroke:none"
         transform="matrix(0.13333333,0,0,-0.13333333,0,5330.52)" /><path
         id="path86"
         d="m 24262.4,25607.7 c -1.4,0.6 -2.7,1.2 -4.1,1.8 -19.9,9.8 -97.2,46.7 -209,86.5 73.3,-13.2 145.7,-42.5 213.1,-88.3 m -213.1,88.3 c -1.3,0.2 -2.5,0.5 -3.8,0.7 -12.4,4.6 -24.6,9 -37,13.4 14,-4.7 27.7,-9.4 40.8,-14.1"
         style="fill:#8da5be;fill-opacity:1;fill-rule:nonzero;stroke:none"
         transform="matrix(0.13333333,0,0,-0.13333333,0,5330.52)" /><path
         id="path87"
         d="m 24985.7,22449 c -242.6,0 -475.9,66.6 -694.1,181.2 -83.7,44 -165.2,95 -244.1,152.1 -162.9,117.8 -314.8,261.2 -452.8,421.1 -78.6,90.9 -152.7,187.3 -221.8,287.2 -145,209.9 -267.6,435.5 -363,661.2 -35.6,84.3 -67.3,168.5 -95,251.9 -181.2,545.5 -188.3,1055.8 52,1300.1 0.2,0.1 0.4,0.2 0.6,0.4 143.8,80.7 305.8,110 465.3,110 212.7,0 420.9,-52.1 575.7,-104.1 12.4,-4.4 24.6,-8.8 37,-13.4 -29,5 -58.1,7.5 -87.1,7.5 -423.1,0 -813.2,-530.4 -341.2,-1488.8 501.9,-1018.9 1532.9,-1463.3 1823.6,-1571.4 l -220.5,-174.1 c -79,-14.2 -157.3,-20.9 -234.6,-20.9 m -722.2,3158 c 0,0 -1.8,0.8 -5.2,2.5 1.4,-0.6 2.7,-1.2 4.1,-1.8 0.4,-0.3 0.7,-0.5 1.1,-0.7"
         style="fill:#b9afbe;fill-opacity:1;fill-rule:nonzero;stroke:none"
         transform="matrix(0.13333333,0,0,-0.13333333,0,5330.52)" /><path
         id="path88"
         d="m 26604,22479.2 c -57.8,191.6 -132.5,388 -212.4,577.2 -80.8,190 -169.7,376.6 -267.1,558.4 -194.8,363.4 -423.1,708.9 -692.1,1017.5 -269.1,307.5 -580.8,578 -934.6,773.3 -177,97 -363.2,176.2 -556.5,231.5 -96.4,28.6 -194.8,49.9 -293.9,66.7 -100.3,18.2 -192.8,25.2 -284,16.5 -90.2,-8.6 -173.9,-34.4 -241.7,-79.9 -68.2,-44.9 -120.3,-110.7 -156.7,-189.3 -72.5,-159.3 -78.5,-359.2 -55.3,-552.2 24.2,-194.7 77.6,-389.1 148.6,-576.8 70.1,-188.4 159.8,-370 260.9,-544.6 204.8,-347.2 463.1,-666.2 779.4,-910 157.8,-121.7 330.8,-223.7 518.7,-292.4 93.9,-34.4 191.7,-59.5 292.1,-75.8 100.5,-15.1 203.8,-21.3 308.8,-17.5 6.8,0.3 12.5,-5 12.8,-11.8 0.2,-5.6 -3.4,-10.5 -8.5,-12.2 -203.4,-66.3 -429.7,-74.8 -646.1,-30.8 -217.1,43.4 -423.1,135.8 -608.1,255.4 -93.5,58.9 -179.6,127.9 -262.9,199.3 -83.1,71.7 -161.4,148.7 -234.2,230.3 -146.8,162.2 -276.4,338.7 -387.6,526 -112.6,186.7 -205.7,384.7 -280.6,590.2 -73.3,206.1 -128.3,420.4 -149.5,643.3 -19.4,221.4 -12.1,458 92.9,682.8 52.7,110.8 136.6,215.4 245.5,284.4 108.2,70.3 232.5,103.8 350.8,113.2 118.1,10.3 236.5,-3.5 342.4,-22.3 107.7,-18.2 214.8,-41.6 319.7,-72.6 210.3,-60.2 412.6,-146.2 603.6,-251 382.1,-211 713.4,-499.8 996.4,-823.1 282.8,-324.6 519.9,-684 721.4,-1060.1 100.8,-188.1 192.6,-380.8 276.1,-577 83.1,-197.5 158.4,-393.8 221.8,-604 18.3,-60.5 -15.9,-124.3 -76.4,-142.6 -60.5,-18.3 -124.4,16 -142.6,76.5 l -1.1,3.5"
         style="fill:#371b45;fill-opacity:1;fill-rule:nonzero;stroke:none"
         transform="matrix(0.13333333,0,0,-0.13333333,0,5330.52)" /><path
         id="path89"
         d="m 22785.9,19371.1 c -32.6,0 -65.2,3.5 -97.7,10.6 -331.4,73 -518.6,503.2 -417.8,960.7 90.9,412.7 385,706.8 685.1,706.8 32.6,0 65.2,-3.4 97.6,-10.6 259.4,-57.1 430.3,-332.7 444.2,-668.9 -55.9,-247.7 -130.7,-488.8 -223,-722.4 -132.9,-171.7 -309.6,-276.2 -488.4,-276.2"
         style="fill:#9b8da2;fill-opacity:1;fill-rule:nonzero;stroke:none"
         transform="matrix(0.13333333,0,0,-0.13333333,0,5330.52)" /><path
         id="path90"
         d="m 23274.3,19647.3 c 92.3,233.6 167.1,474.7 223,722.4 3.9,-93.7 -4.4,-192.1 -26.3,-291.7 -36.7,-166.8 -106.6,-314.2 -196.7,-430.7"
         style="fill:#958d9d;fill-opacity:1;fill-rule:nonzero;stroke:none"
         transform="matrix(0.13333333,0,0,-0.13333333,0,5330.52)" /><path
         id="path91"
         d="m 21909.3,18265.6 c -34.2,0 -68.4,5.8 -101.5,18.1 -173,64.2 -252.6,279.7 -177.8,481.3 60.4,162.9 203.3,267 347.2,267 34.1,0 68.3,-5.9 101.5,-18.2 173,-64.2 252.6,-279.7 177.7,-481.3 -60.4,-163 -203.2,-266.9 -347.1,-266.9"
         style="fill:#9b8da2;fill-opacity:1;fill-rule:nonzero;stroke:none"
         transform="matrix(0.13333333,0,0,-0.13333333,0,5330.52)" /></g></g></svg>
