<svg xmlns="http://www.w3.org/2000/svg" xmlns:xlink="http://www.w3.org/1999/xlink" width="5333.333" height="5326.667" xmlns:v="https://vecta.io/nano"><style><![CDATA[.B{fill:#371a45}.C{fill:#fff}.D{fill:#cdc6d0}.E{fill:#cfcfcf}.F{fill:#ededed}.G{fill:#b9afbe}.H{fill:#a79bad}.I{fill:#e5354b}.J{fill:#4da2ff}.K{fill:#5bb5d0}.L{fill:#4780d0}.M{fill:#606060}.N{fill:#524857}.O{fill:#cbc8cc}.P{fill:#f7c2c9}.Q{fill:#ada3b2}.R{fill:#bfc0c1}.S{fill:#9d96a2}.T{fill:#a79faa}.U{fill:#2580ef}]]></style><path d="M4134.63 4835.868c0 26.747-666.612 48.427-1488.93 48.427-822.331 0-1488.947-21.68-1488.947-48.427s666.616-48.427 1488.947-48.427c822.318 0 1488.93 21.68 1488.93 48.427M2302.394 2321.501c-44.467 0-87.026 16.107-120.933 46-36.827 32.493-58.787 77.16-61.84 125.786l-45.413 724.385c-3.053 48.613 13.16 95.68 45.64 132.506s77.16 58.8 125.773 61.84l732.065 45.907c48.627 3.04 95.693-13.16 132.52-45.64s58.787-77.146 61.84-125.773l45.427-724.385c3.04-48.627-13.173-95.693-45.653-132.52s-77.146-58.787-125.773-61.84l-732.065-45.907a187.1 187.1 0 0 0-11.587-.36m686.932 1180.357a225.15 225.15 0 0 1-14.36-.453l-732.065-45.907c-60.24-3.773-115.546-30.947-155.72-76.506-40.187-45.547-60.227-103.813-56.453-164.053l45.427-724.385c3.773-60.24 30.933-115.546 76.493-155.72 45.56-40.187 103.746-60.253 164.066-56.453l732.052 45.907c60.24 3.773 115.546 30.947 155.733 76.506 40.173 45.56 60.227 103.813 56.453 164.053l-45.427 724.385c-3.787 60.24-30.947 115.546-76.506 155.72-41.92 36.973-94.613 56.907-149.693 56.907" class="B"/><path d="M3610.071 3439.925c-55.76 42.307-166.026-15.96-166.026-15.96s-110.546 41.067-255.613 35.56a708.2 708.2 0 0 1-39.147-2.613c-187.16-18.027-232.839-551.985-232.839-551.985l37.627-170.226 36.653-165.8 39.693-179.64 6.48-29.413c34.027 32.787 67.24 85.933 98.666 149.906 125.68 256.093 221.946 686.492 221.946 686.492s74-.973 143 18.84c56.187 16.12 111.52 93.12 124.853 154.653 6.48 30 2.947 56.347-15.293 70.186" class="C"/><path d="M3556.951 3433.658c-18.52 0-38.907-4.493-57.16-10.293 4.893-12.08 5-22.907 1.587-32.6h0c0-.027-.013-.04-.013-.067-20.067-56.907-160.84-74.4-160.84-74.4s-1.187-.72-3.28-1.867c5.76-.267 11.693-.413 17.76-.413 39.08 0 83.106 6.147 115.546 28.16 38.28 25.92 77.24 39.267 109.56 39.267 8.8 0 17.093-.987 24.747-2.973 2.333 12.733 4.213 34.867-7.973 44.12-10.533 7.987-24.587 11.067-39.933 11.067m-233.159-3.68l-.16-3.747c4.933.32 9.96.787 15.053 1.373l-14.893 2.373m-100.12-263.159c-21.627-19.813-46.827-35.653-74.106-47.013l-5.96-38.307 23.413-2.6c11.16-1.347 21.8-4.48 31.613-9.2l25.04 97.12m-107.226-287.133l-4.2-37.507-6.293-59.693-2.8-29.88-3.227-29.84c-1.013-9.96-2.387-19.907-3.6-29.853l-2.227-20.747 54.853 206.279-32.507 1.24" class="D"/><g class="B"><path d="M3216.045 3481.831c-22.067 0-45.08-.987-68.813-3.267-87.733-8.427-156.906-109.013-205.626-298.999-34.867-135.933-46.36-267.266-46.827-272.799-1.04-11.987 7.853-22.52 19.84-23.547 11.973-1.053 22.533 7.853 23.547 19.84 12.307 143.493 74.586 518.825 213.226 532.145 156.493 15.027 283.799-31.187 285.066-31.653l9.133-3.373 8.613 4.533c27.293 14.347 106.186 45.56 142.68 17.88 12.36-9.387 10.24-32 7.88-44.653-10.053-53.867-60.427-127.586-110.28-141.92-64.92-18.653-135.96-18.067-136.706-18l-17.667.213-3.867-17.227c-1.493-6.667-150.906-667.865-314.493-825.465-8.653-8.347-8.907-22.133-.56-30.8 8.333-8.653 22.133-8.907 30.787-.573 159.76 153.933 297.919 722.878 322.946 830.571 26.893.92 80.186 4.64 131.586 19.413 67.413 19.373 128.453 108.186 141.08 175.786 7.253 38.893-1.387 69.92-24.387 87.36-57.067 43.32-150.493 4.693-180.733-9.76-27.693 9.093-114.626 34.28-226.426 34.293"/><path d="M2959.659 3042.446c-6.733 0-13.373-3.12-17.627-8.973-7.08-9.72-4.947-23.347 4.787-30.427 7.76-5.653 191.64-138.72 316.959-162.693 11.827-2.253 23.227 5.48 25.48 17.293 2.267 11.813-5.48 23.227-17.293 25.48-115.84 22.173-297.693 153.813-299.506 155.146a21.71 21.71 0 0 1-12.8 4.173"/></g><path d="M2437.807 2499.354c-5.12 11.387-10.453 22.653-15.733 33.6-34.8 71.826-70.026 130.586-70.026 130.586s-66.933 51.773-170.773 80.48c-67.626 18.733-150.88 27.6-241.493 5.987-359.719-85.813-381.226-566.852-381.226-566.852l351.212-113.973c3.653 29.573 9.093 55.32 16.24 77.706 45.787 144.186 159.32 149.853 281.839 138.146 64.96-6.16 132.426-17.267 193.64-15.133 19.213.653 37.893 2.613 55.6 6.413 60.44 13.027 25.8 123.453-19.28 223.039" class="C"/><path d="M2046.582 2740.713c-32.453 0-66.56-3.52-101.733-11.907-274.386-65.44-343.252-379.399-359.679-499.665 10.293 4.067 21.2 7.573 32.76 10.4 17.453 4.253 47.32 8.933 82.706 8.933 65.373 0 149.64-15.973 209.613-80.16l1.08 2.853c-50.947 88.586-125.64 266.066-7.493 402.252 33.48 38.56 72.533 53.2 112.533 53.2 89.96 0 184.68-74.013 231.413-116.253-31.373 64.6-57.08 131.933-79.253 200.279l-4.853 15.187c-35.387 8.92-74.853 14.88-117.093 14.88" class="D"/><path d="M2352.047 2663.513h.067-.067m-770.451-464.946c7.96 83.333 60.52 458.039 363.252 530.239 200.519 47.84 366.186-62.747 390.772-80.253 62.867-105.64 151.693-288.466 128.693-341.452-2.387-5.52-5.707-8.173-11.84-9.493h0c-55.48-11.933-123.533-4.16-189.333 3.373-154.986 17.747-329.946 37.773-371.172-203.146l-310.373 100.733m466.705 585.959c-36.053.013-74.08-3.933-113.546-13.347-154.4-36.827-272.253-150.573-340.826-328.973-51.027-132.76-56.933-253.026-57.147-258.079l-.747-16.573 392.146-127.266 3.213 26.213c27.627 225.439 166.28 209.559 326.786 191.2 69.293-7.92 140.96-16.12 203.466-2.68 19.88 4.28 34.627 16.293 42.627 34.747 38.907 89.666-104.426 336.399-133.546 384.946l-2.107 3.52-3.24 2.507c-6.493 5.027-136.653 103.786-317.079 103.786" class="B"/><path d="M1973.875 2043.981c-56.133 233.013-291.213 211.293-355.919 195.546-134.96-32.867-181.266-160.053-181.266-160.053l108.853-143.866 48.4-77.84 57.813-17.387c45.427-82.8 142.2-176.693 197.76-143.573 0 0 172.773 146.32 124.36 347.172" class="C"/><path d="M1645.676 2123.755c7.787-3.48 14.787-7.6 20.893-12.333 24.187-18.76 29.307-39.96 29.333-54.44.013-8.627-1.707-16.907-4.52-24.653a21.2 21.2 0 0 0 4.293-6.667l16.093-39.293c21.627-3.333 46.107-14.893 71.853-37.787-1.4 31.253 5.867 72.773 43.187 108-23.52 34.427-64.333 56.92-110.346 62.28-25.267 2.947-48.84 4.52-70.786 4.893" class="D"/><path d="M1777.329 1768.729l-101.8 248.666-150.853-154.426s-46.053-38.907-99.08-91.986c-88.6-88.68-196.768-216.986-141.692-269.013 93.452-88.346 326.745 222.679 326.745 222.679s-96.706-384.852 49.44-393.932c80.386-5.04 105.773 185.893 113.653 317.253 4.173 68.466 3.587 120.76 3.587 120.76" class="C"/><path d="M1655.329 1833.969c-44.92-21.787-101.866-34.493-144.306-34.493-8.36 0-16.147.493-23.173 1.507l-24.133-22.893c31.08 5.133 64.093 8.84 94.666 8.84 29.547 0 56.8-3.453 77.84-12.44 41.867-17.853 70.12-86.026 116.44-116.173 1.227 21.6 2 42.04 2.453 60.387-37.813 28.053-75.213 72.653-99.786 115.266" class="D"/><path d="M1777.316 1768.755h.067-.067m-452.851-260.799c-10.344 0-18.575 3.187-25.619 9.853-3.659 3.453-8.475 9.533-8.124 22.307 2.252 81.12 179.794 248.573 248.007 306.253.533.44 1.04.92 1.52 1.413l127.68 130.68 87.64-214.093c.68-96.373-10.72-344.586-71.52-402.372-9.72-9.227-17.573-9.867-22.627-9.56-15.12.933-26.453 7.24-35.653 19.827-49.547 67.746-12.467 273.533 6 347.106a21.77 21.77 0 0 1-11.747 24.96 21.78 21.78 0 0 1-26.8-6.587c-46.187-61.533-183.653-222.746-264.038-229.573a52.37 52.37 0 0 0-4.72-.213m351.064 531.239c-5.813 0-11.44-2.333-15.587-6.56l-150.133-153.68c-30.16-25.56-259.458-223.586-262.629-337.626-.619-22.067 6.901-41.147 21.739-55.173 17.031-16.107 39.18-23.52 63.971-21.4 77.2 6.573 176.546 105.906 238.479 177.12-15.573-92.2-28.227-230.399 19.227-295.306 16.707-22.88 40.28-35.88 68.133-37.613 20.173-1.293 39.24 6.173 55.333 21.467 86.533 82.24 85.44 402.346 85.026 438.572-.027 2.747-.573 5.467-1.613 8l-101.8 248.666c-2.773 6.787-8.787 11.72-15.987 13.12a20.96 20.96 0 0 1-4.16.413" class="B"/><path d="M1409.09 2052.568c35.787 58.2 187.76 85.36 244.159 41.627 47.987-37.253.067-84.706-13.587-96.76-2.12-1.933-3.44-2.92-3.44-2.92s58.387-17.893 68.586-67.066a67.45 67.45 0 0 0 1.333-10.013c3.573-56.733-147.933-105.706-216.719-94.64-51.44 8.28-71.053 29.227-75.893 51.627-5.16 23.853 6.427 49.373 14.187 63.027 3.573 6.227 6.293 9.947 6.293 9.947s-53.613 58.587-24.92 105.173" class="C"/><path d="M1614.489 1995.555c-62.733-6.653-119.626-27.147-158.96-44.773a21.88 21.88 0 0 0-3.88-16.187c-5.213-7.2-15.48-25.213-17.347-42.413 49.44 36.6 111.64 46.853 165.813 46.853 10.373 0 20.467-.373 30.107-1.013 3.32 10.547 8.973 20.16 16.547 28.04-9.333 5.16-16.76 7.573-16.933 7.627-7.733 2.36-13.493 8.853-15 16.813-.32 1.68-.427 3.387-.347 5.053m-43.693 98.48c-14.387 0-29.853-1.387-45.667-4.267-46.213-8.387-84.48-27.467-97.506-48.6-5.267-8.56-6.027-18.293-4.333-27.933 28.773 33.16 96.066 54.173 154.8 54.173 28.307 0 54.653-4.893 73.693-15.667.373 1.76.573 3.507.56 5.213-.027 4.467-1.347 11.413-12.467 20.04-14.36 11.133-39.453 17.04-69.08 17.04" class="G"/><g class="B"><path d="M1489.396 1822.782h.067-.067m22.053 20.187c-6.813 0-13.067.427-18.587 1.307-21.6 3.48-48.933 11.453-56.48 29.68-8.533 20.587 8.133 50.76 15.267 60.64 6.053 8.387 5.427 19.92-1.547 27.533-.4.427-41.84 47.613-22.48 79.04 13.027 21.133 51.293 40.213 97.506 48.6 48.36 8.787 93.413 3.773 114.746-12.773 11.12-8.627 12.44-15.573 12.467-20.04.08-17.8-21.893-39.227-29.6-45.32-6.347-5.027-9.4-13.187-7.907-21.133 1.507-7.96 7.267-14.453 15-16.813.44-.147 51.933-16.827 54.533-57.613.347-5.333-4.04-12.44-12.36-20-34.107-30.973-111.52-53.107-160.56-53.107m59.253 294.666c-16.92 0-34.867-1.64-53.347-5-59.613-10.827-107.026-36.48-126.826-68.613-27.707-45.013.173-94.84 16.907-118.093-10.733-19.44-25.147-54.933-11.387-88.44 12.173-29.667 42.427-48.573 89.893-56.213 56.347-9.04 165 16.813 215.346 62.56 23.493 21.333 27.413 41.693 26.56 55.013-2.693 42.28-31.253 68.066-54.6 82.213 11.467 14.347 22.707 34 22.653 55.92-.027 14.48-5.147 35.68-29.333 54.44-22.147 17.173-56.187 26.213-95.866 26.213"/><path d="M1617.143 2016.848c-107 0-190.466-48.48-194.173-50.68-10.36-6.107-13.8-19.467-7.693-29.827a21.8 21.8 0 0 1 29.8-7.707c.853.507 86.973 50.213 189.866 44.133 11.933-.773 22.307 8.453 23.013 20.467s-8.453 22.32-20.467 23.027c-6.867.4-13.653.587-20.347.587"/></g><g class="C"><path d="M1849.502 1696.836c-73.76-43.987-219.959 135.68-222.639 216.306-2.053 61.547 70.84 112.893 157.96 34.36 88.266-79.573 180.52-181.6 64.68-250.666"/><path d="M1436.69 2079.515s46.32 127.133 181.24 160c64.72 15.773 299.799 37.493 355.959-195.56 48.4-200.826-124.386-347.119-124.386-347.119-73.76-43.987-219.959 135.68-222.639 216.306-2.053 61.547 89.413 96.453 166.04-11.853 0 0-40.373 98.373 45.813 165.493l-203.066 116.96-153.56-29.973-45.4-74.253"/><path d="M1798.596 2019.635l4.04-2.32c-3.053-2.387-5.827-4.707-8.48-7.16 1.32 3.12 2.787 6.293 4.44 9.48"/></g><g class="G"><path d="M1639.596 1950.715c-.013-.013-.013-.013-.013-.027 0 .013 0 .013.013.027m-.053-.08c-7.427-8.76-11.96-19.813-12.667-32.133.013 0 .027.013.04.013.707 12.32 5.227 23.373 12.627 32.12"/><path d="M1686.889 1971.155c-19.853 0-36.573-7.84-47.293-20.44-.013-.013-.013-.013-.013-.027-.013-.013-.027-.027-.04-.053-7.4-8.747-11.92-19.8-12.627-32.12 6.92 3.013 14.56 4.32 22.68 4.32 24.96 0 54.253-12.293 79.64-24.587s46.867-24.587 56.2-24.587c4.387 0 6.093 2.707 4.28 9.373 0 0-24.587 22.6-28.507 54.613-26.067 23.76-52.147 33.507-74.32 33.507"/></g><path d="M1538.303 2204.528c-23.08-15.453-41.64-33.387-56.24-50.76l.027.013c14.613 17.373 33.147 35.293 56.213 50.733m404.026-79.626v-.013c13.187-22.773 24-49.533 31.56-80.92 9.307-38.627 10.44-75.226 6.187-109.16 4.253 33.933 3.12 70.546-6.187 109.16-7.56 31.387-18.36 58.147-31.56 80.933" class="K"/><path d="M1700.636 2248.474c-35.387 0-65.253-4.68-82.706-8.933-11.56-2.827-22.467-6.333-32.76-10.4 10.293 4.053 21.213 7.573 32.787 10.387 17.453 4.253 47.293 8.933 82.693 8.933 9.36 0 19.093-.333 29.107-1.08 59.893-4.48 129.106-24.08 180.493-79.08v.013c-59.973 64.187-144.24 80.16-209.613 80.16" class="H"/><path d="M1585.169 2229.141c-17.347-6.853-32.933-15.28-46.867-24.613 6.28 4.2 12.907 8.227 19.88 12.013 8.467 4.6 17.467 8.827 26.987 12.587m325.079-60.813v-.013c11.733-12.547 22.52-26.947 32.08-43.427v.013c-9.547 16.48-20.347 30.867-32.08 43.427" class="B"/><path d="M1700.649 2248.461c-35.4 0-65.24-4.68-82.693-8.933a249.55 249.55 0 0 1-32.787-10.4c-9.52-3.76-18.52-7.987-26.987-12.587 17.627 9.56 37.48 17.547 59.747 22.973 17.453 4.253 47.333 8.947 82.733 8.947 9.347 0 19.093-.333 29.093-1.08-10.013.747-19.747 1.08-29.107 1.08m-192.653-89.626l-14.507-2.84 14.48 2.813c.013.013.027.013.027.027" class="D"/><path d="M1980.062 1934.715l-.04-.387.04.387m-.067-.547l-.04-.36.04.36m-.08-.587c0-.053-.013-.107-.013-.16 0 .053.013.107.013.16" class="K"/><path d="M1700.662 2248.461c-35.4 0-65.28-4.693-82.733-8.947-22.267-5.427-42.12-13.413-59.747-22.973a248.67 248.67 0 0 1-19.88-12.027c-23.067-15.44-41.6-33.36-56.213-50.733l11.4 2.213 14.507 2.84c20.947 13.24 45.453 24.307 73.88 31.253 17.467 4.253 47.307 8.947 82.706 8.947 95.826 0 232.266-34.347 273.253-204.519 25.12-104.253-9.413-193.853-48.307-255.893 34.093 40.813 79.266 109.28 90.373 194.8 0 .053.013.107.013.16l.04.227.04.36c.013.053.013.107.027.16l.04.387c0 .027.013.053.013.08 4.253 33.933 3.12 70.533-6.187 109.16-7.56 31.387-18.373 58.147-31.56 80.92-9.56 16.48-20.347 30.88-32.08 43.427-51.387 55-120.6 74.6-180.493 79.08-10 .747-19.747 1.08-29.093 1.08" class="D"/><g class="C"><path d="M1436.73 2079.608c.467 1.267 4.173 11 11.933 25.253l3.973.8-15.907-26.053"/><path d="M1446.01 2104.328c2.12 2.52 4.307 5.107 6.627 7.627l-3.973-7.093-2.653-.533"/></g><path d="M1868.702 2190.114c16.467-16.253 30.92-33.36 42.853-52.053 11.853-18.72 21.52-38.64 29-59.6 15.187-42.16 21.613-87.04 17.493-131.066-3.787-44.187-18.453-87.36-39.88-127.2-10.787-19.893-23.253-39.067-37.32-57.027-6.987-9.013-14.333-17.76-22.013-26.16-3.84-4.173-7.733-8.32-11.72-12.293-3.867-3.893-8.253-8.08-11.76-11.16l2.933 2.093c-5.467-3.187-11.96-4.373-20.187-3.36-8.133 1.053-17.267 4.36-26.213 8.92-9 4.52-17.867 10.52-26.427 17.053-8.613 6.493-16.88 13.787-24.827 21.493-31.653 30.893-59.36 68.16-78.133 107.506-4.52 9.827-8.427 19.8-10.987 29.44-1.28 4.8-2.24 9.56-2.573 13.827-.627 4.533-.227 7.813.373 11.48 1.227 7.12 5 13.187 10.213 17.973 5.413 4.613 12.44 7.907 20.493 8.907 16.107 2.333 34.933-3.893 51.307-15.253 16.613-11.227 31.12-27.267 43.747-44.88l.04-.053c7.213-9.667 20.893-11.667 30.573-4.467 7.973 5.933 10.733 16.267 7.44 25.133l-.08.187a105.23 105.23 0 0 0-2.68 8.48 121.68 121.68 0 0 0-2.28 9.68c-1.347 6.533-2.08 13.187-2.587 19.813-.8 13.28.453 26.44 3.72 38.867 1.307 6.347 4.013 12.16 6.293 18.133 3.04 5.627 5.653 11.48 9.653 16.587 3.307 5.52 7.96 10.187 12.253 15.093 1.973 2.587 4.787 4.533 7.2 6.787l7.48 6.6 1.933 1.707c8.987 7.96 9.827 21.693 1.88 30.693-7.92 8.947-21.587 9.813-30.587 1.973l-9.827-8.587c-3.213-2.947-6.68-5.547-9.493-9-5.893-6.573-11.973-12.96-16.733-20.573-5.387-7.12-9.28-15.24-13.387-23.187-3.333-8.267-6.92-16.573-8.827-25.267-4.52-17.24-6.08-35.027-5.053-52.4.64-8.667 1.627-17.293 3.373-25.8.827-4.24 1.813-8.493 3-12.72 1.227-4.4 2.333-8.12 4.373-13.413l37.92 20.84-.04.067c-14.84 20.627-32.253 40.36-54.787 55.72-11.24 7.613-23.653 14.227-37.493 18.413-13.787 4.133-28.907 6.213-44.333 3.973-15.347-1.973-30.84-8.52-43.28-19.347-12.307-10.907-21.307-26.187-24.2-42.373-1.493-7.907-1.907-16.547-.987-23.733.64-7.493 2.093-14.333 3.827-20.933 3.493-13.16 8.307-25.2 13.64-36.8 10.84-23.04 24.04-44.133 38.573-64.213 14.707-19.92 30.733-38.84 48.773-56.213 8.987-8.707 18.44-17.053 28.653-24.787 10.187-7.747 20.92-15.093 33.013-21.2 12.027-6.08 25.267-11.32 40.56-13.347 15.04-2.147 33.173-.027 48.133 8.933l.227.147c.933.56 1.893 1.267 2.707 1.96 5.533 4.787 9.8 8.88 14.427 13.427 4.533 4.453 8.88 9.013 13.173 13.6 8.56 9.227 16.693 18.787 24.48 28.627 15.533 19.707 29.747 40.533 42.067 62.6 12.227 22.093 22.92 45.267 30.787 69.586 7.827 24.32 13.213 49.6 15.547 75.253 2.413 25.653 1.28 51.667-2.653 77.08-4.293 25.453-10.84 50.027-20.64 73.8-9.813 23.707-22.933 46.427-39.84 66.053-16.787 19.68-37.147 36.28-59.76 47.76-5.413 2.747-12.04.587-14.787-4.827-2.227-4.373-1.24-9.533 2.067-12.813l.173-.16m-411.542-118.065l3.613 7.24 4.2 7.8 4.493 7.747 4.667 7.68c6.333 10.2 13.44 19.907 20.8 29.36l11.56 13.707 12.4 12.88 13.067 12.12 13.893 11.12c19.027 14.333 40 25.107 62.587 34.067l17.307 6.627c5.573 2.133 11.507 3.893 17.347 5.827 11.8 3.613 23.72 6.8 35.827 9.36l.387.08c5.973 1.267 9.787 7.133 8.52 13.107-.96 4.533-4.613 7.827-8.92 8.6-13.933 2.427-28 2.627-41.813 1.56-6.96-.453-13.773-1.44-20.787-2.6-6.653-1.12-13.44-2.92-20.187-4.373-27.04-6.653-53.453-18.893-76.986-34.667-23.413-16.12-44.187-35.827-61.533-57.987-8.387-11.28-16.6-22.707-23.347-35.04-3.587-6.04-6.707-12.373-9.72-18.76-1.467-3.24-3-6.4-4.293-9.8-1.4-3.44-2.56-6.467-4.013-10.733a21.74 21.74 0 0 1 13.507-27.627c10.52-3.613 21.893 1.307 26.627 11.067l.8 1.64" class="B"/><path d="M3211.139 3557.484H2087.835s-29.733-225.599 30.493-553.505c14.92-81.026 35.293-168.32 62.947-259.959 28.213-93.386 64.04-191.346 109.293-291.919 0 0 6.427-18.68 20.253-46.947 17.587-35.88 47.16-87.28 90.666-135.253 72.48-79.893 183.613-150.346 342.612-124.48 162.106 26.347 244.439 137.546 286.319 243.839 22.373 56.733 33.16 112.12 38.387 152.36 4.893 37.627 4.893 62.013 4.893 62.013 4.693 136.36 17.867 272.426 34.307 397.292 25.44 193.04 58.653 359.279 80.426 458.599l22.707 97.96" class="C"/><path d="M2774.086 3435.111h-275.319c-.56-65.293-11.68-119.24-30.2-162.92-19.507-46.013-47.24-80.613-79.44-105.013 5 .96 10.173 1.453 15.44 1.453h452.999c4.773 0 9.453-.413 14.013-1.187-50.053 46.84-96.493 127.933-97.493 267.666m-654.478-277.559c3.093-26.187 6.64-52.307 10.6-78.386 33.867 4.04 73.12 7.227 112.666 7.227 26.667 0 53.453-1.453 78.76-5.08v4.333c0 2.6.12 5.16.36 7.707 1.627 17.587 8.813 33.627 19.76 46.333-29.587-12.627-61.067-18.6-92.36-18.6-45.987 0-91.493 12.893-129.786 36.467m810.038-30.907c6.933-12.107 10.92-26.107 10.92-40.987v-10.533c34.213 8.227 72.986 11.267 111.533 11.267 14.667 0 29.307-.44 43.64-1.2l.32 2.093 2.453 17.013a270.25 270.25 0 0 0-52.453-5.16c-26.12 0-52.493 3.827-78.106 11.813-10.707 3.347-23.893 8.333-38.307 15.693" class="D"/><path d="M3084.579 2603.26c3.467 19.933 6.093 39.867 8.44 59.773l3.307 29.88 3.6 29.853 3.227 29.84 2.8 29.88 6.293 59.693c8.653 79.56 18.973 158.96 31.173 238.106l40.2 236.866 23.24 117.866 25.4 117.093 6.187 27.147h-27.293-1123.304-19.213l-2.387-18.933h0c-3.2-24.893-5.147-48.373-6.507-72.52-1.373-23.973-2.013-47.933-2.373-71.893-.587-47.893.48-95.773 3.627-143.506 3.027-47.733 7.613-95.346 13.587-142.773 5.92-47.44 13.267-94.693 22.56-141.586 17.84-93.893 42.107-186.52 71.386-277.399 29.453-90.8 65.16-179.826 112.08-263.013 2.973-5.253 9.64-7.12 14.907-4.147 4.653 2.627 6.653 8.16 4.987 13.04l-.027.053-89.8 267.333c-13.52 44.88-26.267 90-37.093 135.6-5.72 22.72-10.653 45.627-15.827 68.48l-13.693 68.92c-17.04 92.106-29.227 185.133-35.32 278.546-2.907 46.707-4.787 93.466-4.96 140.2 0 23.36.267 46.72 1.24 70 .947 23.107 2.12 46.867 4.427 68.973h0l-21.6-18.933h1123.304l-21.107 27.16c-10.533-39.44-19.707-78.6-28.573-118.08l-12.947-59.2-11.933-59.387c-15.253-79.32-29.133-158.906-40.533-238.906-5.893-39.96-10.88-80.053-15.8-120.16l-6.427-60.28-5.76-60.347-4.933-60.44-1.627-30.293-1.08-30.32c-.44-10.093-.507-20.213-.733-30.32-.053-10.12.187-20.253.4-30.387.453-20.253 1.173-40.493 2.72-60.733.453-6.027 5.72-10.547 11.76-10.093a10.98 10.98 0 0 1 9.96 9.053l.04.293" class="B"/><path d="M2381.301 3043.886c-69.6 28.173-177.306 22.28-250.746 13.387-44.04-5.32-74.96-45.973-68.466-89.853 5.92-40.053 41.173-69.173 81.613-67.28 68.68 3.213 171.706 4.72 236.946-9.747l.653 153.493" class="C"/><path d="M2242.408 3042.779c-33.107 0-69.8-2.36-109.24-7.133-15.373-1.853-29.027-9.667-38.44-22-9.427-12.36-13.373-27.64-11.093-43.053.4-2.707.987-5.36 1.747-7.92 11.88 11.453 27.48 19.307 45.187 21.453 32.827 3.987 72.52 7.36 112.6 7.36 26.627 0 53.413-1.493 78.466-5.28v51c-23.173 3.707-49.773 5.573-79.226 5.573" class="G"/><path d="M2139.941 2921.833c-28.173 0-52.133 20.533-56.307 48.76-2.28 15.413 1.667 30.693 11.093 43.053 9.413 12.333 23.067 20.147 38.44 22 104.466 12.64 189.68 8.4 239.959-11.96h0c12.24-4.947 16.6-25.04 17.92-33.453 4.92-31.573-3.8-66.76-11.107-77.426-66.52 13.547-165.226 12.48-237.266 9.093-.92-.04-1.827-.067-2.733-.067m241.359 122.053h.067-.067m-138.426 42.507c-40.427 0-80.56-3.333-114.933-7.493-27.147-3.28-51.24-17.067-67.84-38.827-16.627-21.787-23.573-48.72-19.56-75.84 7.587-51.373 52.16-88.293 104.173-85.853 100.88 4.72 183 1.44 231.213-9.253 10.653-2.373 36.987-2.6 52.067 45.907 14.867 47.8 12.907 128.226-38.507 149.04h-.013c-41.253 16.707-94.16 22.32-146.6 22.32" class="B"/><path d="M3164.392 3057.272c-34.44 4.173-76.493 7.693-118.586 7.293-2.907 0-5.76-.04-8.667-.133a298.32 298.32 0 0 1-9.133-.267c-2.067-.04-4.093-.133-6.067-.213l-7.16-.4-9.053-.613h-.227c-2.987-.213-6.013-.48-9-.787l-5.893-.613c-1.667-.133-3.333-.36-4.96-.533l-7.693-1.013-7.12-1.093c-.48-.053-.96-.093-1.4-.227-2.773-.387-5.493-.88-8.173-1.4-2.733-.48-5.413-1.013-8.04-1.587-.227-.04-.44-.08-.667-.133l-4.44-1a107.63 107.63 0 0 1-4.867-1.187h-.053c-4.96-1.24-9.84-2.64-14.587-4.133-2.547-.8-5.093-1.667-7.6-2.547s-4.96-1.853-7.333-2.813l.307-73.693.347-79.8c16.693 3.733 35.907 6.373 56.333 8.213 59.413 5.413 129.493 3.92 180.6 1.547 1.227-.053 2.467-.093 3.733-.093 38.84 0 72.16 28.56 77.866 67.36 6.507 43.907-24.427 84.546-68.466 89.866" class="C"/><path d="M3052.539 3042.792c-44.48 0-82.506-4.28-111.973-12.72v-56.52l2.64.667h.04a92.72 92.72 0 0 0 4.88 1.187l4.44 1.013.653.133a209.18 209.18 0 0 0 8.04 1.573c2.68.533 5.4 1.013 8.173 1.413.44.133.92.173 1.413.213 2.32.4 4.693.747 7.107 1.107l7.693 1.013 4.973.52 5.88.613a293.48 293.48 0 0 0 9.013.787h.213l9.053.627 7.16.387 6.067.227 9.147.267 8.653.12 6.52.04c39.893 0 79.4-3.373 112.08-7.333 16.933-2.027 31.947-9.307 43.627-20a57.47 57.47 0 0 1 3.293 12.48c2.28 15.4-1.667 30.68-11.093 43.04-9.413 12.333-23.067 20.147-38.453 22-39.44 4.787-76.12 7.147-109.24 7.147" class="D"/><path d="M2915.019 2912.806c-7.307 10.667-16.04 45.853-11.107 77.426 1.32 8.413 5.693 28.507 17.92 33.453h0c50.267 20.36 135.48 24.613 239.946 11.96 15.387-1.853 29.04-9.667 38.453-22 9.427-12.36 13.373-27.64 11.093-43.04-4.307-29.147-29.853-50.093-59.04-48.707-72.026 3.373-170.746 4.44-237.266-9.093m137.08 173.586c-52.467 0-105.346-5.613-146.613-22.32h0c-51.413-20.813-53.387-101.24-38.52-149.04 15.08-48.507 41.44-48.267 52.053-45.907 48.227 10.707 130.36 13.987 231.226 9.253 51.853-2.32 96.586 34.48 104.173 85.853 4.013 27.12-2.933 54.053-19.56 75.84-16.6 21.76-40.693 35.547-67.84 38.827-34.373 4.16-74.52 7.493-114.92 7.493" class="B"/><path d="M2940.553 2839.673v245.973c0 45.64-37.347 82.986-82.986 82.986h-452.999c-45.573 0-82.933-37.347-82.933-82.986v-245.973c0-45.64 37.36-82.933 82.933-82.933h452.999c26.867 0 50.853 12.933 66.067 32.88 10.613 13.92 16.92 31.28 16.92 50.053" class="C"/><path d="M2341.781 3139.699s-.013-.013-.027-.013c-10.947-12.707-18.133-28.747-19.76-46.333 1.64 17.587 8.84 33.64 19.787 46.347m587.865-13.053a82.34 82.34 0 0 0 10.907-41v-10.52h.013v10.533c0 14.88-3.987 28.88-10.92 40.987h0" class="H"/><path d="M2940.566 2873.086h-.013v-33.413c0-4.773-.4-9.453-1.187-14.013a82.36 82.36 0 0 1 1.2 14.013v33.413m-.013 100.466h.014v-56.439h-.014z" class="D"/><path d="M2940.553 3030.072h.014v-56.52h-.014z" class="H"/><path d="M2940.566 3075.125h-.013v-45.053h.013v45.053m0-158.013h-.013v-44.027h.013v44.027" class="B"/><g class="D"><path d="M2928.019 2795.953l-4.373-6.32v-.013l4.373 6.333"/><path d="M2857.553 3168.619h-452.999c-5.267 0-10.44-.493-15.453-1.453-14.92-11.307-30.827-20.427-47.32-27.467-10.947-12.707-18.147-28.76-19.787-46.347-.227-2.52-.347-5.08-.347-7.653v-92.053c42.027 81.706 171.32 120.493 293.333 120.493 18.867 0 37.573-.933 55.747-2.773 30.293-3.067 51.973-31.867 44.747-61.453-2.16-8.827-3.32-18.187-3.32-27.88 0-53.653 35.547-97.16 79.4-97.16 42.4 0 77.12 40.693 79.36 91.933 54.347-71.053 57.293-166.133 52.733-227.173 1.547 2.04 3.013 4.147 4.373 6.32 5.56 8.92 9.493 18.973 11.347 29.707.787 4.56 1.187 9.24 1.187 14.013v33.413 44.027 56.44 56.52 45.053 10.52a82.34 82.34 0 0 1-10.907 41c-18.213 9.307-38.413 22.413-58.04 40.773a82.83 82.83 0 0 1-14.053 1.2"/></g><path d="M2413.207 2778.5c-38.48 0-69.786 31.307-69.786 69.786v228.759c0 38.48 31.307 69.8 69.786 69.8h435.759c38.48 0 69.786-31.32 69.786-69.8v-228.759c0-38.48-31.307-69.786-69.786-69.786zm435.759 411.906h-435.759c-62.507 0-113.36-50.853-113.36-113.36v-228.759c0-62.493 50.853-113.346 113.36-113.346h435.759c62.507 0 113.36 50.853 113.36 113.346v228.759c0 62.507-50.853 113.36-113.36 113.36" class="B"/><path d="M2863.1 2962.672c0 39.507-32.013 71.533-71.533 71.533-39.507 0-71.533-32.027-71.533-71.533s32.027-71.533 71.533-71.533c39.52 0 71.533 32.027 71.533 71.533" fill="#22a7f0"/><path d="M2863.113 2962.686c0 3.88-.293 7.68-.92 11.4-5.453-34.107-35-60.147-70.626-60.147s-65.173 26.04-70.613 60.147c-.64-3.72-.933-7.52-.933-11.4 0-39.507 32.04-71.546 71.546-71.546s71.546 32.04 71.546 71.546" class="C"/><path d="M2863.086 2962.659c0 39.493-32.027 71.52-71.52 71.52-39.507 0-71.52-32.027-71.52-71.52 0-9.147 1.707-17.853 4.907-25.893 10.293 26.68 36.253 45.573 66.613 45.573s56.307-18.893 66.613-45.573c3.187 8.04 4.907 16.747 4.907 25.893" fill="#2577ef"/><path d="M2791.566 2907.473c-30.427 0-55.2 24.76-55.2 55.2s24.773 55.2 55.2 55.2c30.44 0 55.2-24.76 55.2-55.2s-24.76-55.2-55.2-55.2zm0 143.066c-48.44 0-87.866-39.413-87.866-87.866s39.427-87.88 87.866-87.88c48.453 0 87.88 39.427 87.88 87.88s-39.427 87.866-87.88 87.866m-202.719 139.866c-12.027 0-21.787-9.76-21.787-21.787v-118.706c0-28.693-13.68-56.133-36.613-73.386-33.787-25.453-53.973-65.907-53.973-108.213v-111.586a21.78 21.78 0 0 1 21.787-21.787 21.79 21.79 0 0 1 21.787 21.787v111.586c0 28.707 13.68 56.147 36.6 73.413 33.8 25.427 53.987 65.88 53.987 108.186v118.706a21.79 21.79 0 0 1-21.787 21.787" class="B"/><path d="M3456.258 2141.528a14.52 14.52 0 0 1-10.893-17.387l93.466-407.252c1.8-7.813 9.573-12.693 17.387-10.893 81.92 18.8 133.08 100.453 114.28 182.373l-31.867 138.866c-18.8 81.92-100.453 133.093-182.373 114.293" class="C"/><g class="B"><path d="M3552.951 1709.529c-1.973 0-3.893.56-5.6 1.627-2.4 1.507-4.067 3.853-4.707 6.6l-93.466 407.266c-1.307 5.693 2.267 11.387 7.947 12.68 38.6 8.867 78.346 2.16 111.906-18.867s56.92-53.867 65.787-92.466l31.867-138.88c8.867-38.6 2.16-78.346-18.867-111.906-21.04-33.56-53.867-56.92-92.466-65.773-.813-.187-1.613-.28-2.4-.28m-62.64 439.786c-11.533 0-23.227-1.293-34.933-3.973-9.893-2.28-16.093-12.173-13.827-22.08l93.466-407.252c1.107-4.8 4-8.88 8.173-11.493 4.16-2.6 9.08-3.44 13.907-2.333 40.64 9.32 75.2 33.92 97.346 69.253 22.147 35.32 29.2 77.16 19.867 117.8l-31.867 138.88c-16.573 72.186-81.026 121.186-152.133 121.2"/><path d="M3461.125 2120.288l.027.013-.027-.013m7.147 1.44c31.667 5.467 63.827-.84 91.266-18.04 29.52-18.493 50.067-47.373 57.853-81.32l31.88-138.88c7.787-33.947 1.907-68.893-16.6-98.413-17.2-27.453-43.387-47.147-74.28-56.027l-90.12 392.679m22.373 45.493c-13.067 0-26.213-1.48-39.253-4.467-19.507-4.48-31.733-23.973-27.253-43.48l93.466-407.266c2.173-9.44 7.88-17.48 16.107-22.627 8.2-5.147 17.933-6.773 27.387-4.613 45.28 10.387 83.813 37.8 108.493 77.173 24.667 39.373 32.533 86 22.147 131.293l-31.88 138.88c-10.4 45.293-37.813 83.813-77.186 108.493-28.027 17.573-59.747 26.613-92.026 26.613"/></g><path d="M2211.968 1397.463h0c7.813 1.8 12.68 9.573 10.893 17.387l-93.466 407.252c-1.8 7.813-9.573 12.693-17.387 10.893-81.92-18.8-133.093-100.453-114.28-182.373l31.867-138.88c18.8-81.906 100.453-133.08 182.373-114.28" class="C"/><g class="B"><path d="M2177.915 1397.503c-67.546 0-128.773 46.547-144.506 115.12l-31.88 138.88c-18.28 79.68 31.667 159.386 111.36 177.68 5.693 1.307 11.373-2.267 12.693-7.96l93.466-407.252a10.61 10.61 0 0 0-7.96-12.693c-11.107-2.547-22.227-3.773-33.173-3.773m-62.667 439.772a18.05 18.05 0 0 1-4.107-.467c-83.893-19.253-136.48-103.16-117.24-187.053l31.88-138.88c19.253-83.893 103.2-136.48 187.066-117.226h0c9.893 2.28 16.093 12.173 13.827 22.08l-93.466 407.252c-1.96 8.52-9.573 14.293-17.96 14.293"/><path d="M2207.061 1418.69h.027-.027m-29.147-3.32c-59.413 0-113.253 40.947-127.093 101.253l-31.867 138.88c-15.547 67.706 24.933 135.426 90.88 154.44l90.12-392.679a130.42 130.42 0 0 0-22.04-1.893m-62.667 439.786a36.03 36.03 0 0 1-8.107-.933c-93.493-21.453-152.106-114.973-130.653-208.466l31.88-138.88c21.453-93.493 115.04-152.08 208.466-130.64h.013c19.493 4.48 31.72 23.987 27.24 43.48l-93.466 407.266c-3.867 16.773-18.853 28.173-35.373 28.173"/></g><path d="M3068.806 2541.62h0c-2.707-20.813-6.893-45.667-13.4-72.68a717.76 717.76 0 0 0 28.667-9.76c10.947 18.627 21.733 38.947 32.333 60.613-15.573 7.853-31.453 15.16-47.6 21.827" class="D"/><path d="M3116.406 2519.794c-10.6-21.667-21.387-41.987-32.333-60.613a742.18 742.18 0 0 0 20.467-7.787c10.507 18.107 20.867 37.667 31.027 58.36l-19.16 10.04" class="B"/><path d="M2310.821 2405.154c-32.72-30.52-62.347-63.88-88.533-99.653l40.853-4.52 58.707-6.24c11.24 10.987 22.853 21.653 34.827 31.947-20.013 29.053-35.147 56.64-45.853 78.466h0" class="D"/><path d="M2222.288 2305.501a706.51 706.51 0 0 1-14.44-20.467l94.346-10.28c6.427 6.8 12.96 13.427 19.653 19.987-19.507 1.76-39.2 4.013-58.707 6.24l-40.853 4.52" class="B"/><path d="M2796.326 2596.1c-68.92 0-139.013-10.08-208.346-31.293-53.52-16.387-103.786-38.493-150.173-65.453-46.293-26.84-88.76-58.533-126.986-94.2h0 0c10.707-21.827 25.84-49.413 45.853-78.466 74.533 64.067 163.186 114.08 263.053 144.6 71.213 21.76 143.2 32.12 214.066 32.12 76.013 0 150.706-11.92 221.613-34.467 6.507 27.013 10.693 51.867 13.4 72.68h0 0c-25.427 10.613-51.52 19.707-78.08 27.28-62.56 17.827-127.933 27.2-194.4 27.2" class="D"/><path d="M3515.151 1977.622c-114.946 376.079-512.985 587.772-889.064 472.839s-587.772-512.972-472.839-889.051 512.985-587.785 889.051-472.839c376.079 114.933 587.785 512.972 472.852 889.051" class="C"/><path d="M2834.58 1061.317c-303.253 0-584.465 196.506-677.585 501.225-114.12 373.426 96.826 770.065 470.239 884.171 68.693 21 138.213 30.987 206.573 31 303.253.013 584.465-196.52 677.598-501.239 55.28-180.88 36.813-372.479-52.013-539.479-88.813-166.986-237.346-289.413-418.226-344.692-68.693-20.987-138.226-30.987-206.586-30.987m-.773 1424.223c-69.146 0-139.386-10.107-208.866-31.333-377.532-115.386-590.812-516.399-475.439-893.944 115.386-377.546 516.399-590.799 893.944-475.439 182.893 55.893 333.066 179.666 422.866 348.506s108.466 362.546 52.573 545.439c-94.146 308.066-378.506 506.772-685.078 506.772" class="B"/><path d="M2833.82 2459.834h0c-66.64 0-134.4-9.747-201.359-30.2-164.92-50.4-297.306-157.306-382.466-293.039 90.426 93.453 233.826 197.44 403.252 244.786 90.333 25.24 181.426 35.573 266.093 35.573 74.746 0 144.453-8.053 204.106-21.04-89.68 41.453-188.413 63.92-289.626 63.92" class="D"/><g class="B"><path d="M2834.566 1079.184c-295.586 0-569.719 191.56-660.492 488.585-111.226 363.999 94.386 750.625 458.386 861.865 66.96 20.453 134.72 30.2 201.359 30.2 295.599.027 569.719-191.546 660.492-488.585 53.893-176.32 35.88-363.079-50.693-525.852-86.573-162.786-231.359-282.119-407.679-335.999-66.96-20.467-134.72-30.213-201.373-30.213m-.773 1424.223c-70.866 0-142.853-10.36-214.066-32.12-386.959-118.253-605.572-529.279-487.319-916.251 118.266-386.959 529.292-605.558 916.264-487.305 187.453 57.293 341.372 184.146 433.412 357.199 92.04 173.066 111.173 371.599 53.893 559.052-96.506 315.759-387.959 519.425-702.185 519.425"/><path d="M3507.618 1994.448c-38.707 133.84-118.08 245.546-222.119 326.879-78.013 60.973-346.026 129.653-629.558 50.427-262.893-73.466-461.039-282.266-494.452-375.452-44.587-124.306-52.093-261.146-13.387-394.986 102.426-354.212 449.212-413.052 824.651-304.493 375.439 108.573 637.292 343.412 534.865 697.625"/><path d="M2656.9 1257.797c-71.373 0-137.16 9.067-195.893 27.28-153.84 47.72-255.893 155.053-303.306 319.013-36.867 127.506-32.307 261.959 13.2 388.839 32.387 90.32 228.453 296.733 487.732 369.186 287.173 80.253 549.999 6.613 620.692-48.667 106.2-83.013 181.826-194.28 218.693-321.786 47.413-163.96 18.4-309.186-86.24-431.652-93.4-109.32-246.186-197.013-441.812-253.573-111.96-32.387-217.519-48.64-313.066-48.64m262.439 1159.157c-84.666 0-175.76-10.333-266.093-35.573-265.813-74.28-467.559-287.986-501.172-381.706-46.933-130.853-51.627-269.573-13.587-401.146 49.4-170.826 155.92-282.719 316.599-332.546 141.093-43.76 321.053-36.413 520.439 21.24s355.506 147.493 451.466 259.799c109.28 127.893 139.64 279.359 90.24 450.199-38.04 131.56-116.04 246.359-225.586 331.986-59.227 46.293-202.813 87.746-372.306 87.746"/></g><g fill="#2a1a3b"><path d="M2919.019 2397.527c-80.786 0-169.373-9.973-260.386-35.413-89.466-25-171.386-65.933-241.666-112.56 97.893 22.667 193.533 31.973 282.293 31.973 219.519 0 397.159-56.893 464.226-109.32 72.813-56.92 136.106-125.56 186.48-204.159 12.547-12.253 23.707-27.44 32.427-45.013 5.947-11.96 10.32-24.147 13.187-36.2 20.013-41.053 36.733-84.28 49.8-129.493 11.413-39.347 19.2-77.573 23.733-114.613 25.733 47.32 41.747 97.466 47.987 150.213l-9.013 45.493-51.32 258.973c-41.667 83.453-101.786 156.906-177.44 216.039-48.293 37.76-186.213 84.08-360.306 84.08"/><path d="M2919.579 2407.474c-82.386 0-172.2-10.16-263.653-35.707-100.12-27.947-190.813-75.546-266.626-128.96l27.667 6.747c70.28 46.627 152.2 87.56 241.666 112.56 91.013 25.44 179.6 35.413 260.386 35.413 174.093 0 312.013-46.32 360.306-84.08 75.653-59.133 135.773-132.586 177.44-216.039l-2.507 12.613a78.51 78.51 0 0 0-1.48 16.347c-42.4 76.32-99.64 142.066-167.266 194.973-52.853 41.293-192.933 86.133-365.932 86.133m597.519-614.532c-6.24-52.747-22.253-102.893-47.987-150.213l1.853-16.96c24.973 42.88 42.613 89.146 51.76 138.786l-5.627 28.387"/></g><path d="M3539.004 1686.916c-6.28 0-12.427-2.96-16.293-8.373l-1.64-2.187-1.027-2.907c-68.306-194.306-263.706-350.932-536.079-429.692-273.906-79.2-523.359-47.987-684.438 85.64l-1.44 1.093c-9.107 6.253-21.613 3.987-27.867-5.12-6.04-8.8-4.147-20.68 4.2-27.12 171.453-141.906 434.079-175.786 720.652-92.92 284.493 82.266 489.385 247.639 562.345 453.826a20 20 0 0 1-7.84 24.72 19.83 19.83 0 0 1-10.573 3.04" class="B"/><path d="M3275.565 2002.421c-10.773 0-21.267-2.293-30.973-7.12-45.173-22.413-56.707-91.12-25.76-153.453 24.28-48.933 67.506-79.386 106.826-79.386 10.773 0 21.267 2.293 30.973 7.107 36.507 18.12 51.04 66.48 38.947 117.266-13.707 28.107-28.96 55.213-45.613 81.213-22.4 21.867-49.2 34.373-74.4 34.373" fill="#9b8da2"/><path d="M3349.965 1968.048c16.653-26 31.907-53.107 45.613-81.213-2.867 12.053-7.24 24.24-13.187 36.2-8.72 17.573-19.88 32.76-32.427 45.013" fill="#958d9d"/><path d="M3116.352 2146.528c-8.907-.013-17.613-2.467-25.16-7.613-22.627-15.467-26.373-49.387-8.347-75.76 12-17.573 30.64-27.373 48.44-27.373 8.907 0 17.613 2.453 25.16 7.613 22.64 15.467 26.373 49.387 8.36 75.76-12.013 17.573-30.653 27.373-48.453 27.373m-855.224-302.599s-8.147-358.906 207.093-438.746c72.84-27.027 150.24-36.387 220.346-36.387 137.066 0 246.266 35.8 239.186 45.48 0 0-4.507-.2-12.733-.2-59.133 0-310.853 10.24-464.572 178.24-135 147.533-189.32 251.613-189.32 251.613" fill="#9b8da2"/><path d="M3859.737 3628.924v310.119H1472.25v-310.119c0-95.013 77-172.066 172.013-172.066h2043.448c95.026 0 172.026 77.053 172.026 172.066" class="I"/><path d="M2527.194 3917.27h-57.573c5.8-37.72 8.36-75.48 9.107-108.16.747-32.28-.267-59.6-1.64-77.04-.493-6.173-.733-13.347-.76-21.293h63.587c-2.053 75.786-2.373 146.053-12.72 206.493m29.867-414.306h-64.173l2.947-24.293h65.747l-4.52 24.293m246.13 414.306h-38.76c-10.347-60.44-10.667-130.706-12.72-206.493h44.84c-.04 7.32-.267 13.907-.707 19.573-.04.4-.427 5.733-.827 14.933a21.7 21.7 0 0 0-1.827 8.733v113.653a21.67 21.67 0 0 0 5.667 14.64c1.16 11.453 2.587 23.173 4.333 34.96m-23.387-414.306h-45.24l-4.507-24.293h46.787l2.96 24.293" fill="#b92e49"/><path d="M2349.381 3939.043v877.184h-716.278c-88.813 0-160.853-72.053-160.853-160.92v-716.265h877.131" class="J"/><path d="M2349.381 4816.228h633.225v-877.184h-633.225z" class="R"/><path d="M3859.737 3939.043v716.265c0 88.866-71.986 160.92-160.853 160.92h-716.278v-877.184h877.131" class="J"/><path d="M3837.977 3917.27h-24.013c8.333-39.067 16.24-83.493 24.013-126.986v126.986" fill="#b92e49"/><path d="M2327.594 4794.414h-694.492c-76.693 0-139.093-62.4-139.093-139.093v-316.146c11.387 7.04 22.893 13.547 34.52 19.547a386.92 386.92 0 0 0-.453 18.907c0 52.773 10.707 103.173 30.08 148.986 29.067 68.706 77.573 127.106 138.64 168.36 61.067 41.267 134.813 65.387 214.013 65.387h.013c52.787 0 103.173-10.72 148.986-30.093 68.72-29.067 127.12-77.56 168.386-138.64 39.16-57.933 62.88-127.306 65.2-201.906 9.693 18.507 21.16 35.36 34.2 50.653v354.039" class="L"/><path d="M2960.833 4794.414h-589.665v-312.759c13.027 10.04 26.973 19.133 41.707 27.32v5.933c0 33.96 27.627 61.573 61.573 61.573h383.106c18.4 0 34.947-8.12 46.24-20.96 19.213-3.053 38.267-6.467 57.04-10.213v249.106m-112.48-191.666c-23.8 0-43.187 19.373-43.187 43.187v69.653c0 23.813 19.387 43.187 43.187 43.187h27.587c23.8 0 43.173-19.373 43.173-43.187v-69.653c0-23.813-19.373-43.187-43.173-43.187h-27.587m-130.76 0c-23.813 0-43.187 19.373-43.187 43.187v69.653c0 23.813 19.373 43.187 43.187 43.187h27.573c23.813 0 43.187-19.373 43.187-43.187v-69.653c0-23.813-19.373-43.187-43.187-43.187h-27.573m-130.773 0c-23.8 0-43.173 19.373-43.173 43.187v69.653c0 23.813 19.373 43.187 43.173 43.187h27.587c23.8 0 43.187-19.373 43.187-43.187v-69.653c0-23.813-19.387-43.187-43.187-43.187h-27.587m-152.173 67.373v45.467c0 11.76 9.64 21.4 21.4 21.4h27.613c11.76 0 21.4-9.64 21.4-21.4v-45.467c0 .28-.013.56-.013.84v-25.027c0-11.773-9.64-21.4-21.413-21.4h-27.573c-11.773 0-21.4 9.627-21.4 21.4v24.867c-.013-.227-.013-.453-.013-.68" class="S"/><path d="M3698.884 4794.414h-694.492v-258.466a1472.58 1472.58 0 0 0 64.413-16.387l2.907 7.053c29.067 68.706 77.56 127.106 138.64 168.36 61.053 41.267 134.813 65.387 214.013 65.387h.013c52.787 0 103.173-10.72 148.973-30.093 68.72-29.067 127.12-77.56 168.4-138.64 41.267-61.053 65.387-134.813 65.387-213.999 0-52.8-10.72-103.213-30.093-149.013-15.16-35.853-35.627-68.906-60.4-98.173 25.667-33.72 48.733-71.306 68.706-113.813 6.467-13.747 12.587-32.987 18.467-55.8h34.16v694.492c0 76.693-62.4 139.093-139.093 139.093m-1413.731-497.053c-5.08-23.813-12.373-46.813-21.667-68.746-12.627-29.867-28.933-57.773-48.333-83.173a269.97 269.97 0 0 0 21.827.88c30.293 0 61.04-5.08 90.613-15.733v160c-13.253 3.96-27.387 6.307-42.44 6.773" class="L"/><path d="M2371.167 4270.189v-159.96a260.38 260.38 0 0 0 10.173-6.253c41.373-26.8 65.867-82.2 79.973-143.146h58.787c-2.76 18.573-7.813 47.533-16.32 80.813h-36.453c-30.013 0-54.453 24.427-54.453 54.453v41.72c0 22.453 13.667 41.773 33.12 50.093-19.747 33.013-44.347 62.32-74.826 82.28" class="S"/><path d="M3015.779 4297.442c-3.853 0-7.653-.12-11.387-.36v-133.986c17.84 3.333 35.92 5 53.947 5a289.91 289.91 0 0 0 48.333-4.04c-26.187 38.893-45.44 82.92-55.947 130.213l-4.813.8c-10.44 1.6-20.467 2.373-30.133 2.373" class="L"/><path d="M2960.833 4288.322c-15.733-5.493-30.187-13.28-43.48-22.867-5.507-22.507-23.44-40.2-46.067-45.373-6.853-8.827-13.253-18.16-19.227-27.813h12.6c30.027 0 54.453-24.44 54.453-54.453v-5.067c13.467 7.373 27.427 13.587 41.72 18.653v136.92m-123.586-246.679h-45.613c-8.52-33.28-13.573-62.24-16.32-80.813h35.853c6.253 28.267 14.707 55.933 26.08 80.813" class="S"/><g class="B"><path d="M1494.01 3917.27h2343.967v-288.346c0-82.853-67.4-150.253-150.253-150.253H1644.263c-82.84 0-150.253 67.4-150.253 150.253v288.346m2387.527 43.56H1450.45v-331.906c0-106.866 86.946-193.813 193.813-193.813h2043.462c106.866 0 193.813 86.946 193.813 193.813v331.906"/><path d="M1494.01 3960.83v694.492c0 76.693 62.4 139.093 139.093 139.093h2065.782c76.693 0 139.093-62.4 139.093-139.093V3960.83H1494.01m2204.874 877.144H1633.103c-100.72 0-182.653-81.933-182.653-182.653V3917.27h2431.087v738.051c0 100.72-81.933 182.653-182.653 182.653"/><path d="M1494.01 3960.83v694.492c0 76.693 62.4 139.093 139.093 139.093h694.492V3960.83H1494.01m877.158 877.144h-738.065c-100.72 0-182.653-81.933-182.653-182.653V3917.27h920.718v920.704"/><path d="M2371.167 4794.414h589.665V3960.83h-589.665v833.585m633.225 43.56h-676.798V3917.27h676.798v920.704"/><path d="M3004.392 4794.414h694.492c76.693 0 139.093-62.4 139.093-139.093V3960.83h-833.585v833.585m694.492 43.56h-738.051V3917.27h920.704v738.051c0 100.72-81.933 182.653-182.653 182.653"/></g><path d="M1988.262 3697.977c0 95.666-77.546 173.213-173.24 173.213-95.653 0-173.213-77.546-173.213-173.213 0-95.68 77.56-173.24 173.213-173.24 95.693 0 173.24 77.56 173.24 173.24m1675.222 0c0 95.666-77.533 173.213-173.213 173.213s-173.213-77.546-173.213-173.213c0-8.88.653-17.587 1.96-26.08 12.573-83.32 84.453-147.133 171.253-147.133s158.733 63.867 171.253 147.186c1.307 8.493 1.96 17.147 1.96 26.027" class="M"/><path d="M1815.022 3849.417c-79.066 0-144.186-60.933-150.853-138.306 8.427 14.773 19.64 26.787 41.573 26.787 32.667 0 40.947-57.24 40.947-57.24h21.08c-2.013 5.4-3.107 11.227-3.107 17.32 0 6.147 1.133 12.027 3.213 17.48a26.59 26.59 0 0 1 .427-1.093c6.76 19.293 25.133 33.12 46.733 33.12 27.36 0 49.52-22.173 49.52-49.52 0-6.08-1.093-11.92-3.107-17.307h20.173s8.28 57.24 40.947 57.24c23.707 0 34.92-14.053 43.627-30.467-4.907 79.12-70.826 141.986-151.173 141.986m1675.249 0c-79.693 0-145.2-61.893-151.013-140.12 8.56 15.587 19.773 28.6 42.6 28.6 32.667 0 40.947-57.24 40.947-57.24h21.067c-2.013 5.387-3.107 11.227-3.107 17.307 0 27.347 22.16 49.52 49.507 49.52 23.32 0 42.867-16.107 48.133-37.787a49.23 49.23 0 0 0 1.413-11.72c0-6.093-1.093-11.92-3.107-17.32h21.027s8.28 57.24 40.947 57.24c22.813 0 34.053-13.013 42.627-28.613-5.8 78.24-71.333 140.133-151.04 140.133" class="N"/><path d="M1815.022 3546.524c-83.493 0-151.426 67.946-151.426 151.453s67.933 151.44 151.426 151.44c83.52 0 151.466-67.933 151.466-151.44s-67.946-151.453-151.466-151.453m0 346.452c-107.52 0-194.986-87.48-194.986-195 0-107.533 87.466-195.013 194.986-195.013 107.546 0 195.026 87.48 195.026 195.013 0 107.52-87.48 195-195.026 195" class="B"/><path d="M1864.555 3697.964c0 27.347-22.16 49.52-49.52 49.52-27.347 0-49.52-22.173-49.52-49.52s22.173-49.52 49.52-49.52c27.36 0 49.52 22.173 49.52 49.52" class="I"/><path d="M3490.271 3546.524c-83.506 0-151.426 67.946-151.426 151.453s67.92 151.44 151.426 151.44 151.453-67.933 151.453-151.44-67.946-151.453-151.453-151.453m0 346.452c-107.52 0-195-87.48-195-195 0-107.533 87.48-195.013 195-195.013 107.533 0 195.026 87.48 195.026 195.013 0 107.52-87.493 195-195.026 195" class="B"/><path d="M3539.804 3697.964c0 27.347-22.173 49.52-49.533 49.52-27.347 0-49.507-22.173-49.507-49.52s22.16-49.52 49.507-49.52c27.36 0 49.533 22.173 49.533 49.52" class="I"/><path d="M3536.711 3680.657h-.013c-7.027-18.813-25.16-32.213-46.427-32.213a49.29 49.29 0 0 0-30.747 10.707 49.22 49.22 0 0 1 30.747-10.72c21.24 0 39.4 13.413 46.44 32.227" class="E"/><path d="M3538.404 3709.697c.92-3.76 1.4-7.68 1.4-11.733 0-6.08-1.107-11.92-3.107-17.307h.013c2.013 5.4 3.107 11.227 3.107 17.32a49.23 49.23 0 0 1-1.413 11.72" class="O"/><path d="M3536.604 3715.457c-7.067-18.733-25.147-32.013-46.333-32.013s-39.267 13.28-46.28 32.013c-2.08-5.453-3.213-11.333-3.213-17.48 0-15.72 7.32-29.747 18.747-38.827a49.29 49.29 0 0 1 30.747-10.707c21.267 0 39.4 13.4 46.427 32.213 2 5.387 3.107 11.227 3.107 17.307 0 4.053-.48 7.973-1.4 11.733-.48 1.96-1.08 3.893-1.8 5.76" class="P"/><path d="M1768.622 3680.657h-.853c7.013-18.813 25.147-32.227 46.387-32.227.547 0 1.107 0 1.653.027-.253-.013-.52-.013-.773-.013-21.253 0-39.387 13.4-46.413 32.213" class="E"/><path d="M1767.876 3715.457c-2.08-5.453-3.213-11.333-3.213-17.48 0-6.093 1.093-11.92 3.107-17.32h.853c-2 5.387-3.107 11.227-3.107 17.307 0 5.747.987 11.267 2.787 16.4l-.427 1.093" class="O"/><path d="M1860.489 3715.457c-7.08-18.733-25.147-32.013-46.333-32.013-20.76 0-38.547 12.76-45.853 30.92-1.8-5.133-2.787-10.653-2.787-16.4 0-6.08 1.107-11.92 3.107-17.307 7.027-18.813 25.16-32.213 46.413-32.213a14.96 14.96 0 0 1 .773.013c26.573.867 47.893 22.733 47.893 49.52 0 6.147-1.133 12.027-3.213 17.48" class="P"/><path d="M3490.285 3670.231c-15.293 0-27.733 12.44-27.733 27.733s12.44 27.747 27.733 27.747 27.733-12.453 27.733-27.747-12.44-27.733-27.733-27.733zm0 99.04c-39.32 0-71.306-31.987-71.306-71.306 0-39.307 31.987-71.293 71.306-71.293 39.307 0 71.306 31.987 71.306 71.293 0 39.32-32 71.306-71.306 71.306" class="B"/><path d="M3132.432 3689.004h-943.998c-32.027 0-58.227-26.213-58.227-58.227v-47.813c0-32.027 26.2-58.227 58.227-58.227h943.998c32.013 0 58.227 26.2 58.227 58.227v47.813c0 32.013-26.213 58.227-58.227 58.227" class="C"/><path d="M2795.246 3667.217h-317.639l1.507-24.027h314.599l1.533 24.027" class="G"/><path d="M2857.553 4554.695h-383.106c-21.88 0-39.787-17.893-39.787-39.773v-234.826c0-21.88 17.907-39.787 39.787-39.787h383.106c21.88 0 39.787 17.907 39.787 39.787v234.826c0 21.88-17.907 39.773-39.787 39.773" class="C"/><path d="M2857.553 4532.922h-383.106c-9.933 0-18-8.08-18-18.013v-17.533c5.413 2.76 11.533 4.32 18.013 4.32h383.066a39.64 39.64 0 0 0 18.027-4.32v17.533c0 9.933-8.08 18.013-18 18.013" class="G"/><path d="M2474.447 4262.096c-9.933 0-18 8.08-18 18v234.813c0 9.933 8.067 18.013 18 18.013h383.106c9.92 0 18-8.08 18-18.013v-234.813c0-9.92-8.08-18-18-18h-383.106m383.106 314.386h-383.106c-33.947 0-61.573-27.613-61.573-61.573v-234.813c0-33.947 27.627-61.56 61.573-61.56h383.106c33.947 0 61.56 27.613 61.56 61.56v234.813c0 33.96-27.613 61.573-61.56 61.573" class="B"/><path d="M2483.634 4736.988h-27.573c-11.773 0-21.4-9.627-21.4-21.4v-69.653c0-11.773 9.627-21.4 21.4-21.4h27.573c11.773 0 21.413 9.627 21.413 21.4v69.653c0 11.773-9.64 21.4-21.413 21.4" class="F"/><path d="M2483.66 4736.988h-27.613c-11.76 0-21.4-9.64-21.4-21.4v-45.467a11.57 11.57 0 0 0 .013.68v44.787c0 11.773 9.627 21.4 21.4 21.4h27.573c11.773 0 21.413-9.627 21.413-21.4v-44.627c0-.28.013-.56.013-.84v45.467c0 11.76-9.64 21.4-21.4 21.4" fill="#796b82"/><path d="M2483.634 4736.988h-27.573c-11.773 0-21.4-9.627-21.4-21.4v-44.787c.36 11.507 9.853 20.72 21.387 20.72h27.613c11.48 0 20.933-9.133 21.387-20.56v44.627c0 11.773-9.64 21.4-21.413 21.4" class="Q"/><path d="M2483.647 4715.215h-.027zm-.387-69.28l-27.2.373.387 69.28 26.813-.373zm.387 112.84h-27.587c-23.813 0-43.187-19.373-43.187-43.187v-69.653c0-23.813 19.373-43.187 43.187-43.187h27.587c23.8 0 43.173 19.373 43.173 43.187v69.653c0 23.813-19.373 43.187-43.173 43.187" class="B"/><path d="M2614.407 4736.988h-27.587c-11.76 0-21.4-9.627-21.4-21.4v-69.653c0-11.773 9.64-21.4 21.4-21.4h27.587c11.773 0 21.4 9.627 21.4 21.4v69.653c0 11.773-9.627 21.4-21.4 21.4" class="F"/><path d="M2614.407 4715.215h-.027.027m-.387-69.28l-27.2.373.387 69.28 26.813-.373v-69.28m.387 112.84h-27.587c-23.8 0-43.173-19.373-43.173-43.187v-69.653c0-23.813 19.373-43.187 43.173-43.187h27.587c23.8 0 43.187 19.373 43.187 43.187v69.653c0 23.813-19.387 43.187-43.187 43.187" class="B"/><path d="M2745.166 4736.988h-27.573c-11.773 0-21.4-9.627-21.4-21.4v-69.653c0-11.773 9.627-21.4 21.4-21.4h27.573c11.773 0 21.4 9.627 21.4 21.4v69.653c0 11.773-9.627 21.4-21.4 21.4" class="F"/><path d="M2745.166 4715.215h-.013.013m-.373-69.28l-27.2.373.373 69.28 26.827-.373v-69.28m.373 112.84h-27.573c-23.813 0-43.187-19.373-43.187-43.187v-69.653c0-23.813 19.373-43.187 43.187-43.187h27.573c23.813 0 43.187 19.373 43.187 43.187v69.653c0 23.813-19.373 43.187-43.187 43.187" class="B"/><path d="M2875.939 4736.988h-27.587c-11.773 0-21.4-9.627-21.4-21.4v-69.653c0-11.773 9.627-21.4 21.4-21.4h27.587c11.76 0 21.4 9.627 21.4 21.4v69.653c0 11.773-9.64 21.4-21.4 21.4" class="F"/><path d="M2875.939 4715.215h-.027.027m-.387-69.28l-27.2.373.387 69.28 26.813-.373v-69.28m.387 112.84h-27.587c-23.8 0-43.187-19.373-43.187-43.187v-69.653c0-23.813 19.387-43.187 43.187-43.187h27.587c23.8 0 43.173 19.373 43.173 43.187v69.653c0 23.813-19.373 43.187-43.173 43.187" class="B"/><use xlink:href="#B" class="F"/><g class="B"><path d="M3132.472 3770.444c-20.08 0-36.4 16.333-36.4 36.4 0 20.08 16.32 36.413 36.4 36.413 20.067 0 36.4-16.333 36.4-36.413 0-20.067-16.333-36.4-36.4-36.4zm0 116.373c-44.093 0-79.973-35.88-79.973-79.973 0-44.08 35.88-79.96 79.973-79.96s79.96 35.88 79.96 79.96c0 44.093-35.867 79.973-79.96 79.973m-559.518 2.626c-12.027 0-21.773-9.747-21.773-21.773v-113.653c0-12.027 9.747-21.773 21.773-21.773 12.04 0 21.787 9.747 21.787 21.773v113.653c0 12.027-9.747 21.773-21.787 21.773"/><use xlink:href="#C"/><path d="M2814.98 3889.443c-12.04 0-21.787-9.747-21.787-21.773v-113.653c0-12.027 9.747-21.773 21.787-21.773 12.027 0 21.787 9.747 21.787 21.773v113.653c0 12.027-9.76 21.773-21.787 21.773"/><use xlink:href="#C" x="242.026"/><path d="M1879.569 3377.231h-130.826c-20.667 0-37.427 16.747-37.427 37.427v42.227h205.679v-42.227c0-20.68-16.76-37.427-37.427-37.427"/></g><path d="M2864.66 4170.483h-397.332c-18.04 0-32.667-14.627-32.667-32.667v-41.72c0-18.053 14.627-32.68 32.667-32.68h397.332c18.053 0 32.68 14.627 32.68 32.68v41.72c0 18.04-14.627 32.667-32.68 32.667" class="M"/><path d="M2456.447 4096.91v-.813c0-6.013 4.88-10.893 10.88-10.893h395.332a182.36 182.36 0 0 0 8.507 10.493c-2.107-.427-4.28-.653-6.507-.653h-397.346a32.58 32.58 0 0 0-10.867 1.867" class="E"/><path d="M2864.66 4148.696h-397.332c-6 0-10.88-4.88-10.88-10.88v-15.987a32.63 32.63 0 0 0 10.867 1.853h397.346c3.813 0 7.48-.653 10.893-1.853v15.987c0 6-4.88 10.88-10.893 10.88" class="N"/><path d="M2467.327 4085.203c-6 0-10.88 4.88-10.88 10.893v41.72c0 6 4.88 10.88 10.88 10.88h397.332c6.013 0 10.893-4.88 10.893-10.88v-41.72a10.9 10.9 0 0 0-10.893-10.893h-397.332m397.332 107.066h-397.332c-30.013 0-54.453-24.44-54.453-54.453v-41.72c0-30.027 24.44-54.453 54.453-54.453h397.332c30.027 0 54.453 24.427 54.453 54.453v41.72c0 30.013-24.427 54.453-54.453 54.453" class="B"/><path d="M2508.807 4448.749h314.386v-208.439h-314.386z" class="C"/><g class="G"><path d="M2508.807 4448.775h314.359v-.027h-314.359z"/><path d="M2508.807 4448.749h314.359v-51.213h-314.359z"/></g><g class="B"><path d="M2530.594 4426.962h270.813v-164.866h-270.813zm314.386 43.56h-357.96v-251.986h357.959v251.986m-230.492-121.466c0 15.773-12.787 28.56-28.573 28.56-15.773 0-28.573-12.787-28.573-28.56 0-15.787 12.8-28.573 28.573-28.573a28.57 28.57 0 0 1 28.573 28.573"/><path d="M2774.646 4344.536c0 15.773-12.787 28.56-28.573 28.56-15.773 0-28.56-12.787-28.56-28.56 0-15.787 12.787-28.573 28.56-28.573a28.57 28.57 0 0 1 28.573 28.573m-318.199 125.986v56.947a5.46 5.46 0 0 0 5.44 5.453h408.212a5.46 5.46 0 0 0 5.453-5.453v-56.947zm413.652 105.96h-408.212c-27.027 0-49.013-21.987-49.013-49.013v-100.506h506.239v100.506c0 27.027-21.987 49.013-49.013 49.013"/><path d="M2697.673 4373.096h-63.36v-48.093h63.36v48.093"/></g><path d="M2768.46 3606.617l-12.72 82.386h37.813l-12.707-82.386c-1.093-7.08-11.293-7.08-12.387 0" fill="#d83d3d"/><g class="B"><path d="M2188.448 3546.524c-20.107 0-36.453 16.347-36.453 36.44v47.813c0 20.093 16.347 36.44 36.453 36.44h943.984c20.093 0 36.44-16.347 36.44-36.44v-47.813c0-20.093-16.347-36.44-36.44-36.44h-943.984m943.984 164.253h-943.984c-44.12 0-80.026-35.893-80.026-80v-47.813c0-44.107 35.907-80 80.026-80h943.984c44.107 0 80 35.893 80 80v47.813c0 44.107-35.893 80-80 80"/><path d="M2199.595 3594.537l5.973-69.8h-18.147l5.973 69.8c.32 3.787 5.867 3.787 6.2 0m66.28 0l5.96-69.8h-18.133l5.96 69.8c.333 3.787 5.88 3.787 6.213 0"/><use xlink:href="#D"/><use xlink:href="#E"/><use xlink:href="#E" x="66.28"/><use xlink:href="#E" x="132.559"/><path d="M2597.26 3594.537l5.973-69.8h-18.147l5.973 69.8c.32 3.787 5.867 3.787 6.2 0m66.281 0l5.96-69.8h-18.147l5.973 69.8c.333 3.787 5.88 3.787 6.213 0"/><use xlink:href="#D" x="397.666"/><use xlink:href="#E" x="397.665"/><use xlink:href="#E" x="463.945"/><use xlink:href="#E" x="530.225"/><path d="M2994.926 3594.537l5.973-69.8h-18.147l5.96 69.8c.333 3.787 5.88 3.787 6.213 0m66.281 0l5.96-69.8h-18.147l5.973 69.8c.333 3.787 5.88 3.787 6.213 0"/><use xlink:href="#D" x="795.331"/></g><path d="M1910.809 4644.668c-147.48 0-267.039-119.573-267.039-267.039 0-147.533 119.56-267.093 267.039-267.093 147.52 0 267.079 119.56 267.079 267.093 0 147.466-119.56 267.039-267.079 267.039m0-628.038c-199.36 0-360.959 161.586-360.959 360.999 0 199.346 161.6 360.946 360.959 360.946s360.999-161.6 360.999-360.946c0-199.413-161.64-360.999-360.999-360.999" class="R"/><path d="M1910.809 4687.161c-103.88 0-193.92-59.333-238.066-145.96a290.55 290.55 0 0 0 76.573 75.906c44.733 30.24 98.56 48.293 156.36 49.293h.04c.12 0 .267 0 .387.013h.067c.293 0 .587 0 .867.013h.12.32.12.4.013a4.28 4.28 0 0 0 .413.013h.147.28.16.36.067.387.147.28.147.4.013 0 0 0 0 .013c39.827 0 77.866-8.08 112.44-22.707 51.133-21.627 94.68-57.493 125.733-102.653-44.133 86.68-134.213 146.08-238.186 146.08m300.346-467.359c-64.72-96.893-175.093-160.693-300.346-160.693-125.186 0-235.506 63.72-300.239 160.533 26.173-49.653 64.347-92.066 110.613-123.32 54.16-36.573 119.306-57.907 189.626-57.92v-21.773h0v21.773c46.893.013 91.453 9.493 132.026 26.653a336.05 336.05 0 0 1 16.547 7.52c6.253 8.547 13.693 16.28 22.467 23.013 17.88 13.667 37.907 24.747 59.333 33.04 19.16 17.733 36.267 37.64 50.92 59.333 6.907 10.24 13.28 20.853 19.053 31.84" fill="#ececec"/><path d="M1910.809 4644.668v-21.787c-33.92 0-66.133-6.853-95.453-19.267-43.987-18.6-81.48-49.72-107.933-88.88-13.227-19.573-23.693-41.147-30.853-64.173s-11.027-47.493-11.027-72.933c0-33.947 6.867-66.16 19.267-95.493 18.6-43.987 49.733-81.493 88.893-107.946 19.573-13.227 41.147-23.693 64.173-30.853 23.013-7.16 47.493-11.013 72.933-11.013 33.933 0 66.147 6.853 95.48 19.267 44 18.6 81.493 49.733 107.946 88.893 13.227 19.573 23.693 41.147 30.853 64.173 7.16 23.04 11.027 47.52 11.027 72.973 0 33.92-6.867 66.12-19.267 95.453-18.6 43.987-49.733 81.48-88.893 107.92-19.587 13.227-41.16 23.693-64.187 30.867-23.027 7.16-47.507 11.013-72.96 11.013v21.787 21.773c39.827.013 77.88-8.08 112.453-22.707 51.867-21.933 95.933-58.533 127.066-104.613 31.147-46.067 49.36-101.76 49.347-161.493 0-39.84-8.08-77.893-22.707-112.453-21.947-51.88-58.533-95.933-104.626-127.08-46.08-31.147-101.773-49.347-161.533-49.347-39.813 0-77.866 8.093-112.426 22.707-51.867 21.947-95.92 58.547-127.053 104.64-31.147 46.08-49.36 101.773-49.347 161.533 0 39.813 8.08 77.853 22.707 112.426 21.947 51.853 58.533 95.906 104.626 127.053 46.067 31.133 101.746 49.347 161.493 49.333v-21.773m0-628.038v-21.787c-52.787 0-103.186 10.707-148.986 30.093-68.72 29.067-127.106 77.56-168.373 138.64-41.267 61.067-65.387 134.84-65.373 214.053 0 52.773 10.707 103.173 30.08 148.986 29.067 68.706 77.573 127.106 138.64 168.36 61.067 41.267 134.813 65.387 214.013 65.387 52.787 0 103.186-10.72 149-30.093 68.72-29.067 127.12-77.56 168.386-138.64 41.267-61.053 65.4-134.813 65.387-213.999 0-52.8-10.707-103.213-30.093-149.013-29.067-68.733-77.573-127.133-138.653-168.4-61.067-41.253-134.826-65.387-214.026-65.373v21.787 21.773c46.893.013 91.453 9.493 132.026 26.653 60.84 25.72 112.68 68.76 149.266 122.906 36.573 54.173 57.907 119.32 57.92 189.666 0 46.88-9.493 91.44-26.653 132.013-25.733 60.84-68.773 112.666-122.92 149.24-54.173 36.573-119.32 57.907-189.64 57.907-46.893 0-91.453-9.48-132.013-26.64-60.84-25.72-112.68-68.76-149.253-122.906-36.573-54.16-57.893-119.293-57.907-189.613 0-46.907 9.493-91.48 26.64-132.053 25.733-60.853 68.76-112.68 122.906-149.253 54.16-36.573 119.306-57.907 189.626-57.92v-21.773" class="B"/><path d="M2177.901 4377.602l-.053 3.107c-1.64 146.093-120.56 263.986-267.039 263.986-147.453 0-267.039-119.586-267.039-267.093 0-6.093.227-12.2.6-18.187 9.373-139.013 125.08-248.906 266.439-248.906 147.52 0 267.093 119.573 267.093 267.093" class="M"/><path d="M1910.809 4622.882c-133.146 0-241.853-106.64-245.186-238.999 20.387 20.987 48.333 42.867 76.933 43.987a146.26 146.26 0 0 0 5.36.093c73.226 0 86.986-58.533 86.986-58.533h.013c-.627 5.867-.587 11.92.187 18.093 4.293 34.04 31.773 61.52 65.8 65.8a78.34 78.34 0 0 0 9.92.627c35.613 0 65.533-24.387 73.973-57.36 0 .027.013.053.013.067 2.053-7.96 2.813-16.467 2.12-25.227l18.573-2s13.827 58.533 87.04 58.533a146.98 146.98 0 0 0 5.373-.093c20.093-.773 39.893-11.853 56.973-25.653-12.373 123.733-117.12 220.666-244.079 220.666" class="N"/><path d="M1910.809 4132.309c-135.24 0-245.266 110.053-245.266 245.306 0 135.24 110.026 245.266 245.266 245.266 135.253 0 245.306-110.026 245.306-245.266 0-135.253-110.053-245.306-245.306-245.306m0 534.132c-159.266 0-288.826-129.56-288.826-288.826 0-159.28 129.56-288.866 288.826-288.866 159.28 0 288.866 129.586 288.866 288.866 0 159.266-129.586 288.826-288.866 288.826" class="B"/><path d="M1986.542 4367.669c6.307 49.933-35.693 91.946-85.64 85.653-34.027-4.28-61.507-31.76-65.8-65.8-6.28-49.947 35.72-91.946 85.653-85.64 34.027 4.293 61.507 31.773 65.787 65.787" class="I"/><use xlink:href="#F" class="E"/><path d="M1984.808 4396.655c0-.013-.013-.04-.013-.067 2.04-7.96 2.827-16.413 2.133-25.16h0c.693 8.76-.067 17.267-2.12 25.227" class="O"/><path d="M1957.862 4317.469c-10.547-8.28-23.28-13.84-37.107-15.587a78.55 78.55 0 0 0-9.933-.627c-6.467 0-12.747.8-18.76 2.32 6.027-1.52 12.333-2.333 18.827-2.333 3.253 0 6.56.2 9.893.613 13.8 1.747 26.533 7.333 37.08 15.613" class="E"/><path d="M1984.795 4396.589c-7.64-29.693-33.173-52.747-64.013-56.613-3.373-.427-6.72-.64-10-.64-35.52 0-65.4 24.32-73.92 57.213-.813-2.933-1.36-5.987-1.733-9.04-5.053-39.933 20.827-74.786 56.933-83.933 6.013-1.52 12.293-2.32 18.76-2.32a78.55 78.55 0 0 1 9.933.627c13.827 1.747 26.56 7.307 37.107 15.587 13.027 10.24 22.707 24.627 26.933 41.027a72.78 72.78 0 0 1 1.747 9.173 74.9 74.9 0 0 1 .387 3.76c.693 8.747-.093 17.2-2.133 25.16" class="P"/><g class="B"><path d="M1910.822 4323.029c-30.08 0-54.56 24.493-54.56 54.573 0 30.093 24.48 54.56 54.56 54.56 30.093 0 54.573-24.467 54.573-54.56 0-30.08-24.48-54.573-54.573-54.573zm0 152.693c-54.107 0-98.12-44.013-98.12-98.12s44.013-98.133 98.12-98.133c54.12 0 98.146 44.027 98.146 98.133s-44.027 98.12-98.146 98.12"/><use xlink:href="#G"/><use xlink:href="#H"/><use xlink:href="#G" y="411.826"/><use xlink:href="#H" y="411.826"/><path d="M1910.835 4189.803c24.64-6.747 51.6-5.28 76.773 2.48 25.2 7.827 48.68 22.107 67.573 40.987 18.907 18.867 33.2 42.347 41.027 67.56 7.773 25.173 9.227 52.147 2.44 76.786-6.893-24.533-15.093-46.707-26.173-66.946-10.973-20.227-24.547-38.373-40.387-54.307-15.907-15.867-34.067-29.44-54.293-40.427-20.24-11.093-42.427-19.293-66.96-26.133m0 375.639c-24.64 6.747-51.613 5.28-76.786-2.493-25.2-7.813-48.68-22.093-67.573-40.973-18.907-18.867-33.2-42.36-41.013-67.56-7.787-25.173-9.24-52.16-2.453-76.8 6.893 24.547 15.093 46.72 26.173 66.96 10.987 20.213 24.547 38.373 40.387 54.307 15.907 15.867 34.067 29.44 54.293 40.427 20.24 11.093 42.427 19.293 66.973 26.133"/></g><path d="M3424.365 4644.668c-147.48 0-267.053-119.573-267.053-267.039 0-147.533 119.573-267.093 267.053-267.093 147.52 0 267.079 119.56 267.079 267.093 0 147.466-119.56 267.039-267.079 267.039m0-628.038c-199.36 0-360.959 161.586-360.959 360.999 0 199.346 161.6 360.946 360.959 360.946s360.986-161.6 360.986-360.946c0-199.413-161.626-360.999-360.986-360.999" class="R"/><path d="M3424.365 4687.161c-103.88 0-193.92-59.333-238.066-145.96a290.3 290.3 0 0 0 76.56 75.906c45.467 30.733 100.306 48.867 159.16 49.333h.027.413.067.867.107.333.107.427 0 0 0 0 0 0 .013c39.827 0 77.866-8.08 112.426-22.707 51.133-21.627 94.68-57.493 125.746-102.653-44.133 86.68-134.226 146.08-238.186 146.08m300.333-467.372c-64.72-96.893-175.08-160.68-300.333-160.68-125.2 0-235.506 63.72-300.239 160.533 15.52-29.453 35.267-56.347 58.413-79.893a260.15 260.15 0 0 0 43.467-26.88 134.24 134.24 0 0 0 27.507-28.36c50.173-29.32 108.466-46.093 170.853-46.107v-21.773h0v21.773c46.893.013 91.453 9.493 132.026 26.653 60.84 25.72 112.68 68.76 149.253 122.906 6.92 10.227 13.28 20.853 19.053 31.827" fill="#ececec"/><path d="M3424.365 4644.668v-21.787c-33.933 0-66.133-6.853-95.466-19.267-43.987-18.6-81.48-49.72-107.933-88.88-13.227-19.573-23.68-41.147-30.853-64.173-7.16-23.027-11.013-47.493-11.013-72.933 0-33.947 6.867-66.16 19.267-95.493 18.6-43.987 49.733-81.493 88.88-107.946 19.587-13.227 41.147-23.693 64.173-30.853s47.493-11.013 72.946-11.013c33.933 0 66.147 6.853 95.48 19.267 43.987 18.6 81.493 49.733 107.946 88.893 13.227 19.573 23.693 41.147 30.853 64.173 7.16 23.04 11.013 47.52 11.027 72.973-.013 33.92-6.867 66.12-19.267 95.453-18.613 43.987-49.733 81.48-88.906 107.92a244.44 244.44 0 0 1-64.173 30.867c-23.04 7.16-47.507 11.013-72.96 11.013v21.787 21.773c39.827.013 77.88-8.08 112.44-22.707 51.88-21.933 95.933-58.533 127.08-104.613 31.147-46.067 49.347-101.76 49.347-161.493 0-39.84-8.08-77.893-22.707-112.453-21.947-51.88-58.547-95.933-104.64-127.08-46.08-31.147-101.773-49.347-161.52-49.347-39.827 0-77.866 8.093-112.44 22.707-51.853 21.947-95.906 58.547-127.053 104.64-31.133 46.08-49.347 101.773-49.333 161.533-.013 39.813 8.08 77.853 22.707 112.426 21.933 51.853 58.533 95.906 104.613 127.053 46.067 31.133 101.76 49.347 161.506 49.333v-21.773m0-628.038v-21.787c-52.787 0-103.186 10.707-149 30.093-68.706 29.067-127.106 77.56-168.36 138.64-41.267 61.067-65.387 134.84-65.387 214.053 0 52.773 10.707 103.173 30.093 148.986 29.067 68.706 77.56 127.106 138.64 168.36 61.053 41.267 134.813 65.387 214.013 65.387 52.787 0 103.186-10.72 148.986-30.093 68.72-29.067 127.12-77.56 168.4-138.64 41.267-61.053 65.387-134.813 65.387-213.999 0-52.8-10.72-103.213-30.093-149.013-29.067-68.733-77.586-127.133-138.666-168.386-61.067-41.267-134.826-65.4-214.013-65.387v21.787 21.773c46.893.013 91.453 9.493 132.026 26.653 60.84 25.72 112.68 68.76 149.253 122.906 36.587 54.173 57.92 119.32 57.933 189.666-.013 46.88-9.493 91.44-26.653 132.013-25.733 60.84-68.773 112.666-122.92 149.24-54.173 36.573-119.32 57.907-189.64 57.907-46.893 0-91.453-9.48-132.026-26.64-60.84-25.72-112.666-68.76-149.24-122.906-36.573-54.16-57.907-119.293-57.907-189.613 0-46.907 9.48-91.48 26.64-132.053 25.72-60.853 68.76-112.68 122.906-149.253 54.16-36.573 119.293-57.907 189.626-57.92v-21.773" class="B"/><path d="M3691.457 4377.602l-.053 3.107c-1.64 146.093-120.56 263.986-267.039 263.986-147.453 0-267.039-119.586-267.039-267.093 0-6.093.213-12.2.6-18.187 9.36-139.013 125.08-248.906 266.439-248.906 147.506 0 267.093 119.573 267.093 267.093" class="M"/><path d="M3424.365 4622.882c-133.146 0-241.853-106.653-245.186-238.999 20.373 20.987 48.333 42.867 76.933 43.987 1.813.067 3.6.093 5.36.093 73.226 0 86.986-58.533 86.986-58.533h0c-.613 5.867-.573 11.92.2 18.093 4.28 34.04 31.773 61.52 65.8 65.8a78.34 78.34 0 0 0 9.92.627c35.613 0 65.533-24.387 73.973-57.36 0 .027.013.053.013.067 2.053-7.96 2.813-16.467 2.12-25.227l18.573-2s13.827 58.533 87.04 58.533a146.26 146.26 0 0 0 5.36-.093c20.107-.773 39.907-11.853 56.987-25.653-12.373 123.733-117.12 220.666-244.079 220.666" class="N"/><path d="M3424.365 4132.309c-135.24 0-245.266 110.053-245.266 245.306 0 135.24 110.026 245.266 245.266 245.266 135.253 0 245.293-110.026 245.293-245.266 0-135.253-110.04-245.306-245.293-245.306m0 534.132c-159.266 0-288.839-129.56-288.839-288.826 0-159.28 129.573-288.866 288.839-288.866 159.28 0 288.866 129.586 288.866 288.866 0 159.266-129.586 288.826-288.866 288.826" class="B"/><path d="M3500.098 4367.669c6.307 49.933-35.693 91.946-85.64 85.653-34.027-4.28-61.52-31.76-65.8-65.8-6.293-49.947 35.72-91.946 85.653-85.64 34.027 4.293 61.493 31.773 65.787 65.787" class="I"/><use xlink:href="#F" x="1513.557" class="E"/><path d="M3498.365 4396.655c0-.013-.013-.04-.013-.067 2.04-7.96 2.813-16.413 2.133-25.16h0c.693 8.76-.067 17.267-2.12 25.227" class="O"/><path d="M3471.418 4317.469c-10.547-8.28-23.293-13.84-37.107-15.587-3.36-.427-6.667-.627-9.933-.627a76.76 76.76 0 0 0-18.987 2.373c6.093-1.56 12.48-2.387 19.053-2.387a80.21 80.21 0 0 1 9.88.613c13.813 1.747 26.547 7.333 37.093 15.613" class="E"/><path d="M3498.351 4396.589c-7.653-29.693-33.173-52.747-64.027-56.613-3.36-.427-6.707-.64-9.987-.64-35.533 0-65.4 24.32-73.92 57.213-.813-2.933-1.36-5.987-1.747-9.04-5.04-39.853 20.72-74.64 56.72-83.88a76.76 76.76 0 0 1 18.987-2.373c3.267 0 6.573.2 9.933.627 13.813 1.747 26.56 7.307 37.107 15.587 13.027 10.24 22.707 24.627 26.933 41.027a72.78 72.78 0 0 1 1.747 9.173 74.9 74.9 0 0 1 .387 3.76c.68 8.747-.093 17.2-2.133 25.16" class="P"/><g class="B"><path d="M3424.378 4323.029c-30.093 0-54.56 24.493-54.56 54.573 0 30.093 24.467 54.56 54.56 54.56s54.573-24.467 54.573-54.56c0-30.08-24.48-54.573-54.573-54.573zm0 152.693c-54.107 0-98.133-44.013-98.133-98.12s44.027-98.133 98.133-98.133 98.133 44.027 98.133 98.133-44.027 98.12-98.133 98.12"/><use xlink:href="#I"/><use xlink:href="#J"/><use xlink:href="#I" y="411.826"/><use xlink:href="#J" y="411.826"/><path d="M3424.378 4189.803c24.64-6.747 51.6-5.28 76.773 2.48 25.213 7.827 48.693 22.107 67.586 40.987 18.907 18.867 33.2 42.347 41.013 67.56 7.773 25.173 9.24 52.147 2.44 76.786-6.88-24.533-15.08-46.707-26.173-66.946-10.973-20.227-24.533-38.373-40.387-54.307-15.893-15.867-34.053-29.44-54.28-40.427-20.24-11.093-42.427-19.293-66.973-26.133m.001 375.639c-24.64 6.747-51.6 5.28-76.773-2.493-25.2-7.813-48.68-22.093-67.573-40.973-18.92-18.867-33.2-42.36-41.027-67.56-7.773-25.173-9.24-52.16-2.44-76.8 6.88 24.547 15.093 46.72 26.173 66.96 10.973 20.213 24.547 38.373 40.387 54.307 15.893 15.867 34.067 29.44 54.293 40.427 20.24 11.093 42.427 19.293 66.96 26.133m65.92-980.345c14.813-4.533 31.147-3.8 46.453.707 15.32 4.587 29.6 13.2 41.053 24.64s20.067 25.72 24.667 41.04c4.52 15.307 5.24 31.653.68 46.467-4.6-14.733-9.68-27.92-16.507-39.907-6.693-11.987-14.827-22.72-24.24-32.2-9.453-9.44-20.2-17.573-32.187-24.28-11.987-6.827-25.187-11.893-39.92-16.467m.001 225.706c-14.813 4.533-31.147 3.8-46.453-.707-15.307-4.6-29.6-13.2-41.053-24.653-11.453-11.427-20.067-25.72-24.667-41.027-4.52-15.307-5.24-31.653-.68-46.467 4.6 14.733 9.693 27.92 16.507 39.907 6.693 11.987 14.827 22.72 24.24 32.2 9.453 9.44 20.2 17.573 32.187 24.267 11.987 6.827 25.187 11.907 39.92 16.48m-1676.144-225.706c14.813-4.533 31.147-3.8 46.453.707 15.307 4.587 29.6 13.2 41.053 24.64s20.067 25.72 24.667 41.04c4.52 15.307 5.24 31.653.68 46.467-4.6-14.733-9.693-27.92-16.507-39.907-6.693-11.987-14.827-22.72-24.24-32.2-9.453-9.44-20.2-17.573-32.187-24.28-11.987-6.827-25.187-11.893-39.92-16.467m.001 225.706c-14.813 4.533-31.147 3.8-46.453-.707-15.32-4.6-29.6-13.2-41.053-24.653-11.453-11.427-20.067-25.72-24.667-41.027-4.52-15.307-5.24-31.653-.68-46.467 4.6 14.733 9.693 27.92 16.507 39.907 6.693 11.987 14.827 22.72 24.24 32.2 9.453 9.44 20.2 17.573 32.187 24.267 11.987 6.827 25.187 11.907 39.92 16.48"/></g><path d="M2587.207 4715.588l-.133-24.067h26.947v23.693l-26.813.373" class="Q"/><path d="M2614.42 4736.988h-27.6c-11.76 0-21.4-9.64-21.4-21.4v-45.467c0 11.813 9.64 21.4 21.4 21.4h.253l.133 24.067 26.813-.373v-23.693h.4c11.773 0 21.413-9.587 21.413-21.4v45.467c0 11.76-9.64 21.4-21.413 21.4m-.04-21.773h.027" class="B"/><path d="M2717.967 4715.588l-.133-24.067h26.96v23.693l-26.827.373" class="Q"/><path d="M2745.193 4736.988h-27.6c-11.773 0-21.413-9.64-21.413-21.4v-45.467c0 11.813 9.64 21.4 21.413 21.4h.24l.133 24.067 26.827-.373v-23.693h.4c11.76 0 21.4-9.587 21.4-21.4v45.467c0 11.76-9.64 21.4-21.4 21.4m-.04-21.773h.013" class="B"/><path d="M2848.74 4715.588l-.133-24.067h26.947v23.693l-26.813.373" class="Q"/><path d="M2875.953 4736.988h-27.613c-11.76 0-21.4-9.64-21.4-21.4v-45.467c0 11.813 9.64 21.4 21.4 21.4h.267l.133 24.067 26.813-.373v-23.693h.4c11.76 0 21.4-9.587 21.4-21.4v45.467c0 11.76-9.64 21.4-21.4 21.4m-.04-21.773h.027M1815.035 3670.231c-15.293 0-27.733 12.44-27.733 27.733s12.44 27.747 27.733 27.747c15.307 0 27.747-12.453 27.747-27.747s-12.44-27.733-27.747-27.733zm0 99.04c-39.32 0-71.306-31.987-71.306-71.306 0-39.307 31.987-71.293 71.306-71.293s71.306 31.987 71.306 71.293c0 39.32-31.987 71.306-71.306 71.306" class="B"/><use xlink:href="#B" x="-755.998" class="F"/><path d="M2376.474 3770.444c-20.067 0-36.4 16.333-36.4 36.4 0 20.08 16.333 36.413 36.4 36.413s36.4-16.333 36.4-36.413c0-20.067-16.333-36.4-36.4-36.4m0 116.373c-44.093 0-79.96-35.88-79.96-79.973 0-44.08 35.867-79.96 79.96-79.96s79.973 35.88 79.973 79.96c0 44.093-35.88 79.973-79.973 79.973" class="B"/><use xlink:href="#B" x="-944.078" class="F"/><path d="M2188.395 3770.444c-20.067 0-36.4 16.333-36.4 36.4 0 20.08 16.333 36.413 36.4 36.413s36.4-16.333 36.4-36.413c0-20.067-16.333-36.4-36.4-36.4m0 116.373c-44.093 0-79.973-35.88-79.973-79.973 0-44.08 35.88-79.96 79.973-79.96s79.973 35.88 79.973 79.96c0 44.093-35.88 79.973-79.973 79.973M1885.982 2755.14c-7.573 0-14.947-3.96-18.96-11.027-5.933-10.467-2.267-23.76 8.187-29.693 94.986-53.92 150-141.986 163.506-261.759 10.293-91.44-8.64-167.946-8.84-168.72a21.79 21.79 0 0 1 15.76-26.453c11.627-2.973 23.48 4.08 26.453 15.72.867 3.373 20.947 83.84 10.067 182.906-14.64 133.213-78.76 235.639-185.426 296.186-3.4 1.933-7.093 2.84-10.747 2.84" class="B"/><path d="M3340.525 3316.298s201.159 24.987 156.813 112.426c-12.533 24.72-59.573 15.613-110.146 6.493-36.907-6.64-75.68-13.293-104.32-6.8 0 0-38.48-106.12-15-124.053 23.48-17.947 72.653 11.933 72.653 11.933" class="C"/><path d="M3338.685 3427.605c-5.093-.587-10.12-1.053-15.053-1.373h0c4.933.32 9.96.787 15.053 1.373h0" class="H"/><path d="M3340.965 3427.871l-2.28-.267h0l2.28.267" class="B"/><path d="M3499.791 3423.365h0c4.88-12.08 4.987-22.907 1.587-32.6 3.413 9.693 3.307 20.52-1.587 32.6" class="H"/><path d="M3499.111 3424.978l.68-1.613h0l-.68 1.613" class="B"/><path d="M3501.378 3390.765c0-.027-.013-.04-.013-.067 0 .027.013.04.013.067" class="H"/><path d="M3458.738 3444.658c-20 0-45.28-4.72-71.52-9.44-15.387-2.773-31.093-5.533-46.253-7.347l-2.28-.267c-5.093-.587-10.12-1.053-15.053-1.373-.653-14.893-1.853-29.8-3.667-44.6a79.37 79.37 0 0 0 7.2 1.12c44.947 4.787 96.773 19.227 131.933 19.227 18.52 0 32.413-4.013 38.253-15.533.373-.76.76-1.52 1.08-2.28a45.35 45.35 0 0 1 2.933 6.533c0 .027.013.04.013.067h0c3.4 9.693 3.293 20.52-1.587 32.6-.213.533-.453 1.08-.68 1.613-.533 1.227-1.12 2.48-1.76 3.733-6.027 11.88-20.053 15.947-38.613 15.947" class="D"/><path d="M3341.872 3305.498c19.733-1.627 38.72-.107 57.907 2.933 19.08 3.28 38.08 8.267 56.787 16.16 9.36 3.96 18.693 8.507 27.92 14.293 9.173 5.787 18.387 12.813 26.56 22.587 8.133 9.587 14.853 23.187 16.027 37.867 1.28 14.667-2.667 28.32-7.96 39.227l-.507 1.08-.827 1.52c-.573 1-1.093 2-1.76 2.973a46.31 46.31 0 0 1-4.24 5.587c-3.093 3.493-6.653 6.453-10.28 8.813-7.307 4.613-14.493 6.827-20.92 8.2-12.893 2.533-23.813 2.213-34.213 1.6-20.653-1.44-39.24-5.16-57.56-8.52-18.253-3.32-35.96-7.04-53.213-9.307-17.107-2.213-34.133-3.227-47.92-.853l-.72.12c-11.853 2.053-23.12-5.893-25.173-17.747-1.947-11.333 5.293-22.133 16.28-24.867 22.573-5.533 43.12-4.307 62.707-2.587 19.573 1.92 38.333 4.92 56.52 8.16 18.147 3.107 36.04 6.24 52.36 7.493 8.053.6 15.853.467 21.16-.627 2.613-.507 4.347-1.307 4.907-1.627.253-.16.28-.187.28-.133l-.013.08.013-.013h.027l.24-.48c2.893-5.627 4.027-10.48 3.8-14.36-.173-3.893-1.707-7.813-5.2-12.56-7.053-9.52-21.187-18.667-36.16-25.68-30.533-14.173-65.427-24.507-99.52-37.72l-.413-.16c-5.733-2.227-8.573-8.667-6.36-14.387 1.587-4.107 5.36-6.72 9.467-7.067" class="B"/><path d="M2498.554 3457.391c2.053-75.386-9.4-136.653-29.987-185.2-85.6-201.879-329.173-184.08-417.359-48.773-137.813 211.426 10.013 573.932 10.013 573.932s-82.533 219.279 20.653 298.213c79.88 61.12 203.119 70.773 299.439 8.387 100.906-65.347 101.4-300.773 95.773-371.879s21.467-274.679 21.467-274.679" class="C"/><path d="M2469.62 3917.27h-.013c5.813-37.72 8.373-75.48 9.12-108.16-.747 32.68-3.307 70.44-9.107 108.16" fill="#982948"/><path d="M2236.981 4146.323a269.97 269.97 0 0 1-21.827-.88c7.227.573 14.507.867 21.813.867 30.293 0 61.04-5.08 90.626-15.733v.013c-29.573 10.653-60.32 15.733-90.613 15.733" fill="#4366ad"/><path d="M2371.167 4110.23v-.027c3.413-2 6.8-4.08 10.147-6.253 41.387-26.8 65.88-82.186 79.986-143.12h.013c-14.107 60.947-38.6 116.346-79.973 143.146a260.38 260.38 0 0 1-10.173 6.253" fill="#83778b"/><path d="M2327.594 4130.589v-.013a262.17 262.17 0 0 0 43.573-20.373v.027c-14.08 8.24-28.68 15-43.573 20.36m133.72-169.76h-.013c3.307-14.32 6.053-28.933 8.307-43.56h.013c-2.253 14.627-5 29.24-8.307 43.56" class="B"/><path d="M2141.181 4128.629c-21.427-8.293-41.453-19.373-59.333-33.04-8.773-6.733-16.213-14.467-22.467-23.013 6.28 8.547 13.707 16.267 22.493 22.987 17.853 13.667 37.88 24.747 59.28 33.04l.027.027" fill="#bfb7c2"/><path d="M2215.154 4145.443c-25.627-2.08-50.613-7.787-73.973-16.813l-.027-.027c23.36 9.04 48.36 14.76 74 16.827m-155.76-72.84c-11.733-16-19.32-34.773-23.84-54.867 4.533 20.107 12.12 38.893 23.84 54.867" class="B"/><path d="M2236.968 4146.309a269.64 269.64 0 0 1-21.813-.88c-25.64-2.067-50.64-7.787-74-16.827-21.4-8.293-41.427-19.373-59.28-33.04-8.787-6.72-16.213-14.44-22.48-22.973-11.72-15.973-19.307-34.76-23.827-54.867 2.013 1.8 4.08 3.547 6.253 5.173 42.84 32.787 98.146 50.773 155.08 50.773 49.24 0 99.68-13.44 144.36-42.387 100.906-65.347 99.813-289.359 109.826-359.386 3.973-27.827 21.293-92.68 40.84-161.08-7.56 65.4-18.627 173.386-14.867 221.239 1.4 17.44 2.413 44.773 1.667 77.053-.747 32.68-3.307 70.44-9.12 108.16h0c-2.253 14.627-5 29.24-8.307 43.56-14.107 60.933-38.6 116.32-79.986 143.12-3.347 2.173-6.733 4.253-10.147 6.253a262.17 262.17 0 0 1-43.573 20.373h0c-29.587 10.653-60.333 15.733-90.626 15.733" class="D"/><path d="M2498.554 3457.391h.067zm-248.879-314.506c-72.56 0-143.226 35.667-180.226 92.426-129.906 199.306 10.52 550.305 11.947 553.825 2.067 5.08 2.147 10.76.227 15.88-.773 2.04-75.613 205.093 13.48 273.239 77.146 59.027 189.986 62.08 274.373 7.413 88.32-57.187 91.68-278.773 85.906-351.879-5.573-70.546 19.013-259.799 21.427-278.119 1.72-67.773-7.8-126.64-28.293-174.973-33.893-79.946-99.333-129.853-179.533-136.96-6.427-.573-12.88-.853-19.307-.853zm-13.36 1025.211c-60.147 0-119.68-18.507-167.68-55.24-104-79.546-45.24-272.599-30.667-315.119-21.56-56.12-137.653-382.719-5.013-586.212 49.573-76.066 143.706-119.733 239.866-111.186 96.76 8.573 175.413 68.106 215.799 163.346 23.067 54.387 33.733 119.76 31.707 194.306-.027.76-.08 1.52-.187 2.28-.267 2.013-26.707 202.079-21.347 270.079.253 3.08 22.867 308.679-105.64 391.879-47.333 30.653-102.333 45.867-156.84 45.867" class="B"/><path d="M2796.086 3457.391c-10.56-388.852 337.946-401.812 447.359-233.973 137.813 211.426-10.027 573.932-10.027 573.932s82.533 219.279-20.64 298.213c-79.893 61.12-203.119 70.773-299.453 8.387-100.906-65.347-101.386-300.773-95.773-371.879 5.627-71.106-21.467-274.679-21.467-274.679" class="C"/><path d="M2817.833 3455.671c2.413 18.293 27.013 207.573 21.44 278.119-5.787 73.106-2.4 294.706 85.88 351.879 84.413 54.64 197.24 51.6 274.386-7.4 89.106-68.16 14.253-271.213 13.493-273.253-1.92-5.12-1.84-10.8.213-15.88 1.44-3.52 141.853-354.519 11.947-553.825-49.08-75.32-154.106-110.906-244.266-82.773-107.706 33.6-167.12 144.066-163.093 303.133m240.506 712.425c-54.52 0-109.506-15.2-156.853-45.867-128.48-83.186-105.893-388.799-105.64-391.879 5.373-68-21.08-268.066-21.347-270.079-.107-.76-.16-1.52-.187-2.28-6.973-256.519 133.093-328.146 193.64-347.039 109.866-34.253 233.399 8.013 293.733 100.573 132.64 203.493 16.547 530.092-5.013 586.212 14.573 42.52 73.333 235.573-30.667 315.133-47.987 36.707-107.546 55.227-167.666 55.227" class="B"/><path d="M3751.351 1990.222c132.733-560.159-164.52-1110.197-663.918-1228.53-499.412-118.333-1011.864 239.839-1144.597 799.998l85.68 20.307c120.146-507.092 584.052-831.331 1036.144-724.212s721.185 605.052 601.025 1112.144l85.666 20.293" class="C"/><path d="M3730.164 1985.208l-43.28-10.253v-.013l43.28 10.267" fill="#59aac7"/><path d="M3730.164 1985.208l-43.28-10.267h0a1086.1 1086.1 0 0 0 12.693-61.387l43.387 10.293c-3.68 20.44-7.947 40.867-12.8 61.347h0m-25.387-409.572c-24.093-162.146-86.266-311.999-178.666-435.079l16.827-21.227c89.946 129.8 146.813 287.306 161.84 456.306m-1529.596-371.026c94.053-149.12 222.733-266.559 369.012-340.466l5.6 26.96c-48.093 22.133-94.973 49.027-140.16 80.613-90.733 63.427-169.693 142.266-234.453 232.893" fill="#c3bac7"/><path d="M3751.377 2012.008a21.84 21.84 0 0 1-5.04-.587c-11.707-2.773-18.947-14.52-16.173-26.227 129.746-547.572-160.84-1086.931-647.758-1202.304-235.439-55.8-481.265-5.28-692.292 142.213-206.159 144.093-355.012 363.812-420.852 620.465l43.293 10.253c62.24-241.399 202.639-448.212 397.079-584.119 200.853-140.386 435.279-188.373 660.038-135.106 463.066 109.72 739.931 620.372 617.212 1138.344-2.773 11.707-14.533 18.947-26.213 16.173-11.707-2.773-18.947-14.507-16.173-26.213 117.186-494.599-145.186-981.744-584.865-1085.917-212.519-50.36-434.506-4.747-625.052 128.426-191.306 133.72-327.999 339.559-384.879 579.599l-5.013 21.2-128.066-30.347 5.027-21.187c65.427-276.133 222.933-513.105 443.506-667.265 221.346-154.72 479.639-207.586 727.292-148.906 510.305 120.906 815.398 683.785 680.105 1254.744-2.373 10.013-11.307 16.76-21.173 16.76" class="B"/><path d="M2129.408 1307.823l-125.133 452.639c-.947 3.4-1.653 6.84-2.12 10.28-5.24 38.373 18.72 75.946 57.04 86.546 41.72 11.533 85.32-13.16 96.853-54.88l125.12-452.626c11.547-41.76-13.173-85.333-54.907-96.866-20.84-5.76-42.173-2.48-59.747 7.48-14.653 8.307-26.693 21.253-33.6 37.493-1.4 3.173-2.56 6.493-3.507 9.933" fill="#ccc"/><path d="M1922.795 1402.37l-47.227 170.84c-22.96 83.066 26.2 169.786 109.253 192.746l17.333 4.787c.467-3.44 1.173-6.88 2.12-10.28l125.133-452.639c.947-3.44 2.107-6.76 3.507-9.933l-17.373-4.8c-83.053-22.96-169.786 26.227-192.746 109.28" class="J"/><path d="M3700.004 1679.982l-91.266 460.652c-.693 3.467-1.6 6.867-2.733 10.147-12.533 36.64-50.8 59.467-89.8 51.747-42.453-8.413-70.333-50.04-61.933-92.493l91.28-460.666c8.413-42.493 50.067-70.333 92.533-61.92 21.213 4.2 38.813 16.707 50.04 33.493 9.373 14 14.32 30.973 13.213 48.587-.187 3.467-.64 6.947-1.333 10.453" fill="#ccc"/><path d="M3606.031 2150.768l-2.573 6.533 84.466-426.212a76.13 76.13 0 0 0 1.293-10.453c1.107-17.64-3.827-34.6-13.173-48.6-11.227-16.8-28.853-29.293-50.067-33.48-36.613-7.267-72.64 12.467-87.28 45.333l6.867-34.507c8.413-42.507 50.067-70.346 92.52-61.947 21.213 4.2 38.787 16.72 50.067 33.52 9.347 14 14.267 30.973 13.187 48.56-.187 3.48-.627 6.947-1.307 10.453l-91.306 460.679c-.68 3.467-1.573 6.867-2.693 10.12" class="C"/><path d="M3531.445 2204.048c-5.04 0-10.133-.493-15.24-1.507-12.173-2.413-23.16-7.573-32.427-14.693 9.267 7.12 20.253 12.267 32.427 14.68a78.45 78.45 0 0 0 15.253 1.507c31.027 0 59.44-18.547 72.013-46.787l-.013.053c.947-2.12 1.8-4.32 2.573-6.533.84-2.453 1.56-4.987 2.147-7.56h0c-.587 2.573-1.307 5.107-2.147 7.56-10.893 31.84-41.24 53.28-74.586 53.28" class="K"/><g class="B"><path d="M3616.151 2103.208l14.187-71.613c.013-.027.027-.04.027-.053l-14.213 71.666m-158.094 50.253a79.54 79.54 0 0 1-3.227-10.44h0a80.17 80.17 0 0 0 3.227 10.44"/><path d="M3454.831 2143.021c-1.267-5.4-1.973-10.987-2.053-16.653a78.83 78.83 0 0 0 2.053 16.653h0"/></g><g fill="#2d1a3e"><path d="M3456.765 2097.408l51.32-258.973-51.293 258.919c-.013.013-.027.04-.027.053"/><path d="M3452.778 2126.368a78.51 78.51 0 0 1 1.48-16.347l2.507-12.613c0-.013.013-.04.027-.053l-2.52 12.68a78.18 78.18 0 0 0-1.48 16.32"/></g><path d="M3531.458 2204.034a78.45 78.45 0 0 1-15.253-1.507c-12.173-2.413-23.16-7.56-32.427-14.68-11.573-8.893-20.48-20.84-25.72-34.387a80.17 80.17 0 0 1-3.227-10.44 77.98 77.98 0 0 1-2.04-16.667 78.18 78.18 0 0 1 1.48-16.32l2.52-12.68 51.293-258.919 30.653-154.613c2.2-4.933 4.88-9.56 7.973-13.853l-60.347 304.573c-2.36 11.96 5.653 30.667 22.453 30.667 3.387 0 7.133-.76 11.213-2.493 34.08-14.413 46.64-89.466 57.827-89.466.12 0 .253.013.373.027 11.28 1.693-7.133 60.973 10.107 100.266 7.653 17.453 19.733 24.2 29.267 24.2 4.04 0 7.613-1.213 10.2-3.32l-24.333 122.826c-12.573 28.24-40.987 46.787-72.013 46.787m76.72-60.827a87.59 87.59 0 0 0 .547-2.56l21.613-109.053h0l-14.187 71.613-7.427 37.44-.547 2.56h0m-62.613-493.825c1.173-6 3.013-11.68 5.44-17.027a78.37 78.37 0 0 0-5.44 17.027m5.453-17.067" class="T"/><path d="M3603.458 2157.301l.013-.053 24.333-122.826c1-.813 1.853-1.76 2.533-2.827l-21.613 109.053-.547 2.56c-.587 2.573-1.307 5.107-2.147 7.56l-2.573 6.533m-64.72-473.479l6.827-34.44h0a78.37 78.37 0 0 1 5.44-17.027c0-.013.013-.027.013-.04 1.467-3.227 3.133-6.32 4.987-9.267l-9.293 46.92c-3.093 4.293-5.773 8.92-7.973 13.853" class="D"/><path d="M3842.23 1857.182l-34.453 173.866c-16.747 84.533-99.586 139.973-184.12 123.226l-17.653-3.493c1.133-3.28 2.04-6.68 2.733-10.147l91.266-460.652c.693-3.507 1.147-6.987 1.32-10.453l17.68 3.493c84.533 16.747 139.973 99.626 123.226 184.16" class="J"/><g class="C"><path d="M3807.764 2031.035c-1.56 7.8-3.64 15.373-6.307 22.667l29.693-149.853c16.76-84.533-38.68-167.4-123.213-184.16l-15.187-3.013 7.28-36.707c.68-3.507 1.12-6.973 1.307-10.453l17.653 3.493c84.546 16.76 139.973 99.626 123.213 184.173l-34.44 173.853m-1808.741-261.04l-.627 6.987 115.76-418.799c.973-3.44 2.133-6.733 3.533-9.92 6.933-16.267 18.947-29.213 33.587-37.533 17.573-9.96 38.92-13.213 59.76-7.44 35.987 9.933 59.32 43.733 57.653 79.666l9.36-33.92c11.56-41.76-13.187-85.32-54.893-96.866-20.84-5.773-42.16-2.467-59.787 7.493-14.627 8.32-26.653 21.267-33.573 37.48a75.95 75.95 0 0 0-3.52 9.92l-125.106 452.679c-.96 3.387-1.68 6.84-2.147 10.253"/><path d="M1872.475 1572.463c-2.107 7.667-3.64 15.373-4.547 23.08l40.707-147.226c22.96-83.066 109.68-132.253 192.76-109.293l14.907 4.12 9.973-36.08a75.95 75.95 0 0 1 3.52-9.92l-17.347-4.8c-83.066-22.96-169.786 26.227-192.746 109.306l-47.227 170.813"/></g><path d="M3623.644 2154.261l-17.613-3.493c1.12-3.253 2.013-6.653 2.693-10.12l91.306-460.679c.68-3.507 1.12-6.973 1.307-10.453l5 .987-70.493 355.692c-.68 3.507 21.613-80.373 20.48-77.066 0 0-1.107 86.64 52.573 94.053 37.6 5.2 85.013-27.36 114.6-91.56l-15.733 79.413c-16.76 84.546-99.586 139.986-184.12 123.226" class="U"/><path d="M2060.448 1857.622l-4.373-1.067c-36.133-10-59.493-44-57.653-80.013h0c-.013.147-.013.293-.027.44l.093-.333c.96 1.547 1.947 3.067 2.947 4.573-.013 34.533 22.947 66.44 57.76 76.066a34.37 34.37 0 0 0 1.253.333" class="K"/><path d="M2001.435 1781.222l-2.947-4.573 1.773-6.427 1.893.52a79.56 79.56 0 0 0-.72 10.48m-3.013-4.68h0l.56-6.16-.56 6.16" class="B"/><path d="M2076.888 1859.369c-5.44 0-10.947-.56-16.44-1.747l-1.253-.333c-34.813-9.627-57.773-41.533-57.76-76.066a79.56 79.56 0 0 1 .72-10.48h0c.467-3.44 1.173-6.88 2.12-10.28l28.573-103.386c4.707 5.627 16.64 9.573 29.147 9.573 8.12 0 16.48-1.667 23.28-5.6 30.36-17.587 43.747-87.88 54.24-87.88a1.83 1.83 0 0 1 .533.067c10.573 2.493-10.053 62.053.84 88.933 3.627 8.96 16.213 15.48 27.133 15.48 7.813 0 14.773-3.333 17.027-11.48l82.733-299.239c.84 5.213 1.16 10.56.907 15.947l-115.733 418.772c-9.64 34.787-41.547 57.733-76.066 57.72" class="T"/><path d="M2002.155 1770.742h0l-1.893-.52 31.64-114.466c.28.453.6.893.947 1.32l-28.573 103.386c-.947 3.4-1.653 6.84-2.12 10.28m-2.427-4.973a79.45 79.45 0 0 1 1.44-6.04l29.613-107.226v.067l-29.613 107.173a79.12 79.12 0 0 0-1.44 6.027" class="L"/><path d="M2278.394 1347.716a77.7 77.7 0 0 0 2.48-18c-.107 5.96-.907 11.987-2.48 18" class="T"/><path d="M1998.395 1776.982l.027-.44.56-6.16.053-.413.693-4.2 1.44-6.027 29.613-107.173c.12 1.093.507 2.16 1.12 3.187l-31.64 114.466-1.773 6.427-.093.333m270.293-394.106c.253-5.387-.067-10.733-.907-15.947l12.747-46.12a79.2 79.2 0 0 1 .347 8.907 77.7 77.7 0 0 1-2.48 18c-.107.44-.227.867-.347 1.307l-9.36 33.853" class="D"/><path d="M1981.728 1765.195l17.307 4.773c.467-3.4 1.187-6.853 2.133-10.253l125.106-452.666a76.84 76.84 0 0 1 3.52-9.933l-4.907-1.36-96.6 349.506c-.96 3.44 16.747-81.52 16.28-78.066 0 0-37.893 77.933-89.186 60.48-35.947-12.24-63.693-62.613-61.333-133.253l-21.573 78.026c-22.96 83.066 26.187 169.786 109.253 192.746" class="U"/><g class="B"><path d="M3622.764 1607.716c-26.627 0-50.48 18.813-55.84 45.893l-91.28 460.652c-6.093 30.787 14 60.8 44.8 66.893 27.907 5.533 55.773-10.56 64.947-37.427.827-2.373 1.48-4.827 1.987-7.347l91.266-460.652c.493-2.507.813-4.973.933-7.307.787-12.533-2.613-24.987-9.547-35.36-8.507-12.707-21.347-21.307-36.187-24.253-3.72-.733-7.427-1.093-11.08-1.093zm-91.386 618.078c-6.427 0-12.92-.613-19.4-1.893-54.36-10.787-89.826-63.76-79.066-118.106l91.28-460.652c10.76-54.36 63.693-89.813 118.12-79.066 26.253 5.213 48.96 20.387 63.92 42.76 12.227 18.267 18.213 40.307 16.84 62.067-.213 4.16-.787 8.747-1.707 13.32l-91.266 460.639c-.88 4.44-2.053 8.8-3.493 12.987-14.053 41.12-53.04 67.946-95.226 67.946"/><path d="M3632.311 2133.701c33.787 5.56 67.933-1.907 96.706-21.16 30.04-20.107 50.427-50.547 57.387-85.72l34.453-173.88c6.973-35.173-.253-71.093-20.36-101.146-19.267-28.787-48.013-48.707-81.333-56.453zm21.907 45.36a177.85 177.85 0 0 1-34.787-3.427l-42.12-8.333 8.093-23.6c.813-2.347 1.467-4.8 1.973-7.32l91.266-460.639c.493-2.52.813-4.987.933-7.32l1.28-25.16 42.387 8.4c46.587 9.227 86.88 36.187 113.466 75.906 26.56 39.72 36.12 87.253 26.88 133.84l-34.453 173.88c-9.227 46.587-36.187 86.88-75.893 113.453-29.827 19.973-64.08 30.32-99.026 30.32"/></g><path d="M3436.685 1161.104c-227.866-219.506-510.052-286.399-812.225-192.453-29.88 10.387-59.667-5.427-66.347-37.547l-20.267-97.493c-6.68-32.12 17.027-70.986 52.853-83.44 360.719-113.893 702.905-32.827 974.184 230.826 26.427 27.213 30.173 72.586 9.787 98.293l-61.853 78.026c-20.387 25.707-54.093 26.467-76.133 3.787" class="J"/><path d="M3587.564 1033.864c-1.053-18.973-8.693-38.467-22.68-52.867l-10.24-9.827 10.253 9.853c14 14.387 21.613 33.867 22.667 52.84" fill="#c2f6ff"/><g fill="#b8daff"><path d="M3575.751 1077.824c-1.84-17.6-9.333-35.32-22.267-48.653-67.333-65.427-139.04-119.626-214.293-162.373-5.547-21.64-30.347-44.987-64.707-58.267-17.12-6.613-34.147-9.773-49.24-9.773-9.253 0-17.76 1.187-25.12 3.507-98.413-35.987-201.559-54.147-307.946-54.147-101.8 0-206.533 16.627-312.893 50.213-17.533 6.12-32.173 18.547-41.76 33.44-5.493-31.72 18.053-69.373 53.173-81.586 106.333-33.587 211.106-50.227 312.879-50.227 239.119 0 461.919 91.773 651.065 271.213l10.24 9.827c13.987 14.4 21.627 33.893 22.68 52.867.907 16.213-2.987 32.027-11.813 43.96"/><path d="M3288.032 910.691c-15.093 0-32.133-3.173-49.24-9.787-45.173-17.453-73.8-52.28-63.933-77.786 3.827-9.92 12.92-16.973 25.267-20.853 7.36-2.32 15.867-3.507 25.12-3.507 15.093 0 32.12 3.16 49.24 9.773 34.36 13.28 59.16 36.627 64.707 58.267 1.747 6.8 1.587 13.427-.773 19.52-6.12 15.84-25.653 24.373-50.387 24.373"/></g><path d="M3574.671 1079.277l-61.853 78.013c-20.387 25.733-54.107 26.507-76.12 3.827-227.893-219.533-510.065-286.399-812.238-192.466-29.893 10.387-59.64-5.427-66.36-37.573l-20.227-97.466c-4.213-20.213 3.613-43.107 18.907-60.413l18.093 87.133c6.707 32.147 36.453 47.947 66.347 37.573 302.186-93.973 584.345-27.067 812.238 192.466 22.013 22.667 55.747 21.907 76.12-3.827l55.24-69.653c5.96 22.293 2.68 46.253-10.147 62.387" class="U"/><g class="B"><path d="M2886.393 905.171c207.946 0 400.026 80.946 565.399 240.253l.52.507c6.44 6.627 14.387 10.027 22.387 9.653 7.96-.4 15.24-4.48 21.04-11.8l61.867-78.026c12.573-15.853 11.667-48.973-8.347-69.573-263.173-255.773-601.412-335.932-951.998-225.239-26.547 9.227-42.2 38.427-38.08 58.24l20.267 97.48c1.893 9.147 6.573 16.067 13.52 20 6.96 3.947 15.627 4.44 24.333 1.413l.693-.227c91.68-28.507 181.453-42.68 268.399-42.68zm586.945 294.013c-19.28 0-37.613-7.947-52-22.627-222.266-213.959-495.465-278.693-790.105-187.213-20.613 7.067-41.813 5.373-59.733-4.773-17.92-10.16-30.24-27.573-34.707-49.04l-20.28-97.48c-8.933-43.053 21.747-92.72 67.026-108.453 183.933-58.08 362.986-67.026 532.812-26.787 169.84 40.24 325.853 128.586 463.719 262.573 33.84 34.827 38.987 92.986 11.68 127.44l-61.867 78.026c-13.627 17.173-32.44 27.213-53 28.24a62.97 62.97 0 0 1-3.547.093m-1343.928 108.64h.067zm75.96-35.973c-9.72 0-19.373 2.533-28.107 7.493-11.027 6.24-19.413 15.6-24.307 27.08a53.72 53.72 0 0 0-2.56 7.2h0l-125.12 452.639a54.72 54.72 0 0 0-1.533 7.387c-3.84 28.173 13.893 55.08 41.253 62.64 14.587 4.04 29.933 2.107 43.2-5.413 13.293-7.533 22.827-19.707 26.853-34.267l125.133-452.626c4.04-14.587 2.107-29.933-5.427-43.227-7.533-13.28-19.707-22.813-34.293-26.84a56.2 56.2 0 0 0-15.093-2.067zm-125.213 610.078c-8.933 0-17.933-1.2-26.773-3.653-48.28-13.347-79.586-60.84-72.8-110.48a98.38 98.38 0 0 1 2.707-13.147l125.12-452.626v.013c1.24-4.52 2.787-8.867 4.573-12.92 8.44-19.813 23.667-36.827 42.787-47.667 23.427-13.28 50.507-16.653 76.306-9.52 25.787 7.12 47.293 23.933 60.573 47.347s16.653 50.507 9.52 76.306l-125.12 452.639c-7.147 25.787-23.96 47.28-47.373 60.547-15.387 8.72-32.36 13.16-49.52 13.16"/><path d="M1943.795 1408.17l-47.227 170.853c-9.56 34.56-5.013 70.906 12.813 102.36 17.08 30.12 44.28 52.12 76.933 62.307l119.066-430.732c-70.346-16.987-142.173 24.973-161.586 95.213zm76.626 390.226l-41.413-11.453c-45.773-12.653-83.96-42.52-107.52-84.08-23.56-41.573-29.573-89.68-16.92-135.453l47.227-170.84c26.227-94.853 124.72-150.706 219.546-124.48l41.653 11.52-10.147 23.053c-.933 2.133-1.76 4.48-2.453 6.96l-125.12 452.639a54.72 54.72 0 0 0-1.533 7.387l-3.32 24.747m463.266 1539.689c-5.8 0-11.573-2.293-15.853-6.84-71.706-76.013-153.146-111.533-242.279-105.506-98.213 6.613-176.44 63.12-192.52 85.573-7.013 9.787-20.627 12.027-30.4 5.027-9.773-7.013-12.027-20.613-5.027-30.4 23.24-32.427 113.08-96.12 225.013-103.666 101.293-6.853 196.986 34.36 276.906 119.093 8.253 8.747 7.84 22.533-.907 30.787a21.7 21.7 0 0 1-14.933 5.933m325.866-.001a21.71 21.71 0 0 1-14.947-5.933c-8.747-8.253-9.16-22.04-.893-30.787 79.906-84.733 175.706-125.933 276.893-119.093 111.933 7.547 201.786 71.24 225.013 103.666 7 9.787 4.76 23.387-5.027 30.4-9.773 7.013-23.373 4.747-30.387-5.027-16.08-22.453-94.32-78.96-192.533-85.573-89.053-6.013-170.573 29.493-242.279 105.506-4.28 4.547-10.053 6.84-15.84 6.84"/></g><path d="M3058.406 4124.67c-46.24 0-92.986-12.933-133.253-39-88.28-57.173-91.666-278.773-85.88-351.879 1.707-21.64.573-54.453-1.88-90.066 2.587 11.453 4.493 21.027 5.507 28.173 10.027 70.026 8.933 294.039 109.826 359.386 44.68 28.947 95.133 42.387 144.373 42.387 47.613-.013 94.08-12.573 133.066-35.867-6.813 15.92-16.733 29.827-30.627 40.467-40.347 30.853-90.44 46.413-141.133 46.4" class="D"/><path d="M3057.019 4146.323c-49.24 0-99.693-13.44-144.36-42.347-100.906-65.347-101.4-300.799-95.733-371.919 3.76-47.853-7.293-155.84-14.867-221.239 14.533 50.853 27.827 99.733 35.333 132.906 2.453 35.613 3.587 68.426 1.88 90.066-5.787 73.106-2.4 294.706 85.88 351.879 40.267 26.067 87.013 39 133.253 39 50.693.013 100.786-15.547 141.133-46.4 13.893-10.64 23.813-24.547 30.627-40.467 7.64-4.56 14.987-9.547 22-14.907 2.187-1.64 4.253-3.373 6.267-5.173-6.92 30.827-21.08 58.533-46.28 77.866-42.88 32.773-98.186 50.733-155.133 50.733M1529.93 1006.851c19.6-8.28 30.373-43.213 21.693-68.586-9.267-27.067-33.813-43.44-55.72-40.093l34.027 108.68zm-89.04-282.879c3.08-3.493 5.227-5.587 6.973-7.973 15.813-21.533 27.493-44.987 32.84-71.32 2.627-12.947 2.96-25.853-1.427-38.6-3.453-10.04-11.227-13.147-20.64-8.013-6.573 3.587-10.987 9.333-13.733 16-11.427 27.6-15.6 56.253-10.573 85.866 1.32 7.693 4.093 15.147 6.56 24.04zm5.733 84.173c-1.693 1.613-2.84 2.467-3.68 3.547-12.187 15.707-24.893 31.04-36.333 47.253-11.64 16.52-19.6 34.893-22.973 55.067-4.093 24.48-1.107 47.507 12.8 68.64 23.6 35.867 70.306 49.587 109.253 35.587 4.227-1.52 5.333-2.8 3.92-7.32l-30.133-97.586-3.573-11.267c-9.347 5.307-15.907 12.347-20.853 20.813-8.347 14.253-8.547 28.507.133 42.933 5.787 9.613 13.533 16.24 24.4 19.32 4.507 1.28 7.147 5.24 6.427 8.827-.733 3.613-5.24 6.107-9.893 5.453-32.147-4.493-59.613-35.573-59.147-67.64.467-32.373 13.413-58.44 40.587-76.893 1.133-.773 2.427-2.867 2.133-3.907l-13.067-42.827zm26.413 361.826c4.827 1.013 9.64 2.84 14.467 2.893 19.52.187 35.267-7.907 46.387-23.853 6.667-9.547 6.84-20.933 6.267-32.2-1.013-19.72-8.44-37.76-14.667-56.12l-8.347-23.76c-5 1.173-9.84 2.52-14.773 3.427-46.773 8.52-86.093-6.027-118.72-39.52-21.867-22.44-34.827-49.64-38.773-80.786-3.333-26.253 1.973-51.347 11.853-75.56 10.307-25.253 24.907-47.96 41.587-69.413l24.813-31.507c2.133-2.64 2.587-4.773 1.36-8.12-11.667-32.053-19.773-64.813-19.213-99.24.427-26.04 4.16-51.347 16.24-74.866 5.12-9.947 12.253-18.147 21.187-24.853 8.933-6.693 13.84-6.667 21.76 1.08 14 13.693 24.333 30 30.84 48.307 25.733 72.48 16.373 139.866-30.267 201.613-1.107 1.467-1.68 4.173-1.16 5.893l15.24 48.747c.8 2.587 1.813 3.587 4.72 3.04 37.773-7.027 66.573 7.653 86.16 39.08 21.533 34.56 24.347 71.173 4.427 107.933-7.693 14.2-19.413 24.707-33.48 32.48-3.32 1.84-3.947 3.667-2.813 7.16l19.227 61c3.573 11.92 5.933 24.213 4.84 36.733-2.373 27.027-16.413 46.427-41 57.04-29.947 12.92-59.013 10.48-84.64-10.773-20.333-16.853-23.387-48.24-8.053-69.76 18.293-25.693 54.08-22.747 67.786 5.773 12.467 25.92-.787 49.467-21.44 55.88-.56.173-1.067.493-1.587.747l-.227 1.507m2943.125 309.85l-105.88-9.56-88.813-7.987c-15.413-1.387-29.68 8.28-34.067 23.12l-48.227 161.933c-.08.267-.2.773-.28 1.04-.2.733-.64.867-1.507.547-5.827-2.187-11.867-3.507-18.04-4.147-20.947-2.147-40.667 1.587-58.64 12.867-9.653 6.053-17.253 14-21.32 24.92-.547.96-.653 2.067-1.027 3.08-2.76 8.693-1.147 16.92 3.16 24.6 4.387 7.813 11.053 13.44 18.84 17.787 2.72 1.52 5.653 2.507 8.467 3.8l2.733.64c.613.04 1.173.387 1.773.493 1.507.547 3.16.667 4.52 1.64l2.187.4c.2-.04.36.053.48.267l.68.2c.187-.36.467-.2.747-.147 12.253 2.493 24.533 2.507 36.787.08 13.973-2.773 26.533-8.48 36.867-18.507 6.2-6.013 10.627-13.053 13.107-21.507l51.72-176.2c.48-1.613 1.053-2.147 2.8-1.973l58.12 5.733 92.24 8.907c1.547.147 1.467.573 1.12 1.76l-11.04 37.293-26.84 91.093c-.387 1.293-.747 1.64-2.093 1.08-4.267-1.787-8.72-3.04-13.253-3.867-20.027-3.68-39.373-1.507-57.84 7.187-10.133 4.76-18.853 11.373-25.173 20.8-8.76 13.08-8.413 28.387 1 40.627 6.533 8.48 15.293 13.893 25.187 17.533 16.08 5.893 32.573 6.627 49.267 3.387 14.333-2.787 27.493-8.227 38.56-18 6.547-5.773 11.147-12.707 13.667-21.28l62.493-211.519c2.533-8.573-3.413-17.307-12.307-18.107l-.173-.013m-507.12 1148.17c-.987-2.053-2.16-4.013-3.36-5.96a126.21 126.21 0 0 0-6.6-11.2c-1.52-2.453-3.187-4.8-4.973-7.053-15.493-20.507-40.36-41.48-80.066-58.547l-16.307-10.68c-6.08-3.787-11.813-7.947-16.88-13l-25.147-25.253c-4.053-4.053-10.04-4.467-15.573-1.187-5.013 2.96-6.88 7.773-5.28 13.507l38.173 136.466a5.66 5.66 0 0 0-.44.133l7.213 25.16 30.467 112.786c1.413 5.267 1.56 10.787.24 16.187-1.16 4.773-4.027 7.16-8.88 7.547-1.053.093-2.107.067-3.16-.013-12.867-.88-25.467.653-37.773 4.427-24.92 7.64-44.613 22.84-60.347 43.133-11.613 14.973-17.4 32.293-16.573 51.44.453 10.533 2.907 20.627 8.987 29.453 8.373 12.147 20.52 18.267 34.627 21 8.12 1.573 16.2.893 24.387.173 17.48-1.56 33.16-7.613 47.587-17.373 8.773-5.933 16.333-13.2 23.747-20.707 10.04-10.173 19.28-20.96 25.827-33.787 7.827-15.307 10.293-31.133 5.56-48l-33.773-121.893-19.52-69.746-9.04-32.56c-.96-3.467-2.253-6.853-2.827-10.373-.453-2.747-.533-5.733.067-8.44 1.467-6.573 8.147-10.427 15.773-9.547a32.28 32.28 0 0 1 3.773.667c-1.24-.24-2.507-.467-3.773-.667 0 0 64.76 25.92 91.12 97.56.787 5.107 3.027 9.56 7.187 12.8 2.72 2.12 5.773 2.72 8.84.907 3.333-1.947 5.427-4.92 5.76-8.813 0 0 2.093-10.547-.133-26.52-1.187-11.053-3.96-21.787-8.907-32.027" class="B"/><defs ><path id="B" d="M3190.659 3806.844c0 32.133-26.053 58.187-58.187 58.187s-58.187-26.053-58.187-58.187 26.053-58.173 58.187-58.173 58.187 26.04 58.187 58.173"/><path id="C" d="M2693.967 3889.443c-12.027 0-21.787-9.747-21.787-21.773v-113.653c0-12.027 9.76-21.773 21.787-21.773s21.787 9.747 21.787 21.773v113.653c0 12.027-9.76 21.773-21.787 21.773"/><path id="D" d="M2332.141 3594.537l5.973-69.8h-18.147l5.973 69.8c.333 3.787 5.88 3.787 6.2 0"/><path id="E" d="M2398.421 3594.537l5.973-69.8h-18.147l5.973 69.8c.32 3.787 5.88 3.787 6.2 0"/><path id="F" d="M1986.928 4371.429l-.387-3.76a72.78 72.78 0 0 0-1.747-9.173 74.73 74.73 0 0 1 1.76 9.2l.373 3.733"/><path id="G" d="M1690.702 4170.176c0 9.147-7.413 16.56-16.573 16.56-9.147 0-16.56-7.413-16.56-16.56s7.413-16.56 16.56-16.56c9.16 0 16.573 7.413 16.573 16.56"/><path id="H" d="M2164.088 4170.176c0 9.147-7.413 16.56-16.56 16.56-9.16 0-16.573-7.413-16.573-16.56s7.413-16.56 16.573-16.56c9.147 0 16.56 7.413 16.56 16.56"/><path id="I" d="M3204.245 4170.176c0 9.147-7.413 16.56-16.56 16.56s-16.56-7.413-16.56-16.56 7.413-16.56 16.56-16.56 16.56 7.413 16.56 16.56"/><path id="J" d="M3677.644 4170.176c0 9.147-7.427 16.56-16.573 16.56s-16.56-7.413-16.56-16.56 7.413-16.56 16.56-16.56 16.573 7.413 16.573 16.56"/></defs></svg>