<?xml version="1.0" encoding="UTF-8" standalone="no"?>
<!-- Created with Inkscape (http://www.inkscape.org/) -->

<svg
   version="1.1"
   id="svg1"
   width="5333.3335"
   height="5333.3335"
   viewBox="0 0 5333.3335 5333.3335"
   sodipodi:docname="6100_9_02.eps"
   xmlns:inkscape="http://www.inkscape.org/namespaces/inkscape"
   xmlns:sodipodi="http://sodipodi.sourceforge.net/DTD/sodipodi-0.dtd"
   xmlns="http://www.w3.org/2000/svg"
   xmlns:svg="http://www.w3.org/2000/svg">
  <defs
     id="defs1" />
  <sodipodi:namedview
     id="namedview1"
     pagecolor="#ffffff"
     bordercolor="#000000"
     borderopacity="0.25"
     inkscape:showpageshadow="2"
     inkscape:pageopacity="0.0"
     inkscape:pagecheckerboard="0"
     inkscape:deskcolor="#d1d1d1" />
  <g
     id="g1"
     inkscape:groupmode="layer"
     inkscape:label="1">
    <g
       id="group-R5">
      <path
         id="path2"
         d="M 0,0 H 40000 V 40000 H 0 Z"
         style="fill:none;fill-opacity:1;fill-rule:nonzero;stroke:none"
         transform="matrix(0.13333333,0,0,-0.13333333,0,5333.3333)" />
      <path
         id="path3"
         d="m 20836.2,5662.6 c -7708.2,0 -13956.86,637.3 -13956.86,1423.4 0,300 910.16,578.3 2464.27,807.8 -54.94,-220.6 -41.59,-492.4 164.18,-741.4 256.39,-310.2 772.61,-319.7 830.81,-319.8 h 1614.6 c 5,0 10,0.3 14.9,0.7 20.9,2 513.9,55.5 703.1,599.4 24.1,69.2 50.6,335.3 82.5,813.8 78.7,5.7 157.6,11.3 237.6,16.8 8.3,-400 29,-679.3 80.2,-826.5 189.2,-543.9 682.2,-597.4 703.1,-599.4 5,-0.5 10,-0.7 15,-0.7 h 1404.2 c 43.3,-2.1 125.2,-5.3 228.8,-5.3 333.2,0 891.3,32.5 1112.3,235.7 294.4,270.7 319.9,700.7 60.5,1022.6 -117.7,145.9 -286.6,238.7 -401.9,289.2 2,15.3 4.2,32 6.5,50 1450.4,52 3011.2,80.4 4636.2,80.4 177.3,0 354.1,-0.3 529.8,-1 45.5,-72.4 93.1,-144.8 143,-217.4 594,-864.4 1285.7,-1433.9 1314.9,-1457.7 23.2,-19 51.4,-30.9 81.2,-34.3 9.4,-1.1 19.6,-1.6 30.3,-1.6 74,0 175.1,27.2 254.8,106.8 110.7,110.6 153.1,288.6 126.1,529 -10.2,90.9 -24,199.7 -39.3,320.6 -25.8,203.5 -58.9,464.5 -85.1,735.4 1080.6,-18.7 2118.8,-50.1 3099.5,-92.6 293.2,-869.3 691.8,-1442.9 691.8,-1442.9 0,0 377.9,543.7 668.4,1374.7 1133.6,-64.8 2169.6,-145.3 3079.5,-238.6 -14.5,-122.1 -28.9,-236 -41.6,-336 -15.4,-120.9 -29.1,-229.7 -39.4,-320.6 -27,-240.4 15.5,-418.4 126.2,-529 79.7,-79.6 180.8,-106.8 254.7,-106.8 10.8,0 20.9,0.5 30.3,1.6 29.8,3.4 58,15.3 81.3,34.3 24.7,20.1 524.5,431.6 1037.7,1082.1 1644.2,-233.5 2612.7,-519.9 2612.7,-829.3 0,-786.1 -6248.7,-1423.4 -13956.8,-1423.4"
         style="fill:none;fill-opacity:1;fill-rule:nonzero;stroke:none"
         transform="matrix(0.13333333,0,0,-0.13333333,0,5333.3333)" />
      <path
         id="path4"
         d="m 28698.6,10554.9 c 0,0 1766.1,106.6 2164.4,-615.8 248.4,-450.7 11.7,-1904.9 -57.8,-2523.4 -55.4,-494.7 238.6,-461.6 238.6,-461.6 0,0 1367.5,1117.2 1888.1,2574.6 l 0.3,0.3 c 222.6,623.3 290.6,1308.6 30.5,1995.4 -264.8,700.6 -825.5,1145 -1408.5,1426.9 -901.6,435.8 -1857.6,481.9 -1857.6,481.9 l -998,-2878.3"
         style="fill:#f73939;fill-opacity:1;fill-rule:nonzero;stroke:none"
         transform="matrix(0.13333333,0,0,-0.13333333,0,5333.3333)" />
      <path
         id="path5"
         d="m 28698.6,10554.9 c 0,0 1766.1,106.6 2164.4,-615.8 248.4,-450.7 11.7,-1904.9 -57.8,-2523.4 -55.4,-494.7 238.6,-461.6 238.6,-461.6 0,0 1367.5,1117.2 1888.1,2574.6 -22.7,-23.5 -859.1,-889.2 -1375.7,-602.2 -269.8,149.8 -107.4,767.1 -316.4,1314.8 -209.1,548 -235.9,1148.6 -40.9,1701.8 l 355.3,1008.2 c -901.6,435.8 -1857.6,481.9 -1857.6,481.9 l -998,-2878.3"
         style="fill:#d82345;fill-opacity:1;fill-rule:nonzero;stroke:none"
         transform="matrix(0.13333333,0,0,-0.13333333,0,5333.3333)" />
      <path
         id="path6"
         d="m 28969.6,10718.2 c 546.6,0 1685.2,-78 2030.1,-703.5 218.8,-396.7 124.7,-1314.5 -0.3,-2300.3 -15.1,-119.3 -28.7,-226.6 -38.8,-316.2 -21.6,-192.2 20.8,-255.9 34.3,-270.8 1.7,-1.9 3.4,-3.6 5.2,-5.1 380.3,332.7 2568.1,2361.4 1816.5,4346.9 -551.7,1457.7 -2513.9,1747.9 -3012,1798.4 L 28920.5,10718 c 15.8,0.2 32.2,0.2 49.1,0.2 M 31031,6797.3 c -73.9,0 -175,27.2 -254.7,106.8 -110.7,110.6 -153.2,288.6 -126.2,529 10.3,90.9 24,199.7 39.4,320.6 78.4,618.5 224.4,1769.7 36.7,2110.1 -287.2,520.7 -1554.2,562.9 -2018.2,535.1 -51.8,-3.4 -102.3,20 -133.9,61.6 -31.4,41.6 -40.1,96.2 -23,145.5 l 998,2878.5 c 22.7,65.5 85.8,109.3 155.1,104.9 110,-5.4 2701.3,-151.5 3404.6,-2009.7 373.8,-987.6 148.6,-2124.9 -651.3,-3288.8 -594.1,-864.4 -1285.8,-1433.9 -1314.9,-1457.7 -23.3,-19 -51.5,-30.9 -81.3,-34.3 -9.4,-1.1 -19.5,-1.6 -30.3,-1.6"
         style="fill:#371a45;fill-opacity:1;fill-rule:nonzero;stroke:none"
         transform="matrix(0.13333333,0,0,-0.13333333,0,5333.3333)" />
      <path
         id="path7"
         d="m 32654,10405.7 c 0,0 -496.2,840.7 -606.4,1800.8 0,0 753.4,-652.3 606.4,-1800.8"
         style="fill:#fdc3c3;fill-opacity:1;fill-rule:nonzero;stroke:none"
         transform="matrix(0.13333333,0,0,-0.13333333,0,5333.3333)" />
      <path
         id="path8"
         d="m 11641.2,19834.5 58.2,-807.4 29.8,-411.2 511.8,-7092.1 c 0,0 -485.5,-7.5 -1137.4,34.9 -127.5,8.3 -261.4,18.4 -399.3,30.9 -1027.26,92.5 -2274.45,314.5 -2748.03,842.5 -707.9,789.7 -825.98,4645.3 -193.9,6174.1 289.5,700.9 1760.9,1006.1 2805.83,1136 116.7,14.8 228.3,27.1 332.1,37.4 437.9,44.3 740.9,54.9 740.9,54.9"
         style="fill:#ffffff;fill-opacity:1;fill-rule:nonzero;stroke:none"
         transform="matrix(0.13333333,0,0,-0.13333333,0,5333.3333)" />
      <path
         id="path9"
         d="m 9432.65,11930.4 c -584.94,127.1 -1102.26,318.4 -1360.04,605.9 -91.95,102.5 -173.13,264.6 -243.19,471.7 191.23,-116 417.57,-174 642.28,-174 270.15,0 537.87,83.9 738.97,251.8 90.62,75.7 159.3,174 210.31,287.7 2.48,-432.5 6.66,-930.3 11.67,-1443.1 m 66.61,2809.7 c -18.6,126.1 -40.43,243.8 -61.93,347.2 -34.67,166.7 -163.85,294.8 -325.88,331.5 -3.44,382.4 17.87,786.7 81.11,1189.8 213.42,-35.2 412.21,-57 587.41,-70.1 -138.41,-555.1 -255.06,-1188.1 -280.71,-1798.4 m -1987.24,744 c -3.05,237.6 -0.25,476.9 8.55,713.4 16.69,-242.5 39.95,-478 69.57,-700.7 -26.43,-1.8 -52.59,-6.1 -78.12,-12.7"
         style="fill:#c5bdc9;fill-opacity:1;fill-rule:nonzero;stroke:none"
         transform="matrix(0.13333333,0,0,-0.13333333,0,5333.3333)" />
      <path
         id="path10"
         d="m 11496.4,19671.6 c -1016,-53.7 -3262.66,-333.6 -3589.89,-1124.9 -600.75,-1453.1 -495.21,-5272.8 166.1,-6010.4 700.19,-781 3314.39,-851.6 4000.69,-856.5 l -576.9,7991.8 m 630.6,-8304.8 c -623.4,0 -3470.97,50.8 -4287.01,961 -745.46,831.5 -882.49,4741.1 -222.15,6338.2 211.73,512.1 961.17,890.3 2227.49,1123.9 913.27,168.5 1755.07,199.4 1790.47,200.6 l 150.4,5.2 622.7,-8625.6 -165.3,-2.6 c -13.1,-0.2 -53.4,-0.7 -116.6,-0.7"
         style="fill:#371a45;fill-opacity:1;fill-rule:nonzero;stroke:none"
         transform="matrix(0.13333333,0,0,-0.13333333,0,5333.3333)" />
      <path
         id="path11"
         d="m 7632.9,15341.2 1396.48,-68.2 c 124.67,-6.1 229.61,-95.3 255.03,-217.5 93.1,-447.5 254.46,-1492.2 -173.84,-1849.8 -355.5,-296.8 -945.77,-278.5 -1298.77,4.8 -394.88,316.9 -459.49,1344 -466.54,1853.1 -2.19,158.3 129.54,285.3 287.64,277.6"
         style="fill:#ffffff;fill-opacity:1;fill-rule:nonzero;stroke:none"
         transform="matrix(0.13333333,0,0,-0.13333333,0,5333.3333)" />
      <path
         id="path12"
         d="m 8472.11,13145.9 c -202.57,0 -407.8,62.2 -562.56,186.4 -109.29,87.7 -200.27,266.9 -268.45,518.4 16.59,-18.6 33.64,-35.9 51.13,-52 207.91,-191.7 397.75,-259.9 562.62,-259.9 406.33,0 661.04,414.1 661.04,414.1 0,0 96.12,-193 168.95,-202.2 6,-0.7 11.86,-1.1 17.57,-1.1 49.6,0 87.91,28.2 117.07,77.2 -27.5,-223.2 -92.35,-403.8 -209.03,-501.2 -143.68,-119.9 -339.73,-179.7 -538.34,-179.7"
         style="fill:#c5bdc9;fill-opacity:1;fill-rule:nonzero;stroke:none"
         transform="matrix(0.13333333,0,0,-0.13333333,0,5333.3333)" />
      <path
         id="path13"
         d="m 7619.31,15185.4 c -30.76,0 -59.67,-11.7 -81.91,-33.2 -23.66,-22.8 -36.43,-53.5 -35.96,-86.5 12.35,-890.2 164.92,-1538.2 408.11,-1733.4 306.49,-245.9 810.67,-248.9 1100.9,-6.7 297.99,248.8 257.91,1040.3 121.01,1698 -10.86,52.4 -56,90.8 -109.73,93.4 l -1396.44,68.2 c -2,0.1 -4,0.2 -5.98,0.2 M 8471.7,12834 c -271.85,0 -546.11,84.9 -757.66,254.7 -415.92,333.8 -515.05,1257 -524.95,1972.7 -1.64,118.3 46.21,233.4 131.3,315.6 85.12,82.2 202.14,126.3 320.13,120.2 l 1396.47,-68.2 c 195.87,-9.6 360.5,-150.1 400.34,-341.7 119.99,-576.7 250.1,-1603.5 -226.66,-2001.5 -201.1,-167.9 -468.82,-251.8 -738.97,-251.8"
         style="fill:#371a45;fill-opacity:1;fill-rule:nonzero;stroke:none"
         transform="matrix(0.13333333,0,0,-0.13333333,0,5333.3333)" />
      <path
         id="path14"
         d="m 8359.57,13113.4 c 458,282.6 516.44,896.5 493.48,1389.3 -5.21,78.4 -13.41,161.1 -32.75,230 -13.15,49 58.9,73.7 78,25.6 81.88,-239.4 93.86,-481.5 98.74,-730.9 5.76,-431 -139.12,-916.9 -520.09,-1164.9 -178.95,-97.5 -307.29,175.7 -117.38,250.9"
         style="fill:#371a45;fill-opacity:1;fill-rule:nonzero;stroke:none"
         transform="matrix(0.13333333,0,0,-0.13333333,0,5333.3333)" />
      <path
         id="path15"
         d="m 9860.07,18688.5 c -666.07,14.2 -1358.87,26.6 -2008.36,-128.4 -199.66,-49 -279.94,242.6 -81.89,301.8 528.94,96 1056.73,65.7 1586.88,33.8 172.52,-12.5 343.64,-27.2 516.41,-46.7 44.21,-5 76,-44.8 71.02,-89.1 -4.76,-42.5 -41.99,-73.5 -84.06,-71.4"
         style="fill:#371a45;fill-opacity:1;fill-rule:nonzero;stroke:none"
         transform="matrix(0.13333333,0,0,-0.13333333,0,5333.3333)" />
      <path
         id="path16"
         d="m 12898,14149.4 c -29.4,-443.1 -89.4,-1794.4 -155,-3166.7 -79.1,-1658.2 -166.4,-3346.9 -219.3,-3498.8 -158.6,-455.5 -570.5,-495.2 -570.5,-495.2 h -1614.5 c 0,0 -493.52,0.7 -710.63,263.2 -356.56,431.4 6.03,900.8 6.03,900.8 0,0 -27.32,1956.2 -45.06,3746.7 -7.45,769.6 -13.12,1508.9 -14.19,2048.9 l 3323.15,201.1"
         style="fill:#ffffff;fill-opacity:1;fill-rule:nonzero;stroke:none"
         transform="matrix(0.13333333,0,0,-0.13333333,0,5333.3333)" />
      <path
         id="path17"
         d="m 12532.6,10976 c -1073.1,0 -1969.3,519.3 -2786.62,860 -4.53,456.7 -8.46,903.7 -11.16,1306.4 35.96,-80.8 76.49,-158.2 121.9,-231.6 16.21,-25.1 39.74,-35.7 63.15,-35.7 13.68,0 27.31,3.6 39.4,10.1 476.73,-848.3 1520.23,-1353.2 2646.73,-1496.3 -6.4,-135.6 -13,-273.5 -19.6,-412.4 -18,-0.3 -35.9,-0.5 -53.8,-0.5"
         style="fill:#c5bdc9;fill-opacity:1;fill-rule:nonzero;stroke:none"
         transform="matrix(0.13333333,0,0,-0.13333333,0,5333.3333)" />
      <path
         id="path18"
         d="m 11943.4,7145 h -1604.3 c -117.3,0.6 -451.99,38.8 -590.52,206.4 -110.83,134.1 -131.31,274.1 -116.06,393.8 260.07,-167.4 635.58,-168 635.58,-168 h 1749.4 c 0,0 202.7,19.6 387.5,183.4 -10.7,-117 -20.4,-195.2 -28.8,-225.3 -114.6,-329.3 -390.4,-383.8 -432.8,-390.3"
         style="fill:#c5bdc9;fill-opacity:1;fill-rule:nonzero;stroke:none"
         transform="matrix(0.13333333,0,0,-0.13333333,0,5333.3333)" />
      <path
         id="path19"
         d="m 11953.2,6832.6 h -1614.6 c -58.2,0.1 -574.42,9.6 -830.81,319.8 -320.14,387.3 -174.54,830.1 -30.6,1048.8 -6.49,471.6 -55.56,4080 -58.52,5746.6 -0.14,86.3 69.66,156.3 155.94,156.5 h 0.27 c 86.15,0 156.05,-69.7 156.2,-155.9 3.12,-1774.3 58.62,-5753.7 59.18,-5793.7 0.49,-35.3 -10.99,-69.8 -32.6,-97.7 -11.1,-14.7 -279.98,-377.8 -9.08,-705.6 138.53,-167.6 473.22,-205.8 590.52,-206.4 h 1604.3 c 42.4,6.5 318.2,61 432.8,390.3 59.8,212.9 182.5,2840.1 263.7,4578.5 43.3,925.6 80.7,1725 102.1,2046.2 5.7,86 80.4,151.3 166.2,145.4 86.1,-5.7 151.3,-80.2 145.5,-166.2 -21.3,-318.1 -58.5,-1116.1 -101.7,-2040 -141.2,-3020.6 -219.2,-4489.4 -280.8,-4666.5 -189.2,-543.9 -682.2,-597.4 -703.1,-599.4 -4.9,-0.4 -9.9,-0.7 -14.9,-0.7"
         style="fill:#371a45;fill-opacity:1;fill-rule:nonzero;stroke:none"
         transform="matrix(0.13333333,0,0,-0.13333333,0,5333.3333)" />
      <path
         id="path20"
         d="m 16473.7,7991.6 c 188.7,-233.8 213.9,-571.9 -44.4,-809.6 -258.6,-237.7 -1231.7,-189.1 -1231.7,-189.1 h -1408.1 c 0,0 -411.9,39.8 -570.5,495.3 -122.8,353.4 -50,1812.2 -94,3477.8 -9.2,353.8 -23.8,716.7 -46.5,1080.3 l 3540.6,1724.9 c -54.9,-649.6 -115.3,-1285.3 -176.3,-1881 -208.6,-2044.9 -420.4,-3613.3 -420.4,-3613.3 0,0 289.5,-84.5 451.3,-285.3"
         style="fill:#ffffff;fill-opacity:1;fill-rule:nonzero;stroke:none"
         transform="matrix(0.13333333,0,0,-0.13333333,0,5333.3333)" />
      <path
         id="path21"
         d="m 15408,7144.1 c -71.5,0 -140.1,1.7 -202.6,4.8 -2.5,0.1 -5.2,0.2 -7.7,0.2 h -1397.9 c -46.1,7.2 -319.4,63 -433.2,390.3 -9,25.8 -16.8,60.1 -23.6,102 110,-48.4 193.6,-56.5 193.6,-56.5 h 1592 c 0,0 92.1,-4.5 230,-4.5 301.2,0 821.3,21.8 1079.1,160.8 50.4,-143.6 31.7,-310 -114.2,-444.1 -120.8,-111.2 -555.6,-153 -915.5,-153"
         style="fill:#c5bdc9;fill-opacity:1;fill-rule:nonzero;stroke:none"
         transform="matrix(0.13333333,0,0,-0.13333333,0,5333.3333)" />
      <path
         id="path22"
         d="m 13281.4,10966.2 c -3.3,125.8 -7.3,252.7 -12,380.4 2.5,0 5.2,0 7.7,0 1084.7,0.1 2158.5,330.7 2804.3,1007.6 14.9,-13.9 34.2,-21 53.6,-21 18.1,0 36.4,6.2 51.2,19 57.4,49.2 111.2,102.6 161.5,159.3 -22.5,-231.7 -45.3,-459.1 -68.1,-680.8 -195.2,-74.9 -408.4,-169.7 -636.8,-289.9 -914.9,-482.2 -1880.6,-566.3 -2361.4,-574.6"
         style="fill:#c5bdc9;fill-opacity:1;fill-rule:nonzero;stroke:none"
         transform="matrix(0.13333333,0,0,-0.13333333,0,5333.3333)" />
      <path
         id="path23"
         d="m 15422.6,6831.4 c -103.6,0 -185.5,3.2 -228.8,5.3 h -1404.2 c -5,0 -10,0.2 -15,0.7 -20.9,2 -513.9,55.5 -703.1,599.4 -85.8,246.5 -85.9,863.8 -86,1798 -0.1,803.6 -0.3,1803.7 -62.9,2801.6 -5.4,86.1 60,160.2 146.1,165.6 85.8,5.2 160.3,-60 165.7,-146.1 63.2,-1007.6 63.4,-2013.1 63.5,-2821 0.1,-804.2 0.2,-1498.7 68.7,-1695.5 113.8,-327.3 387.1,-383.1 433.2,-390.3 h 1397.9 c 2.5,0 5.2,-0.1 7.7,-0.2 377.4,-18.6 973.3,15 1118.1,148.2 202.1,185.8 160,433.5 28.6,596.6 -128,158.8 -371.3,232.6 -373.7,233.3 -73.8,21.9 -121,94.5 -110.7,170.8 3.5,26.1 355.2,2644.2 595.9,5486.5 7.2,85.9 83,149.8 168.8,142.4 86,-7.3 149.7,-82.9 142.5,-168.8 -211.8,-2500 -509.1,-4827.2 -581.4,-5379 115.3,-50.5 284.2,-143.3 401.9,-289.2 259.4,-321.9 233.9,-751.9 -60.5,-1022.6 -221,-203.2 -779.1,-235.7 -1112.3,-235.7"
         style="fill:#371a45;fill-opacity:1;fill-rule:nonzero;stroke:none"
         transform="matrix(0.13333333,0,0,-0.13333333,0,5333.3333)" />
      <path
         id="path24"
         d="m 14500.9,9620.8 c -750.1,0 -1349.2,121.8 -1392.6,130.9 -84.5,17.6 -138.6,100.3 -121,184.7 17.5,84.5 100.2,138.5 184.7,121.1 17.8,-3.7 1800.5,-365.2 3022,174.3 78.8,35 171.2,-0.8 206,-79.7 34.9,-79 -0.8,-171.1 -79.7,-206 -572.4,-252.8 -1240.8,-325.3 -1819.4,-325.3"
         style="fill:#371a45;fill-opacity:1;fill-rule:nonzero;stroke:none"
         transform="matrix(0.13333333,0,0,-0.13333333,0,5333.3333)" />
      <path
         id="path25"
         d="m 11299.6,9865.6 c -1043.6,0 -1709.44,239.6 -1747.99,253.8 -80.91,29.9 -122.31,119.7 -92.43,200.7 29.86,80.8 119.51,122.2 200.44,92.4 12.5,-4.5 1269.98,-453.5 3017.98,-91.4 84.3,17.7 167.1,-36.8 184.6,-121.2 17.5,-84.5 -36.8,-167.2 -121.3,-184.7 -531.5,-110.1 -1017.6,-149.6 -1441.3,-149.6"
         style="fill:#371a45;fill-opacity:1;fill-rule:nonzero;stroke:none"
         transform="matrix(0.13333333,0,0,-0.13333333,0,5333.3333)" />
      <path
         id="path26"
         d="m 9533.9,8272.3 c 506.7,370.8 1668.7,161.7 2273.9,87.9 97.4,-15.4 82.6,-161.1 -17,-155.3 -182.9,13.3 -365.7,24.7 -548.1,32.1 -400.8,13.5 -811.9,22.4 -1201.4,-65.8 -108.75,-26.8 -237.47,-74.8 -312.59,-143.2 -165.43,-133.1 -361.87,112 -194.81,244.3"
         style="fill:#371a45;fill-opacity:1;fill-rule:nonzero;stroke:none"
         transform="matrix(0.13333333,0,0,-0.13333333,0,5333.3333)" />
      <path
         id="path27"
         d="m 15985.9,8125 c -329.5,103.8 -697.2,123.3 -1046.5,113.3 -95.9,-2.5 -110.6,137.9 -16.4,155.3 375.8,64 751.7,97.2 1136.1,35.1 218,-44.5 141.6,-363.4 -73.2,-303.7"
         style="fill:#371a45;fill-opacity:1;fill-rule:nonzero;stroke:none"
         transform="matrix(0.13333333,0,0,-0.13333333,0,5333.3333)" />
      <path
         id="path28"
         d="m 25267.9,10554.9 c 0,0 -1766.2,106.6 -2164.5,-615.8 -248.3,-450.7 -11.7,-1904.9 57.8,-2523.4 55.5,-494.7 -238.6,-461.6 -238.6,-461.6 0,0 -1367.5,1117.2 -1888,2574.6 l -0.4,0.3 c -222.6,623.3 -290.5,1308.6 -30.5,1995.4 264.8,700.6 825.5,1145 1408.5,1426.9 901.7,435.8 1857.6,481.9 1857.6,481.9 l 998.1,-2878.3"
         style="fill:#f73939;fill-opacity:1;fill-rule:nonzero;stroke:none"
         transform="matrix(0.13333333,0,0,-0.13333333,0,5333.3333)" />
      <path
         id="path29"
         d="m 25267.9,10554.9 c 0,0 -1766.2,106.6 -2164.5,-615.8 -248.3,-450.7 -11.7,-1904.9 57.8,-2523.4 55.5,-494.7 -238.6,-461.6 -238.6,-461.6 0,0 -1367.5,1117.2 -1888,2574.6 22.6,-23.5 859.1,-889.2 1375.7,-602.2 269.8,149.8 107.3,767.1 316.3,1314.8 209.1,548 235.9,1148.6 41,1701.8 l -355.4,1008.2 c 901.7,435.8 1857.6,481.9 1857.6,481.9 l 998.1,-2878.3"
         style="fill:#d82345;fill-opacity:1;fill-rule:nonzero;stroke:none"
         transform="matrix(0.13333333,0,0,-0.13333333,0,5333.3333)" />
      <path
         id="path30"
         d="m 24161.9,13267.6 c -498.2,-50.5 -2460.4,-340.7 -3012.1,-1798.4 -752.4,-1987.9 1436.1,-4014.6 1816.5,-4346.9 1.8,1.5 3.5,3.2 5.3,5.1 13.5,14.9 55.9,78.6 34.3,270.8 -10.1,89.6 -23.7,196.9 -38.8,316.2 -125.1,985.8 -219.1,1903.6 -0.4,2300.3 355.7,644.8 1554.3,708.1 2079.2,703.3 l -884,2549.6 M 22935.4,6797.3 c -10.7,0 -20.9,0.5 -30.3,1.6 -29.8,3.4 -58,15.3 -81.2,34.3 -29.2,23.8 -720.9,593.3 -1314.9,1457.7 -800,1163.9 -1025.2,2301.2 -651.4,3288.8 703.3,1858.2 3294.6,2004.3 3404.6,2009.7 69.6,4.4 132.4,-39.4 155.1,-104.9 l 998.1,-2878.5 c 17.1,-49.3 8.4,-103.9 -23.1,-145.5 -31.5,-41.6 -81.8,-65 -133.8,-61.6 -464.1,27.8 -1731.1,-14.4 -2018.2,-535.1 -187.7,-340.4 -41.8,-1491.6 36.7,-2110.1 15.3,-120.9 29.1,-229.7 39.3,-320.6 27,-240.4 -15.4,-418.4 -126.1,-529 -79.7,-79.6 -180.8,-106.8 -254.8,-106.8"
         style="fill:#371a45;fill-opacity:1;fill-rule:nonzero;stroke:none"
         transform="matrix(0.13333333,0,0,-0.13333333,0,5333.3333)" />
      <path
         id="path31"
         d="m 23764.7,11341.9 211.7,-991.1 c 95.8,-448.4 430.1,-808 870.3,-936.2 1310.9,-381.8 2701.3,-397.7 4020.5,-45.9 443.1,118.2 785.4,470.1 891.4,916.1 l 234.3,986.1 -6228.2,71"
         style="fill:#22a7f0;fill-opacity:1;fill-rule:nonzero;stroke:none"
         transform="matrix(0.13333333,0,0,-0.13333333,0,5333.3333)" />
      <path
         id="path32"
         d="m 28702.7,9487.7 c 99,57.3 189.3,127.8 268.5,209.1 153.9,158.6 266.2,358.1 319.2,581.3 l 155.3,653.8 c 110.3,31.1 220.4,64.4 329.8,99.7 l -168.8,-710.6 c -92.9,-390.8 -391.6,-697.8 -779.7,-801.3 -41.3,-11 -82.8,-21.7 -124.3,-32"
         style="fill:#65c2f5;fill-opacity:1;fill-rule:nonzero;stroke:none"
         transform="matrix(0.13333333,0,0,-0.13333333,0,5333.3333)" />
      <path
         id="path33"
         d="m 27050.2,9116.9 c -741.6,-11 -1484.4,88.5 -2203.4,297.7 -440.3,128.2 -774.4,488 -870.4,936.1 l -211.6,991 3259.4,-36.8 c -212.7,-114.6 -486,-368.2 -477.9,-916.2 13.3,-893.2 875.2,-1255.8 875.2,-1255.8 l 2.9,-0.8 c -124.4,-8.6 -249.3,-13.4 -374.2,-15.2"
         style="fill:#2585ef;fill-opacity:1;fill-rule:nonzero;stroke:none"
         transform="matrix(0.13333333,0,0,-0.13333333,0,5333.3333)" />
      <path
         id="path34"
         d="m 32342.4,16841.8 c -29.2,-148.8 -60.5,-294.9 -92.5,-437.8 -218.3,-966.8 -493.2,-1797.4 -775.9,-2490.9 -100.7,-248 -202.3,-478 -303,-691.2 -614.3,-1301.5 -1178.1,-1951.3 -1178.1,-1951.3 -383.5,-136.6 -773.2,-247.2 -1168.4,-330.3 -15.6,-3.2 -31.2,-6.7 -46.8,-9.8 -1613.2,-330.7 -3293.8,-213.2 -4854.6,353 -52.7,18.8 -105.4,38.3 -157.8,58.6 0,0 -1569.4,1891.1 -2223,5626.2 -251.1,1431.9 -367.1,3134.8 -209,5106 541.2,6735.4 3981.4,9950 5291.8,10941.5 297.5,225.1 710.1,221.3 1002.4,-10.6 804.1,-637.8 2421.9,-2164 3616.1,-4867.3 531.9,-1204.7 980.1,-2642.5 1234.3,-4339.6 71.5,-475.2 127.7,-970.7 165.6,-1486.9 9.8,-121.1 17.6,-243.7 25,-366.7 112.9,-1975.9 -42.6,-3676.9 -326.1,-5102.9"
         style="fill:#ffffff;fill-opacity:1;fill-rule:nonzero;stroke:none"
         transform="matrix(0.13333333,0,0,-0.13333333,0,5333.3333)" />
      <path
         id="path35"
         d="m 26050.2,10951.9 c -747.9,78.6 -1481.4,252.8 -2189.5,520.5 -134,172.9 -791.5,1064.8 -1385.6,2639.4 -227.1,601.9 -461.9,1352.3 -652.4,2244.2 762.5,-1407.6 1764,-1994 2453.7,-1994 560,0 914.6,386.5 768.9,1033.8 -108.5,481.7 -1162,1219.4 -1214.3,3916.2 168,-612.5 509.4,-1164.2 995.5,-1595.9 612.1,-543.6 1386,-836.8 2197.8,-836.8 66.7,0 133.7,1.9 200.8,5.9 884.3,52.4 1695.3,446.1 2283.6,1108.5 214.6,241.6 390.1,508.4 524.1,792.8 -167.6,-2271.1 -1089.2,-2941.9 -1190.3,-3390.7 -145.6,-647.2 209,-1033.7 768.9,-1033.8 695.5,-0.1 1707.7,595.8 2472.5,2029 -217.5,-954.4 -484.2,-1750.2 -738.5,-2380.4 -629.8,-1560.9 -1307.4,-2437.6 -1445.1,-2607.2 -645.1,-227.2 -1309.3,-377.6 -1984.3,-449.9 -186.2,1169 -722.1,2081 -885.2,2337.7 -30.1,47.5 -47.4,72.5 -47.4,72.5 0,0 0,-0.1 -0.1,-0.1 0,0.2 -0.1,0.2 -0.1,0.2 0,0 -245.7,-353.6 -493.2,-926.3 -90.9,-210.2 -182.1,-450 -261.5,-712.7 l 0.2,-0.1 c -72.4,-240.2 -135,-499.6 -178.5,-772.8"
         style="fill:#c5bdc9;fill-opacity:1;fill-rule:nonzero;stroke:none"
         transform="matrix(0.13333333,0,0,-0.13333333,0,5333.3333)" />
      <path
         id="path36"
         d="m 31580.2,27309.6 c -1192.2,269.1 -2401.5,435.8 -3615.5,499.9 -1811.9,96 -3633.2,-36 -5420.8,-396.8 1279.6,3194.6 3181.7,4922.5 4080.6,5603.2 297.9,225.3 710.7,220.6 1003.6,-11.4 22.2,-17.5 45.3,-35.9 68.7,-55 907.9,-736.1 2707.6,-2498 3883.4,-5639.9"
         style="fill:#f73939;fill-opacity:1;fill-rule:nonzero;stroke:none"
         transform="matrix(0.13333333,0,0,-0.13333333,0,5333.3333)" />
      <path
         id="path37"
         d="m 27964.7,27809.5 c 599.8,1958.7 127.6,3981 -267.9,5140 907.9,-736.1 2707.6,-2498 3883.4,-5639.9 -1192.2,269.1 -2401.5,435.8 -3615.5,499.9"
         style="fill:#d82345;fill-opacity:1;fill-rule:nonzero;stroke:none"
         transform="matrix(0.13333333,0,0,-0.13333333,0,5333.3333)" />
      <path
         id="path38"
         d="m 26823.9,27999.4 c 1507,0 3012.4,-158.4 4506.6,-475.1 -1159.3,2932 -2843.1,4589.6 -3760.3,5326.4 -260.1,208.9 -626.6,213 -891.2,10.1 -933.7,-715.6 -2654.6,-2334.5 -3880.4,-5239.1 1337.8,251.8 2682.1,377.7 4025.3,377.7 m 4756.5,-845.8 c -11.4,0 -23,1.3 -34.4,3.8 -2969.5,669.9 -5987.8,704.3 -8971.2,102.4 -56.4,-11.4 -114.2,9 -150.9,53.1 -36.8,44.1 -46.4,104.8 -25,158 1258.5,3142.3 3102.7,4881.1 4090,5637.8 379.3,290.7 904.3,284.7 1276.9,-14.5 969.9,-779 2774.3,-2559.4 3960.9,-5729.6 20.1,-53.8 9.1,-114.2 -28.6,-157.5 -30,-34.4 -73.1,-53.5 -117.7,-53.5"
         style="fill:#371a45;fill-opacity:1;fill-rule:nonzero;stroke:none"
         transform="matrix(0.13333333,0,0,-0.13333333,0,5333.3333)" />
      <path
         id="path39"
         d="m 23860.7,11472.4 c 966.7,-365.4 1980.5,-556.6 3014,-568.4 1033.1,-11.7 2051.2,156.2 3025.6,499.4 137.7,169.6 815.3,1046.3 1445.1,2607.2 647.7,1605.1 1375.8,4283 1166.7,7925 -108,1881.5 -460.7,3644.1 -1048.6,5240.3 -2915.5,645.9 -5877.7,679.6 -8806.5,100.3 -624.1,-1582.4 -1016.9,-3336.3 -1167.8,-5214.8 -292.1,-3636.4 374.9,-6330.1 985.9,-7949.6 594.1,-1574.6 1251.6,-2466.5 1385.6,-2639.4 m 3116,-881.4 c -35.2,0 -70.4,0.2 -105.6,0.6 -1084.8,12.4 -2148.7,215.7 -3162.1,604.3 -25,9.6 -47.2,25.4 -64.3,46.1 -31.3,37.7 -775.1,945.7 -1455.8,2743.5 -625.4,1651.9 -1308.6,4398.1 -1011.1,8100.9 155.9,1940.9 566.6,3752.6 1220.5,5384.6 20.7,51.8 67.1,87.9 120.9,96.2 3024.8,609.5 6084.9,574.2 9095.6,-105 51.3,-11.6 93.4,-48.3 111.9,-97.6 616.5,-1646.5 985.7,-3467 1097.2,-5411.1 213,-3708.6 -532.4,-6438.6 -1195.2,-8075.7 -721.4,-1781.8 -1485.6,-2672.6 -1517.8,-2709.6 -17.5,-20.3 -40,-35.6 -65.3,-44.7 -988.3,-353.5 -2020.3,-532.5 -3068.9,-532.5"
         style="fill:#371a45;fill-opacity:1;fill-rule:nonzero;stroke:none"
         transform="matrix(0.13333333,0,0,-0.13333333,0,5333.3333)" />
      <path
         id="path40"
         d="m 26939.2,8959.9 c -719.6,0 -1438.8,101.6 -2136.2,304.8 -496.1,144.4 -871.3,548.1 -979.3,1053.5 l -211.8,991.1 c -18,84.4 35.8,167.4 120.2,185.4 84.5,18 167.3,-35.8 185.4,-120.1 l 211.7,-991.1 c 83.9,-392.8 375.6,-706.6 761.2,-818.9 1283.6,-373.9 2644.8,-389.5 3936.6,-44.9 388.1,103.5 686.8,410.5 779.7,801.3 l 234.3,986 c 19.9,83.9 104.2,135.8 188,115.9 84,-20 135.8,-104.2 115.9,-188.1 l -234.3,-986.1 C 29791.1,9746 29406.8,9351 28907.5,9217.8 c -645.1,-172 -1306.9,-257.9 -1968.3,-257.9"
         style="fill:#371a45;fill-opacity:1;fill-rule:nonzero;stroke:none"
         transform="matrix(0.13333333,0,0,-0.13333333,0,5333.3333)" />
      <path
         id="path41"
         d="m 30063.5,19311.2 c -363.5,-1246.4 -1477.6,-2189.1 -2847.8,-2269.9 -1459.7,-86.7 -2747.1,832.1 -3186.4,2157.1 l -0.4,0.4 c -85.1,256.1 -138.2,527.9 -155,810.2 -103.5,1742.4 1225.3,3238.7 2967.7,3341.8 1742.8,103.5 3238.7,-1225.3 3342.2,-2967.7 21.9,-372.1 -21.5,-733.3 -120.3,-1071.9"
         style="fill:#c6c6c6;fill-opacity:1;fill-rule:nonzero;stroke:none"
         transform="matrix(0.13333333,0,0,-0.13333333,0,5333.3333)" />
      <path
         id="path42"
         d="m 29670.2,21627 c -595.8,820.9 -1562.3,1347.8 -2637.7,1347.8 -65.3,0 -130.7,-1.9 -196.7,-5.9 -1014.6,-59.9 -1892.8,-577.4 -2446.6,-1339.9 479.8,880.5 1389.2,1502.5 2461.8,1566 60.3,3.6 120.1,5.4 179.7,5.4 1127.3,0 2127,-631 2639.5,-1573.4"
         style="fill:#eeeeee;fill-opacity:1;fill-rule:nonzero;stroke:none"
         transform="matrix(0.13333333,0,0,-0.13333333,0,5333.3333)" />
      <path
         id="path43"
         d="m 30063.5,19311.2 c -363.5,-1246.4 -1477.6,-2189.1 -2847.8,-2269.9 -1459.7,-86.7 -2747.1,832.1 -3186.4,2157.1 0,0 862.2,-596.3 771.6,810.6 h 4364.5 c -90.6,-1406.9 772,-810.6 772,-810.6 l 126.1,112.8"
         style="fill:#898989;fill-opacity:1;fill-rule:nonzero;stroke:none"
         transform="matrix(0.13333333,0,0,-0.13333333,0,5333.3333)" />
      <path
         id="path44"
         d="m 27030.7,23200.4 c -59.6,0 -119.4,-1.8 -179.7,-5.4 -1653.6,-98 -2919.2,-1523.1 -2821.2,-3176.7 47.5,-801.1 404.1,-1535.7 1004.1,-2068.6 600,-532.9 1371.7,-800.2 2172.7,-752.7 801,47.5 1535.7,404.1 2068.5,1004.1 532.9,600 800.2,1371.7 752.7,2172.7 -94.5,1593.4 -1421.1,2826.6 -2997.1,2826.6 m -6.4,-6321.1 c -811.8,0 -1585.7,293.2 -2197.8,836.8 -662.4,588.3 -1056.1,1399.3 -1108.6,2283.7 -108.2,1825.6 1289,3398.9 3114.6,3507.1 884.8,52.1 1736.2,-242.7 2398.7,-830.9 662.4,-588.3 1056,-1399.3 1108.5,-2283.7 52.4,-884.4 -242.7,-1736.2 -831,-2398.6 -588.3,-662.4 -1399.3,-1056.1 -2283.6,-1108.5 -67.1,-4 -134.1,-5.9 -200.8,-5.9"
         style="fill:#371a45;fill-opacity:1;fill-rule:nonzero;stroke:none"
         transform="matrix(0.13333333,0,0,-0.13333333,0,5333.3333)" />
      <path
         id="path45"
         d="m 27120.8,18034.2 c 1213.3,71.9 2138.6,1113.8 2066.6,2327.1 -71.9,1213.3 -1113.8,2138.6 -2327.1,2066.7 -1213.3,-71.9 -2138.6,-1113.8 -2066.7,-2327.1 72,-1213.4 1113.9,-2138.6 2327.2,-2066.7"
         style="fill:#22a7f0;fill-opacity:1;fill-rule:nonzero;stroke:none"
         transform="matrix(0.13333333,0,0,-0.13333333,0,5333.3333)" />
      <path
         id="path46"
         d="m 26993.1,21704 c -29.7,0 -59.5,-0.9 -89.5,-2.7 -393,-23.2 -753.2,-198 -1014.5,-492.1 -261.2,-294.2 -392.2,-672.4 -368.8,-1065.2 23.2,-392.7 198,-752.9 492.2,-1014.2 294.1,-261.2 672.7,-392.2 1065.1,-369.1 v 0 c 392.8,23.3 753,198 1014.3,492.2 261.3,294.3 392.4,672.6 369,1065.5 -23.3,392.8 -198,752.9 -492.2,1014.1 -271.7,241.3 -615.2,371.5 -975.6,371.5 m -4.8,-3258.3 c -437.2,0 -853.8,157.9 -1183.3,450.6 -356.5,316.6 -568.4,753.2 -596.6,1229.2 -28.3,476 130.5,934.6 447.2,1291.1 316.6,356.5 753.3,568.4 1229.5,596.6 476,28 934.5,-130.5 1291,-447.1 356.6,-316.6 568.5,-753.2 596.6,-1229.2 28.4,-476.1 -130.5,-934.8 -447.2,-1291.4 -316.8,-356.6 -753.4,-568.5 -1229.5,-596.6 -36,-2.1 -72,-3.2 -107.7,-3.2"
         style="fill:#371a45;fill-opacity:1;fill-rule:nonzero;stroke:none"
         transform="matrix(0.13333333,0,0,-0.13333333,0,5333.3333)" />
      <path
         id="path47"
         d="m 26993.3,22275.7 c -41.1,0 -82.3,-1.2 -123.7,-3.7 -545.2,-32.3 -1045.2,-274.9 -1407.8,-683.3 -362.6,-408.3 -544.5,-933.4 -512.2,-1478.6 66.7,-1125.4 1037.1,-1985.5 2161.9,-1920 1125.4,66.7 1986.7,1036.6 1920,2162 -32.3,545.1 -275,1045.1 -683.3,1407.7 -377.4,335.1 -854.4,515.9 -1354.9,515.9 m -4.3,-4401.6 c -1236.5,0 -2277.2,967.4 -2351.3,2217.5 -76.9,1297.4 916,2415.4 2213.4,2492.3 628.8,37 1233.8,-172.4 1704.5,-590.5 470.8,-418 750.5,-994.4 787.8,-1622.8 76.9,-1297.4 -916,-2415.4 -2213.4,-2492.3 -47.2,-2.9 -94.3,-4.2 -141,-4.2"
         style="fill:#371a45;fill-opacity:1;fill-rule:nonzero;stroke:none"
         transform="matrix(0.13333333,0,0,-0.13333333,0,5333.3333)" />
      <path
         id="path48"
         d="m 27086.8,18604.8 c -898.1,-53.1 -1669.3,631.8 -1722.4,1530 -53.5,898.1 631.4,1669.3 1529.9,1722.4 898.2,53.5 1669.4,-631.4 1722.5,-1529.5 53.5,-898.6 -631.8,-1669.8 -1530,-1722.9 m 2100.5,1756.4 c -71.9,1213.3 -1113.7,2138.8 -2327,2066.9 -1213.2,-71.8 -2138.7,-1114.1 -2066.8,-2327.3 72.2,-1213.3 1114.1,-2138.3 2327.3,-2066.5 1213.3,71.9 2138.7,1113.7 2066.5,2326.9"
         style="fill:#898989;fill-opacity:1;fill-rule:nonzero;stroke:none"
         transform="matrix(0.13333333,0,0,-0.13333333,0,5333.3333)" />
      <path
         id="path49"
         d="m 26993.1,21704 c -29.7,0 -59.5,-0.9 -89.5,-2.7 -393,-23.2 -753.2,-198 -1014.5,-492.1 -261.2,-294.2 -392.2,-672.4 -368.8,-1065.2 23.2,-392.7 198,-752.9 492.2,-1014.2 294.1,-261.2 672.7,-392.2 1065.1,-369.1 v 0 c 392.8,23.3 753,198 1014.3,492.2 261.3,294.3 392.4,672.6 369,1065.5 -23.3,392.8 -198,752.9 -492.2,1014.1 -271.7,241.3 -615.2,371.5 -975.6,371.5 m -4.8,-3258.3 c -437.2,0 -853.8,157.9 -1183.3,450.6 -356.5,316.6 -568.4,753.2 -596.6,1229.2 -28.3,476 130.5,934.6 447.2,1291.1 316.6,356.5 753.3,568.4 1229.5,596.6 476,28 934.5,-130.5 1291,-447.1 356.6,-316.6 568.5,-753.2 596.6,-1229.2 28.4,-476.1 -130.5,-934.8 -447.2,-1291.4 -316.7,-356.6 -753.4,-568.5 -1229.4,-596.6 -36.1,-2.1 -72.1,-3.2 -107.8,-3.2 m 4.8,3830.1 c -41,0 -82.2,-1.2 -123.5,-3.6 -545.1,-32.3 -1045.1,-275 -1407.8,-683.4 -362.7,-408.5 -544.7,-933.6 -512.4,-1478.8 64.6,-1084.2 967.6,-1923.3 2040,-1923.4 40.5,0 81.2,1.2 122.2,3.6 545.1,32.3 1045.1,275 1407.7,683.3 362.7,408.3 544.5,933.4 512.1,1478.5 h -0.1 c -32.2,545.2 -274.9,1045.1 -683.2,1407.8 -377.4,335.2 -854.5,516 -1355,516 m -3.9,-4401.6 c -1236.3,0 -2277.2,967.4 -2351.6,2217.3 -37.3,628.5 172.5,1233.9 590.6,1704.7 418.1,470.8 994.5,750.6 1622.9,787.8 628.5,37.2 1233.8,-172.5 1704.5,-590.6 470.7,-418.1 750.4,-994.5 787.6,-1622.9 37.4,-628.4 -172.2,-1233.7 -590.3,-1704.5 -418.1,-470.7 -994.4,-750.4 -1622.9,-787.6 -47.2,-2.8 -94.2,-4.2 -140.8,-4.2"
         style="fill:#371a45;fill-opacity:1;fill-rule:nonzero;stroke:none"
         transform="matrix(0.13333333,0,0,-0.13333333,0,5333.3333)" />
      <path
         id="path50"
         d="m 26993.1,21704 c -29.7,0 -59.5,-0.9 -89.5,-2.7 -393,-23.2 -753.2,-198 -1014.5,-492.1 -261.2,-294.2 -392.2,-672.4 -368.8,-1065.2 23.2,-392.7 198,-752.9 492.2,-1014.2 294.1,-261.2 672.7,-392.2 1065.1,-369.1 v 0 c 392.8,23.3 753,198 1014.3,492.2 261.3,294.3 392.4,672.6 369,1065.5 -23.3,392.8 -198,752.9 -492.2,1014.1 -271.7,241.3 -615.2,371.5 -975.6,371.5 m -4.8,-3258.3 c -437.2,0 -853.8,157.9 -1183.3,450.6 -356.5,316.6 -568.4,753.2 -596.6,1229.2 -28.3,476 130.5,934.6 447.2,1291.1 316.6,356.5 753.3,568.4 1229.5,596.6 476,28 934.5,-130.5 1291,-447.1 356.6,-316.6 568.5,-753.2 596.6,-1229.2 28.4,-476.1 -130.5,-934.8 -447.2,-1291.4 -316.8,-356.6 -753.4,-568.5 -1229.5,-596.6 -36,-2.1 -72,-3.2 -107.7,-3.2"
         style="fill:#371a45;fill-opacity:1;fill-rule:nonzero;stroke:none"
         transform="matrix(0.13333333,0,0,-0.13333333,0,5333.3333)" />
      <path
         id="path51"
         d="m 27980.4,10158.7 c 0,-1770.1 -997.2,-3205.1 -997.2,-3205.1 0,0 -997.2,1435 -997.2,3205.1 0,1770.1 997.2,3205.1 997.2,3205.1 0,0 997.2,-1435 997.2,-3205.1"
         style="fill:#22a7f0;fill-opacity:1;fill-rule:nonzero;stroke:none"
         transform="matrix(0.13333333,0,0,-0.13333333,0,5333.3333)" />
      <path
         id="path52"
         d="m 27980.4,10158.7 c 0,-1770.1 -997.2,-3205.1 -997.2,-3205.1 0,0 -997.2,1435 -997.2,3205.1 0,1770.1 997.2,3205.1 997.2,3205.1 0,0 997.2,-1435 997.2,-3205.1"
         style="fill:#f73939;fill-opacity:1;fill-rule:nonzero;stroke:none"
         transform="matrix(0.13333333,0,0,-0.13333333,0,5333.3333)" />
      <path
         id="path53"
         d="m 26228.7,11724.7 -0.2,0.1 c 79.4,262.7 170.6,502.5 261.5,712.7 -90.9,-210.3 -182,-450.1 -261.3,-712.8 m 802.1,1566.5 c -28.7,45.2 -45.8,70.1 -47.5,72.4 0.1,0 0.1,0.1 0.1,0.1 0,0 17.3,-25 47.4,-72.5"
         style="fill:#edebef;fill-opacity:1;fill-rule:nonzero;stroke:none"
         transform="matrix(0.13333333,0,0,-0.13333333,0,5333.3333)" />
      <path
         id="path54"
         d="m 26983.4,10093.3 c 0,0 -66.8,1440.9 -98.4,2623.3 -227.7,-225.7 -569.8,-1046.5 -569.8,-1046.5 l -86.5,54.6 c 79.3,262.7 170.4,502.5 261.3,712.8 145.3,335.9 289.9,596.3 384.8,754.3 66.1,110.2 107.7,170.6 108.5,171.8 1.7,-2.3 18.8,-27.2 47.5,-72.4 16.6,-26.2 37.1,-59.2 60.7,-98.6 153.9,-256.5 440.1,-784.9 646.3,-1468.2 l -86.7,-54.3 c 0,0 -342.1,821.6 -569.7,1046.9 -31.3,-1182.4 -98,-2623.7 -98,-2623.7"
         style="fill:#fdc3c3;fill-opacity:1;fill-rule:nonzero;stroke:none"
         transform="matrix(0.13333333,0,0,-0.13333333,0,5333.3333)" />
      <path
         id="path55"
         d="m 27980.3,10158.9 c 0,-1770.5 -996.9,-3205.1 -996.9,-3205.1 0,0 -997.4,1434.6 -997.4,3205.1 0,298.3 28.2,587.3 75.4,861 232.7,-1351.8 512.2,-2745.9 922,-2745.9 409.7,0 689.2,1394.1 921.5,2745.9 47.3,-273.7 75.4,-562.7 75.4,-861"
         style="fill:#d82345;fill-opacity:1;fill-rule:nonzero;stroke:none"
         transform="matrix(0.13333333,0,0,-0.13333333,0,5333.3333)" />
      <path
         id="path56"
         d="m 26983.3,13068.2 c -263.4,-451.6 -841.1,-1592.2 -841.1,-2909.5 0,-1317 577.5,-2457.4 841,-2909.2 263.6,451.8 841,1592.2 841,2909.2 0,1319.8 -577.3,2458.4 -840.9,2909.5 z m -0.1,-6270.8 c -51.1,0 -99,25.1 -128.2,67.1 -41.9,60.2 -1025.2,1495.8 -1025.2,3294.2 0,1798.4 983.3,3234 1025.2,3294.2 29.2,42.1 77.1,67.1 128.2,67.1 51.2,0 99.1,-25 128.3,-67.1 41.8,-60.2 1025.1,-1495.8 1025.1,-3294.2 0,-1798.4 -983.3,-3234 -1025.1,-3294.2 -29.2,-42 -77.1,-67.1 -128.3,-67.1"
         style="fill:#371a45;fill-opacity:1;fill-rule:nonzero;stroke:none"
         transform="matrix(0.13333333,0,0,-0.13333333,0,5333.3333)" />
      <path
         id="path57"
         d="m 21312.5,10405.7 c -147,1148.5 606.4,1800.8 606.4,1800.8 -110.3,-960.1 -606.4,-1800.8 -606.4,-1800.8"
         style="fill:#fdc3c3;fill-opacity:1;fill-rule:nonzero;stroke:none"
         transform="matrix(0.13333333,0,0,-0.13333333,0,5333.3333)" />
      <path
         id="path58"
         d="m 16050.4,14682.3 c 0,0 1543.9,-839.6 2206.9,-189 1022.6,1003.6 -197,3019.4 -197,3019.4 l -2009.9,-2830.4"
         style="fill:#d8d8d8;fill-opacity:1;fill-rule:nonzero;stroke:none"
         transform="matrix(0.13333333,0,0,-0.13333333,0,5333.3333)" />
      <path
         id="path59"
         d="m 16283,14740.1 c 488.1,-229.4 1442,-550.3 1864.9,-135.4 737.9,724.2 160.6,2087.3 -105.4,2613 L 16283,14740.1 m 1265.5,-648.9 c -726.3,0 -1525.5,428.1 -1572.7,453.9 -39.3,21.3 -67.5,58.4 -77.6,101.9 -10.1,43.5 -1,89.3 24.8,125.7 l 2010,2830.4 c 30.5,42.9 80.7,66.8 133.1,65.7 52.6,-2 100.6,-30.3 127.9,-75.3 52.4,-86.6 1271,-2133.9 172.7,-3211.7 -218.6,-214.5 -511.9,-290.6 -818.2,-290.6"
         style="fill:#371a45;fill-opacity:1;fill-rule:nonzero;stroke:none"
         transform="matrix(0.13333333,0,0,-0.13333333,0,5333.3333)" />
      <path
         id="path60"
         d="m 11863.2,18292.8 c -261.3,-387.3 -623.3,-810.6 -908.7,-1126.2 -259.3,-286.2 -455.3,-483.8 -455.3,-483.8 0,0 -3410.17,-238.6 -4348.52,2273.5 -109.33,292.4 -177.67,587.3 -214.38,876.2 -205,1592.4 532.24,3018.1 532.24,3018.1 l 1841.94,-868 531.47,-1766.6 c 0,0 395.18,-189 1080.09,-410.8 529.86,-172.2 1233.16,-364 2061.36,-503.4 387.8,-65.2 218.7,-506.4 -120.2,-1009"
         style="fill:#ffffff;fill-opacity:1;fill-rule:nonzero;stroke:none"
         transform="matrix(0.13333333,0,0,-0.13333333,0,5333.3333)" />
      <path
         id="path61"
         d="m 9861.56,16848.6 c -1002.38,69.1 -2918.34,432.4 -3564.64,2162.2 -30,80.3 -56.72,160.7 -80.46,241.3 461.99,-771.1 1522.86,-1923.7 3759.79,-2012.8 -37.97,-122.2 -76.64,-253.1 -114.69,-390.7"
         style="fill:#c5bdc9;fill-opacity:1;fill-rule:nonzero;stroke:none"
         transform="matrix(0.13333333,0,0,-0.13333333,0,5333.3333)" />
      <path
         id="path62"
         d="m 10728.6,18922.4 c -250.4,198 -472.2,423.6 -659,671.3 226,-69.6 478.2,-140.8 753.9,-209.5 48.6,-26.9 97.5,-53 146.7,-78.4 l -241.4,-383.1 v 0 c 0,-0.1 0,0 0,0 l -0.2,-0.3"
         style="fill:#c5bdc9;fill-opacity:1;fill-rule:nonzero;stroke:none"
         transform="matrix(0.13333333,0,0,-0.13333333,0,5333.3333)" />
      <path
         id="path63"
         d="m 15668.5,18663.8 c -646.3,-400.7 -1435.1,-636.1 -2285.9,-636.1 -1020,0 -1950.1,338.5 -2653.8,895 l 1098.1,1742.7 3824.8,-1972.3 c 5.5,-9.8 11.3,-19.6 16.8,-29.3"
         style="fill:#d8d8d8;fill-opacity:1;fill-rule:nonzero;stroke:none"
         transform="matrix(0.13333333,0,0,-0.13333333,0,5333.3333)" />
      <path
         id="path64"
         d="m 10257.7,16520.1 c -329.89,0 -944.54,29 -1620.52,206.3 -1320.19,346.3 -2230.64,1098.4 -2632.89,2175 -727.31,1946.7 282.14,3937.3 325.48,4021.1 39.62,76.6 133.83,106.6 210.49,67 76.61,-39.6 106.62,-133.9 66.99,-210.5 -12.43,-24.2 -987.43,-1955.9 -310.33,-3768.2 821.04,-2197.5 3691.17,-2189.7 4134.18,-2174.9 857,870.5 1707.9,1969.9 1613.6,2263.4 -3.4,10.7 -11.4,35.8 -87.2,48.5 -1897.8,319.7 -3131.5,902.7 -3183.09,927.4 -39.69,18.9 -69.52,53.8 -82.22,95.9 l -531.45,1766.4 c -24.86,82.5 21.98,169.7 104.59,194.5 82.57,24.7 169.7,-22 194.58,-104.6 L 8970.93,20329 c 272.07,-120.7 1420.37,-600.5 3038.47,-873.1 229,-38.6 306.8,-180.2 332.8,-261.1 60.6,-188.7 43,-559.3 -806,-1594.2 -446.2,-543.8 -921.5,-1023.3 -926.2,-1028 -26.7,-26.9 -62.2,-43.1 -99.9,-45.7 -11.2,-0.8 -102.4,-6.8 -252.4,-6.8"
         style="fill:#371a45;fill-opacity:1;fill-rule:nonzero;stroke:none"
         transform="matrix(0.13333333,0,0,-0.13333333,0,5333.3333)" />
      <path
         id="path65"
         d="m 16793.9,14267.2 c -39.8,-727 -236.6,-1385.8 -665.8,-1862.6 -1494.4,-1660.4 -5496.5,-1335.9 -6299.38,758.3 -131.6,342.9 -180.02,811.9 -170.65,1337.9 23.04,1298 398.73,2944.7 748.23,3909.9 l 1420.6,2254.7 3824.8,-1972.3 c 613.1,-1063.3 1225.8,-2895.1 1142.2,-4425.9"
         style="fill:#ffffff;fill-opacity:1;fill-rule:nonzero;stroke:none"
         transform="matrix(0.13333333,0,0,-0.13333333,0,5333.3333)" />
      <path
         id="path66"
         d="m 10728.8,18922.7 c 0,0 0,-0.1 0,0 l 241.4,383.1 v 0 l -241.4,-383.1"
         style="fill:#a9a1ad;fill-opacity:1;fill-rule:nonzero;stroke:none"
         transform="matrix(0.13333333,0,0,-0.13333333,0,5333.3333)" />
      <path
         id="path67"
         d="m 13382.6,18027.7 c -1019.9,0 -1950.2,338.6 -2653.8,895 v 0 l 241.4,383.1 c 819.8,-423.4 1727.8,-650.5 2665.8,-661.1 24.2,-0.3 48.4,-0.5 72.6,-0.5 113.2,0 227.2,3.2 341.6,9.7 15.6,0.8 31,1.8 46.6,2.8 l -196.6,-599.6 c -169.4,-19.4 -342.2,-29.4 -517.6,-29.4"
         style="fill:#c5bdc9;fill-opacity:1;fill-rule:nonzero;stroke:none"
         transform="matrix(0.13333333,0,0,-0.13333333,0,5333.3333)" />
      <path
         id="path68"
         d="m 13277.1,11346.6 c -2.5,0 -5.2,0 -7.7,0 -104.4,0.2 -208.8,3.4 -313,9.6 -13.1,0.8 -26.1,1.6 -39.2,2.5 -104.2,7.1 -208.1,17.1 -311.2,30.2 -1126.5,143.1 -2170,648 -2646.73,1496.3 31.59,17 52.73,53.5 36.69,95.9 -65.38,163 -109.38,331.2 -134.67,504.2 -8.87,57.9 -16.3,115.8 -22.44,173.8 268.25,-61.5 884.55,-185.7 1489.65,-185.7 287.2,0 571.8,28 815.5,103.9 l 2.1,-103.6 c 0.1,-4.7 0.3,-9.3 0.4,-13.9 l 2.5,-119 c 4.2,-209.3 90.2,-405 242.2,-550.9 147.9,-141.9 340.3,-219.6 543.3,-219.6 5.6,0 11.2,0.1 16.8,0.2 l 123.4,2.5 c 3.2,0.1 6.5,0.1 9.7,0.2 l 2185.4,44.9 331.3,6.9 v 0 l 144.7,2.9 c 195.5,4.1 375.7,69.1 522.7,176.6 -58.2,-118.4 -124,-234.4 -198.4,-347.8 -19.8,-28.7 -18.7,-68.3 5.1,-96.1 2,-2.2 4,-4.4 6.2,-6.4 -645.8,-676.9 -1719.6,-1007.6 -2804.3,-1007.6"
         style="fill:#c5bdc9;fill-opacity:1;fill-rule:nonzero;stroke:none"
         transform="matrix(0.13333333,0,0,-0.13333333,0,5333.3333)" />
      <path
         id="path69"
         d="m 9856.72,12910.8 c -691.37,1117.6 -247.83,3151.9 124.5,4344.4 29.88,89.3 167.28,58.5 151.68,-37.5 -123.2,-710.8 -226.89,-1426 -278.12,-2143.6 -35.39,-531.7 -74.1,-1063 6.51,-1588.8 25.29,-173 69.29,-341.2 134.67,-504.2 32.64,-86.4 -88.81,-148.4 -139.24,-70.3"
         style="fill:#371a45;fill-opacity:1;fill-rule:nonzero;stroke:none"
         transform="matrix(0.13333333,0,0,-0.13333333,0,5333.3333)" />
      <path
         id="path70"
         d="m 14454.2,11402.4 c -683.1,-282.5 -1501.1,-275 -2196,-36.8 -83.1,30.8 -58.5,156.1 29.8,153.3 516.1,-20.1 1082.6,-28 1595.1,5.1 176.9,9.8 353.9,22.8 535.6,30.4 86.5,3.9 114.5,-117.5 35.5,-152"
         style="fill:#371a45;fill-opacity:1;fill-rule:nonzero;stroke:none"
         transform="matrix(0.13333333,0,0,-0.13333333,0,5333.3333)" />
      <path
         id="path71"
         d="m 15787.1,18771.2 c 876.4,-1505.2 1596.8,-4039.5 904.4,-5714.7 -117.9,-265.6 -285,-515.3 -505.3,-704.3 -33,-28.3 -82.7,-24.6 -111,8.4 -23.8,27.8 -24.9,67.4 -5.1,96.1 909.3,1387.9 563.5,3178.4 88.3,4664.5 -173,515.9 -383.5,1021.1 -642.5,1494.9 -92.1,178.2 161.1,327.2 271.2,155.1"
         style="fill:#371a45;fill-opacity:1;fill-rule:nonzero;stroke:none"
         transform="matrix(0.13333333,0,0,-0.13333333,0,5333.3333)" />
      <path
         id="path72"
         d="m 16918,14311.4 c 0,-286.5 -232.3,-518.7 -518.7,-518.7 -286.5,0 -518.7,232.2 -518.7,518.7 0,286.4 232.2,518.7 518.7,518.7 286.4,0 518.7,-232.3 518.7,-518.7"
         style="fill:#ffffff;fill-opacity:1;fill-rule:nonzero;stroke:none"
         transform="matrix(0.13333333,0,0,-0.13333333,0,5333.3333)" />
      <path
         id="path73"
         d="m 16399.3,14673.9 c -199.9,0 -362.5,-162.6 -362.5,-362.5 0,-199.9 162.6,-362.5 362.5,-362.5 199.9,0 362.5,162.6 362.5,362.5 0,199.9 -162.6,362.5 -362.5,362.5 m 0,-1037.4 c -372.1,0 -674.9,302.8 -674.9,674.9 0,372.1 302.8,674.9 674.9,674.9 372.1,0 674.9,-302.8 674.9,-674.9 0,-372.1 -302.8,-674.9 -674.9,-674.9"
         style="fill:#371a45;fill-opacity:1;fill-rule:nonzero;stroke:none"
         transform="matrix(0.13333333,0,0,-0.13333333,0,5333.3333)" />
      <path
         id="path74"
         d="m 15875.5,12786.9 -2927.3,-60.1 c -346.5,-7.2 -636.1,270.5 -643.3,617.4 L 12273,14902 c -6.3,303.7 206,563.3 491.7,627.9 40.5,9.4 82.5,14.4 125.7,15.4 l 2926.9,60.1 c 347,7.2 636.5,-270.5 643.3,-617.4 l 25.6,-1233.8 6.7,-324 c 7.2,-347 -270.9,-636.1 -617.4,-643.3"
         style="fill:#ffffff;fill-opacity:1;fill-rule:nonzero;stroke:none"
         transform="matrix(0.13333333,0,0,-0.13333333,0,5333.3333)" />
      <path
         id="path75"
         d="m 15875.5,12786.9 -2927.3,-60.1 c -346.5,-7.2 -636.1,270.5 -643.3,617.4 L 12273,14902 c -6.3,303.7 206,563.3 491.7,627.9 40.5,9.4 82.5,14.4 125.7,15.4 l 2926.9,60.1 c 347,7.2 636.5,-270.5 643.3,-617.4 l 25.6,-1233.8 6.7,-324 c 7.2,-347 -270.9,-636.1 -617.4,-643.3"
         style="fill:#ffffff;fill-opacity:1;fill-rule:nonzero;stroke:none"
         transform="matrix(0.13333333,0,0,-0.13333333,0,5333.3333)" />
      <path
         id="path76"
         d="m 15875.5,12786.9 -2927.3,-60.1 c -346.5,-7.2 -636.1,270.5 -643.3,617.4 L 12273,14902 c -6.3,303.7 206,563.3 491.7,627.9 40.5,9.4 82.5,14.4 125.7,15.4 l 2926.9,60.1 c 347,7.2 636.5,-270.5 643.3,-617.4 l 25.6,-1233.8 6.7,-324 c 7.2,-347 -270.9,-636.1 -617.4,-643.3"
         style="fill:#ffffff;fill-opacity:1;fill-rule:nonzero;stroke:none"
         transform="matrix(0.13333333,0,0,-0.13333333,0,5333.3333)" />
      <path
         id="path77"
         d="m 13686.1,12909.4 c -123.8,0 -239.8,46.1 -329.7,132.4 -91.8,88.2 -143.8,206.1 -146.3,332.1 l -12.9,628.7 h 75 c 22.5,-110.7 69,-212.5 135.9,-295.4 100.3,-124.2 234.2,-192.4 377.7,-192.4 2.3,0 4.6,0 6.8,0 l 228,3.4 c 71.1,1.1 135.1,33.3 177.8,84.6 246.3,-70.6 545.9,-105.7 912.2,-105.7 8.1,0 16.2,0 24.3,0 549.4,2.5 931.3,77.4 1196.6,183 l 2.5,-120.3 c 6.8,-334.8 -259.9,-612.7 -594.6,-619.6 l -147.9,-3 c -107.7,-1.6 -1896.9,-27.7 -1897.8,-27.8 -2.6,0 -5.1,0 -7.6,0"
         style="fill:#c5bdc9;fill-opacity:1;fill-rule:nonzero;stroke:none"
         transform="matrix(0.13333333,0,0,-0.13333333,0,5333.3333)" />
      <path
         id="path78"
         d="m 15700.5,15446.7 c -4.2,0 -8.4,0 -12.6,-0.1 l -2661.4,-54.7 c -161.3,-3.3 -312.2,-69.8 -425,-187.3 -112.7,-117.4 -172.9,-271 -169.6,-432.2 l 26.5,-1292.3 c 6.9,-334.7 283.8,-600.5 619.6,-594.6 l 2661.4,54.7 c 334.7,6.9 601.4,284.8 594.6,619.6 l -26.6,1292.2 c -3.3,161.3 -69.8,312.3 -187.3,425 -114.3,109.7 -262.9,169.7 -419.6,169.7 m -2619.3,-2717.4 h 0.5 -0.5 m -15.9,-156.3 c -498.4,0 -908.9,400.1 -919.2,900.7 l -26.5,1292.2 c -10.5,507 393.5,927.9 900.4,938.3 l 2661.4,54.7 c 245.2,5.6 477.4,-86.1 655,-256.6 177.7,-170.5 278.3,-399.1 283.3,-643.8 l 26.6,-1292.3 c 10.4,-506.9 -393.6,-927.8 -900.5,-938.3 l -2661.4,-54.7 c -6.4,-0.1 -12.7,-0.2 -19.1,-0.2"
         style="fill:#371a45;fill-opacity:1;fill-rule:nonzero;stroke:none"
         transform="matrix(0.13333333,0,0,-0.13333333,0,5333.3333)" />
      <path
         id="path79"
         d="m 14839.9,12776.4 -5.7,-11.2 -1886.2,-38.6 c -254,-4.9 -477.1,142.5 -580.9,358.8 -38.1,78.4 -60.1,165.9 -61.8,258.7 l -14.5,692.1 -4.8,228.4 -8,400.9 -4.9,236.3 c -7.1,347 270.7,636.2 617.2,643.4 l 632.5,12.7 c -290.4,-60.9 -507,-322.5 -500.9,-629 l 9.3,-462.4 8,-379.2 14.4,-717 c 7.5,-346.1 297,-624.1 643.4,-617.3 l 1142.9,23.4"
         style="fill:#ffffff;fill-opacity:1;fill-rule:nonzero;stroke:none"
         transform="matrix(0.13333333,0,0,-0.13333333,0,5333.3333)" />
      <path
         id="path80"
         d="m 12936.1,12882.7 c -123.2,0 -239,46.6 -328.6,132.6 -91.8,88.1 -143.7,205.9 -146.2,331.9 l -9.5,462.8 c 70.8,111 131.3,267.7 87,448 0,0.1 -0.1,0.2 -0.1,0.3 0,0.2 -0.1,0.4 -0.1,0.6 -16.8,68.1 -48.6,139.5 -100.4,213.1 l -4,194.1 c 87.9,-15.9 175.1,-65 234.3,-180.1 13.1,-25.5 26.2,-47.6 39.3,-66.6 l -69.4,-211.9 c -15.6,-47.6 -7.4,-99.8 21.9,-140.3 29.4,-40.5 76.4,-64.6 126.5,-64.6 h 97.9 l 13.1,-635.1 c 3.5,-177.9 66.2,-346 178.2,-482 l -131.2,-2.7 c -2.9,0 -5.8,-0.1 -8.7,-0.1"
         style="fill:#c5bdc9;fill-opacity:1;fill-rule:nonzero;stroke:none"
         transform="matrix(0.13333333,0,0,-0.13333333,0,5333.3333)" />
      <path
         id="path81"
         d="m 13007.5,15391.6 -113.8,-2.3 c -126,-2.7 -243.9,-54.7 -332,-146.4 -88,-91.8 -135.1,-211.6 -132.4,-337.5 l 32,-1558.2 c 2.5,-126 54.4,-243.8 146.2,-331.9 91.7,-88 210.8,-134.7 337.3,-132.5 l 131.2,2.7 c -112,136 -174.7,304.1 -178.2,482 l -32,1557.9 c -3.5,171.6 48.8,333.4 141.7,466.2 m -73,-2821.3 c -203,0 -395.4,77.7 -543.3,219.6 -152,145.9 -238,341.6 -242.2,550.9 l -32,1558 c -4.5,209.4 73.5,408.4 219.4,560.4 145.8,151.9 341.4,238 550.8,242.4 l 632.4,12.9 35.3,-309 c -223,-47 -381.5,-246.2 -376.8,-473.7 l 32,-1557.9 c 2.5,-126 54.5,-243.9 146.3,-332.1 91.7,-88 210.6,-134.3 337.3,-132.4 1,0.1 1850.7,27.1 1901.8,27.9 l 156.7,3.2 2.9,-157.1 c 1.7,-113.7 -76.9,-145.8 -154.1,-155.3 l 0.1,-3.1 -2649.8,-54.5 c -5.6,-0.1 -11.2,-0.2 -16.8,-0.2"
         style="fill:#371a45;fill-opacity:1;fill-rule:nonzero;stroke:none"
         transform="matrix(0.13333333,0,0,-0.13333333,0,5333.3333)" />
      <path
         id="path82"
         d="m 14192.4,14160.8 c 0.8,-57.7 -73.3,-524 -73.3,-524 0,0 -147.3,-2.1 -328.2,-4.8 -226.1,-3.4 -412.8,227.9 -417,516.6 -4.3,288.7 175.5,525.5 401.5,528.8 152.5,2.3 328.2,4.9 328.2,4.9 0,0 87.4,-427.7 88.8,-521.5"
         style="fill:#22a7f0;fill-opacity:1;fill-rule:nonzero;stroke:none"
         transform="matrix(0.13333333,0,0,-0.13333333,0,5333.3333)" />
      <path
         id="path83"
         d="m 14192.4,14160.8 c 0.8,-57.7 -73.3,-524 -73.3,-524 0,0 -147.3,-2.1 -328.2,-4.8 -226.1,-3.4 -412.8,227.9 -417,516.6 -4.3,288.7 175.5,525.5 401.5,528.8 152.5,2.3 328.2,4.9 328.2,4.9 0,0 87.4,-427.7 88.8,-521.5"
         style="fill:#1c7aea;fill-opacity:1;fill-rule:nonzero;stroke:none"
         transform="matrix(0.13333333,0,0,-0.13333333,0,5333.3333)" />
      <path
         id="path84"
         d="m 14008.1,14562.2 -231,-1.9 c -72.5,-1.1 -141.9,-40.6 -195.5,-111.1 -60.1,-79.1 -92.3,-185.3 -90.6,-298.8 1.7,-113.6 37,-218.7 99.4,-296.1 55.6,-68.9 127,-106.1 198.7,-105.2 l 228,3.4 c 42.3,263.9 57.5,383.9 58.1,407.3 -0.7,32.5 -18.7,154.9 -67.1,402.4 m -222.3,-1047.4 c -143.5,0 -277.4,68.2 -377.7,192.4 -95.2,117.9 -148.9,274.1 -151.4,439.7 -2.4,165.7 46.7,323.3 138.3,444 98.1,129.2 232.6,201.5 378.7,203.6 l 229.1,3.4 c 1.2,0 2.3,0 3.5,0 112.9,0 210,-79.7 231.7,-190.7 46.6,-238.2 70.7,-387.8 71.5,-444.7 v 0 c 0.3,-16.9 0.8,-56.5 -59.1,-444.5 -17.6,-114 -114.2,-198 -229.8,-199.8 l -228,-3.4 c -2.2,0 -4.5,0 -6.8,0"
         style="fill:#371a45;fill-opacity:1;fill-rule:nonzero;stroke:none"
         transform="matrix(0.13333333,0,0,-0.13333333,0,5333.3333)" />
      <path
         id="path85"
         d="m 14520.6,14165.6 c 4.3,-288.7 -175.5,-525.4 -401.5,-528.8 -226,-3.3 -412.7,228 -417,516.7 -4.3,288.7 175.5,525.4 401.5,528.8 226.1,3.3 412.7,-228 417,-516.7"
         style="fill:#22a7f0;fill-opacity:1;fill-rule:nonzero;stroke:none"
         transform="matrix(0.13333333,0,0,-0.13333333,0,5333.3333)" />
      <path
         id="path86"
         d="m 13702.2,14153.3 c 4.3,-288.4 190.9,-519.8 417,-516.5 226.1,3.5 405.7,240.1 401.4,528.9 -0.6,45.5 -5.8,89.8 -15,131.6 -56.8,-195.6 -203.1,-335.4 -376.5,-338 -190.2,-3 -352.8,160.5 -401.9,384.7 -17,-59.1 -25.9,-123.4 -25,-190.7"
         style="fill:#1c7aea;fill-opacity:1;fill-rule:nonzero;stroke:none"
         transform="matrix(0.13333333,0,0,-0.13333333,0,5333.3333)" />
      <path
         id="path87"
         d="m 14108.3,14565.2 c -1,0 -2,-0.1 -3,-0.1 -158.3,-2.3 -289.3,-190.1 -286,-409.9 3.2,-218.4 138,-401.3 295.1,-401.3 1,0 2,0.1 3,0.1 158.3,2.3 289.3,190 286.1,409.9 -3.2,218.4 -138.1,401.3 -295.2,401.3 z m 6.1,-1045.6 c -287.4,0 -524.2,282 -529.4,632.1 -5.2,352.8 226.6,643.4 516.9,647.7 2.1,0.1 4.3,0.1 6.4,0.1 287.4,0 524.3,-282 529.5,-632.1 v -0.1 c 5.2,-352.7 -226.7,-643.3 -516.9,-647.6 -2.2,-0.1 -4.4,-0.1 -6.5,-0.1"
         style="fill:#371a45;fill-opacity:1;fill-rule:nonzero;stroke:none"
         transform="matrix(0.13333333,0,0,-0.13333333,0,5333.3333)" />
      <path
         id="path88"
         d="m 14965.3,12662.3 h -0.4 c -64.7,0.2 -117,52.8 -116.8,117.5 l 2.5,788.4 c 0.6,222.6 112.1,428.6 298.1,550.9 123.1,80.9 195,217.2 192.5,364.4 l -19,1111.2 c -1.1,64.7 50.5,118 115.2,119.2 63.9,1 118,-50.5 119.1,-115.2 l 19,-1111.2 c 3.9,-227.9 -107.5,-438.8 -298,-564.2 -120.2,-79 -192.2,-212 -192.7,-355.8 l -2.4,-788.4 c -0.2,-64.6 -52.6,-116.8 -117.1,-116.8"
         style="fill:#371a45;fill-opacity:1;fill-rule:nonzero;stroke:none"
         transform="matrix(0.13333333,0,0,-0.13333333,0,5333.3333)" />
      <path
         id="path89"
         d="m 9789.82,14862.2 c 0,0 -390.65,-123.8 -440.26,-467.6 -69.48,-481.4 350.22,-701.7 350.22,-701.7 0,0 1704.52,-453.8 2603.42,-56.2 0,0 583.7,477.7 -30.3,1015.3 0,0 -1325.1,-130.1 -2483.08,210.2"
         style="fill:#ffffff;fill-opacity:1;fill-rule:nonzero;stroke:none"
         transform="matrix(0.13333333,0,0,-0.13333333,0,5333.3333)" />
      <path
         id="path90"
         d="m 9421.21,13976.3 c -30.52,55.7 -55.37,119.9 -68.72,193 13.35,-73.1 38.21,-137.3 68.73,-193 h -0.01"
         style="fill:#371a45;fill-opacity:1;fill-rule:nonzero;stroke:none"
         transform="matrix(0.13333333,0,0,-0.13333333,0,5333.3333)" />
      <path
         id="path91"
         d="m 9543.9,13813.6 c -42.38,42.5 -86.51,96.6 -122.69,162.7 h 0.01 c 36.17,-66 80.3,-120.1 122.67,-162.7 h 0.01"
         style="fill:#371a45;fill-opacity:1;fill-rule:nonzero;stroke:none"
         transform="matrix(0.13333333,0,0,-0.13333333,0,5333.3333)" />
      <path
         id="path92"
         d="m 11328.5,13473.4 c -605.1,0 -1221.4,124.2 -1489.65,185.7 0,0 0,0 -0.01,0.1 268.26,-61.6 884.56,-185.7 1489.56,-185.7 287.3,0 571.8,27.9 815.6,103.9 v -0.1 c -243.7,-75.9 -528.3,-103.9 -815.5,-103.9"
         style="fill:#9c8ea3;fill-opacity:1;fill-rule:nonzero;stroke:none"
         transform="matrix(0.13333333,0,0,-0.13333333,0,5333.3333)" />
      <path
         id="path93"
         d="m 9838.85,13659.1 c -88.37,20.3 -138.99,33.7 -138.99,33.7 0,0 -74.77,39.3 -155.96,120.8 h -0.01 c 81.17,-81.5 155.89,-120.7 155.89,-120.7 0,0 50.64,-13.5 139.06,-33.7 0.01,-0.1 0.01,-0.1 0.01,-0.1"
         style="fill:#371a45;fill-opacity:1;fill-rule:nonzero;stroke:none"
         transform="matrix(0.13333333,0,0,-0.13333333,0,5333.3333)" />
      <path
         id="path94"
         d="m 12144,13577.3 h 0.102 v 0.102 H 12144 Z"
         style="fill:#371a45;fill-opacity:1;fill-rule:nonzero;stroke:none"
         transform="matrix(0.13333333,0,0,-0.13333333,0,5333.3333)" />
      <path
         id="path95"
         d="m 12451.8,13810 v 0.3 c 70.7,110.9 131.2,267.5 87,447.7 44.3,-180.3 -16.2,-337 -87,-448"
         style="fill:#9c8ea3;fill-opacity:1;fill-rule:nonzero;stroke:none"
         transform="matrix(0.13333333,0,0,-0.13333333,0,5333.3333)" />
      <path
         id="path96"
         d="m 12144.1,13577.3 v 0.1 c 55.3,17.2 108.5,36.9 159.1,59.3 0,0 79.2,64.8 148.6,173.6 v -0.3 c -69.4,-108.7 -148.6,-173.4 -148.6,-173.4 -50.6,-22.4 -103.8,-42.1 -159.1,-59.3"
         style="fill:#371a45;fill-opacity:1;fill-rule:nonzero;stroke:none"
         transform="matrix(0.13333333,0,0,-0.13333333,0,5333.3333)" />
      <path
         id="path97"
         d="m 12538.7,14258.3 c 0,0.2 -0.1,0.4 -0.1,0.6 0,-0.2 0.1,-0.4 0.1,-0.6"
         style="fill:#9c8ea3;fill-opacity:1;fill-rule:nonzero;stroke:none"
         transform="matrix(0.13333333,0,0,-0.13333333,0,5333.3333)" />
      <path
         id="path98"
         d="m 11328.4,13473.5 c -605,0 -1221.3,124.1 -1489.56,185.7 -88.42,20.2 -139.06,33.7 -139.06,33.7 0,0 -74.72,39.2 -155.89,120.7 -42.37,42.6 -86.5,96.7 -122.67,162.7 -30.52,55.7 -55.38,119.9 -68.73,193 -12.35,67.5 -14.86,142.5 -2.91,225.3 10.55,72.2 35.93,134.7 69.91,188.6 33.62,-114.3 95.01,-203.7 155.92,-269.5 80.47,-87 186.63,-145.5 302.07,-172.2 261.22,-60.5 887.52,-188.7 1502.12,-188.7 284.1,0 565.7,27.3 807.7,101.5 138.4,42.4 257.4,135.2 330.9,260 l 2.2,3.7 c 7.3,-19.9 13.4,-39.6 18.2,-59.1 0,-0.2 0.1,-0.4 0.1,-0.6 0,-0.1 0.1,-0.2 0.1,-0.3 44.2,-180.2 -16.3,-336.8 -87,-447.7 -69.4,-108.8 -148.6,-173.6 -148.6,-173.6 -50.6,-22.4 -103.8,-42.1 -159.1,-59.3 h -0.1 c -243.8,-76 -528.3,-103.9 -815.6,-103.9"
         style="fill:#c5bdc9;fill-opacity:1;fill-rule:nonzero;stroke:none"
         transform="matrix(0.13333333,0,0,-0.13333333,0,5333.3333)" />
      <path
         id="path99"
         d="m 9759.28,13838.9 c 186.33,-46.9 1664.52,-401.5 2458.72,-68.8 43.7,41.7 177.6,183.5 179.6,360.4 1.4,119.7 -59.2,240.6 -180.3,360.1 -290.3,-21.9 -1399.7,-80.2 -2419.67,206.9 -82.69,-36.9 -266.58,-138.7 -293.48,-325.2 -46.85,-324.6 195.31,-496.3 255.13,-533.4 z m 1564.32,-521.7 c -806.5,0 -1614.96,211.7 -1664.01,224.8 l -16.91,4.5 -15.48,8.1 c -21.15,11.1 -516.53,278.3 -432.23,862.3 62.87,435.7 527.88,587.9 547.66,594.2 l 45.46,14.4 45.77,-13.4 c 1114.04,-327.5 2410.74,-205.9 2423.74,-204.6 l 67.3,6.5 50.9,-44.5 c 225.6,-197.5 338,-415 334.2,-646.2 -6,-356.4 -295.5,-597.4 -307.9,-607.5 l -16.3,-13.4 -19.4,-8.5 c -296.8,-131.4 -669.6,-176.7 -1042.8,-176.7"
         style="fill:#371a45;fill-opacity:1;fill-rule:nonzero;stroke:none"
         transform="matrix(0.13333333,0,0,-0.13333333,0,5333.3333)" />
      <path
         id="path100"
         d="m 20057.6,24316 c -28.3,-673.9 -159.5,-1322.5 -460.4,-1572.7 -216.2,-179.7 -1835.3,-352.9 -1835.3,-352.9 l 811.7,4313 c 0,0 109.9,-18.9 265.7,-54.4 323.7,-74.2 846,-222.1 984,-426.6 150.1,-222.2 268.6,-1083.4 234.3,-1906.4"
         style="fill:#ffffff;fill-opacity:1;fill-rule:nonzero;stroke:none"
         transform="matrix(0.13333333,0,0,-0.13333333,0,5333.3333)" />
      <path
         id="path101"
         d="m 19430.8,22831.3 c 80.3,254.4 143.4,514.4 188.8,778.6 26.3,131.1 47.1,263.4 62.3,396.3 68.2,7 139.6,40.6 207.4,98.6 -41.4,-550.9 -158.4,-1046.9 -391.6,-1240.9 -13.5,-10.3 -36.2,-21.2 -66.9,-32.6"
         style="fill:#c5bdc9;fill-opacity:1;fill-rule:nonzero;stroke:none"
         transform="matrix(0.13333333,0,0,-0.13333333,0,5333.3333)" />
      <path
         id="path102"
         d="m 18698.3,26520.8 -743.8,-3951.6 c 693.9,82.6 1431.5,209.6 1543.2,294.7 590.2,490.9 436.1,2915.8 196.3,3270.9 -101.7,150.6 -600.4,304.3 -995.7,386 m -1128.8,-4308.3 879.2,4670.6 151.3,-25.8 c 185.5,-31.6 1122.5,-206.4 1352.9,-547.7 181.4,-268.7 272.7,-1113.2 266.4,-1771.3 -5.3,-557.4 -80.2,-1547.3 -522.3,-1914.9 -234.2,-194.8 -1527.6,-346.6 -1918.4,-388.5 l -209.1,-22.4"
         style="fill:#371944;fill-opacity:1;fill-rule:nonzero;stroke:none"
         transform="matrix(0.13333333,0,0,-0.13333333,0,5333.3333)" />
      <path
         id="path103"
         d="m 7884.07,24309.4 c 181.7,-3218.9 2938.43,-5681.1 6157.33,-5499.4 3218.9,181.7 5681.1,2938.4 5499.4,6157.4 -181.7,3218.9 -2938.4,5681 -6157.3,5499.4 -3219,-181.7 -5681.11,-2938.5 -5499.43,-6157.4"
         style="fill:#ffffff;fill-opacity:1;fill-rule:nonzero;stroke:none"
         transform="matrix(0.13333333,0,0,-0.13333333,0,5333.3333)" />
      <path
         id="path104"
         d="m 8223.89,22647.1 c 855.15,-2361.4 3181.11,-3986 5817.31,-3837.2 3218.9,181.7 5681.2,2938.6 5499.5,6157.5 -71,1256.9 -534.4,2398.7 -1264.7,3312 -333.3,-2931.2 -3892.2,-5393.6 -8365.27,-5646.1 -574.75,-32.4 -1139.16,-26.8 -1686.84,13.8"
         style="fill:#d8d8d8;fill-opacity:1;fill-rule:nonzero;stroke:none"
         transform="matrix(0.13333333,0,0,-0.13333333,0,5333.3333)" />
      <path
         id="path105"
         d="m 13716,30319.9 c -107.5,0 -215.1,-3 -323.7,-9.1 -3127.8,-176.5 -5528.82,-2864.8 -5352.27,-5992.6 170.42,-3019.2 2681.57,-5361.1 5668.87,-5361.4 107.5,0 215.1,3 323.7,9.2 3127.8,176.5 5528.8,2864.8 5352.3,5992.5 -170.4,3019.2 -2681.6,5361.4 -5668.9,5361.4 m -11.2,-11675.6 c -1473.6,0 -2877.2,534.2 -3985.05,1523.7 -1194.09,1066.5 -1901.39,2534.1 -1991.63,4132.6 -90.2,1598.5 447.44,3136.4 1513.92,4330.5 1066.46,1194.1 2534.16,1901.4 4132.66,1991.6 1598.2,89.9 3136.3,-447.4 4330.5,-1513.9 1194,-1066.5 1901.3,-2534.2 1991.6,-4132.6 90.2,-1598.5 -447.5,-3136.4 -1513.9,-4330.5 -1066.5,-1194.1 -2534.2,-1901.4 -4132.7,-1991.6 -115.4,-6.5 -230.7,-9.8 -345.4,-9.8"
         style="fill:#371a45;fill-opacity:1;fill-rule:nonzero;stroke:none"
         transform="matrix(0.13333333,0,0,-0.13333333,0,5333.3333)" />
      <path
         id="path106"
         d="m 8039.86,24318.1 c 85.53,-1515.1 756.01,-2906.2 1887.95,-3917.2 1131.99,-1011 2589.99,-1521 4104.79,-1435.1 731.7,41.3 1436.2,218.8 2093.8,527.7 1665.6,782.3 2853.7,2328.1 3178.2,4135.1 73,405.3 101.5,821.8 84.6,1238 -1.2,30.4 -2.5,61.4 -4.2,91.9 -90.6,1605.2 -861.8,3103.4 -2115.9,4110.3 -1095.6,880.3 -2472.6,1321.4 -3876.9,1242 -3127.6,-176.5 -5528.55,-2865.1 -5352.34,-5992.7 m 5668.74,-5673.9 c -3151.8,0 -5800.84,2470.9 -5980.65,5656.3 v 0 c -186.23,3299.8 2346.85,6136 5646.65,6322.3 1481.6,83.6 2934.3,-381.8 4090.1,-1310.4 1323,-1062.3 2136.6,-2642.8 2232.2,-4336.3 1.8,-32.1 3.1,-64.6 4.5,-96.7 17.8,-439.1 -12.3,-878.5 -89.3,-1306.1 -342.4,-1906.4 -1595.8,-3537.3 -3352.9,-4362.6 -694,-325.9 -1437.2,-513.3 -2209,-556.8 -114.4,-6.5 -228.4,-9.7 -341.6,-9.7"
         style="fill:#371a45;fill-opacity:1;fill-rule:nonzero;stroke:none"
         transform="matrix(0.13333333,0,0,-0.13333333,0,5333.3333)" />
      <path
         id="path107"
         d="m 14303.3,29848.5 c -116.9,0 -234.3,-3.3 -351.9,-10 -1526.4,-86.1 -2929.7,-721.9 -3951.2,-1790.1 -1018.73,-1065.2 -1535.67,-2433.5 -1455.55,-3852.7 159.46,-2824.8 2663.75,-5008.6 5658.25,-5008.8 115.8,0 232,3.2 349.1,9.8 542.3,30.6 1074.7,131.8 1582.7,300.6 1661.2,783.6 2845.9,2327.3 3169.9,4131.3 81.5,389.4 111.1,784.8 88.9,1179.5 -1,17 -1.8,32.5 -3.5,48.3 -0.4,3.4 -0.6,6.7 -0.7,10.1 -1.3,30.5 -2.6,61.5 -4.3,92 -90.4,1601.3 -858,3096 -2106.7,4102.9 -897.6,517.7 -1919.4,787.1 -2975,787.1 m -100.5,-10974 c -3159,0 -5801.21,2312.6 -5970.06,5303.6 -85.04,1506.5 462.5,2957.7 1541.73,4086.3 1076.43,1125.6 2553.53,1795.4 4159.23,1886 1245.2,70.2 2459.1,-214.9 3511.5,-824.6 6.8,-4 13.3,-8.4 19.5,-13.3 1323,-1062.4 2136.6,-2642.9 2232.2,-4336.4 1.7,-30.5 3,-61.4 4.3,-91.9 1.9,-19.1 3,-37.9 4.1,-57.1 23.9,-423.5 -7.8,-846.3 -94,-1258.2 -341.6,-1902 -1595,-3532.9 -3352.1,-4358.2 -5.5,-2.6 -11.1,-4.9 -16.9,-6.8 -536.9,-179.4 -1099.6,-286.7 -1672.6,-319.1 -123,-6.9 -245.3,-10.3 -366.9,-10.3"
         style="fill:#371a45;fill-opacity:1;fill-rule:nonzero;stroke:none"
         transform="matrix(0.13333333,0,0,-0.13333333,0,5333.3333)" />
      <path
         id="path108"
         d="m 8953.97,24218.8 c 154.27,-2733 2651.33,-4815.2 5577.03,-4650 2480.1,140 4472.4,1849.8 4927.4,4032.2 82.1,392.2 114.5,799.6 91,1215.9 -1.1,18.8 -2.1,37.2 -4.1,56 -184.5,2705.5 -2667.4,4757.6 -5572.9,4593.6 -2925.8,-165.2 -5172.69,-2514.6 -5018.43,-5247.7"
         style="fill:#371a45;fill-opacity:1;fill-rule:nonzero;stroke:none"
         transform="matrix(0.13333333,0,0,-0.13333333,0,5333.3333)" />
      <path
         id="path109"
         d="m 8953.97,24218.8 c 154.27,-2733 2651.33,-4815.2 5577.03,-4650 2200.4,124.2 4016.9,1484.1 4716,3313.8 -986.9,-1170.5 -2483.1,-1958.1 -4194.1,-2054.7 -3030.2,-171 -5635.65,1886.6 -5996.94,4657.7 -90.48,-407.9 -126.49,-832.6 -101.99,-1266.8"
         style="fill:#220f2d;fill-opacity:1;fill-rule:nonzero;stroke:none"
         transform="matrix(0.13333333,0,0,-0.13333333,0,5333.3333)" />
      <path
         id="path110"
         d="m 18211.2,23581 c 0,0 23.8,552.5 -344,1584.9 -121.1,339.4 -273.6,719.1 -599,1201.3 -246.1,364.6 -585.8,659.3 -985.6,850.2 -2,1 -4,1.9 -6,2.9 -707.5,337.2 -1504.8,443 -2227.3,443 -1218.3,0 -2223.5,-301.1 -2223.5,-301.1 -115.2,71.6 1171,1274.6 3107.3,1274.6 161.3,0 327.4,-8.4 497.3,-26.5 1181.6,-125.6 2007.6,-999.7 2496.6,-1720.6 162.3,-238.9 287.2,-461 375.7,-633.5 l 0.8,-1.1 c 9.3,-19.9 18.2,-39.7 26.8,-60 37.4,-87.7 71.1,-174.3 100.6,-259.3 297.8,-862.9 182.3,-1600.1 -219.7,-2354.8"
         style="fill:#9b8da2;fill-opacity:1;fill-rule:nonzero;stroke:none"
         transform="matrix(0.13333333,0,0,-0.13333333,0,5333.3333)" />
      <path
         id="path111"
         d="m 10862.5,23469.9 c -416.6,0 -774.1,370.3 -811.5,854.4 -39.1,505.8 286.2,944.3 726.4,979.5 18.9,1.6 37.7,2.3 56.3,2.3 416.6,0 774.2,-370.2 811.6,-854.4 39,-505.8 -286.2,-944.3 -726.5,-979.5 -18.8,-1.5 -37.6,-2.3 -56.3,-2.3"
         style="fill:#9b8da2;fill-opacity:1;fill-rule:nonzero;stroke:none"
         transform="matrix(0.13333333,0,0,-0.13333333,0,5333.3333)" />
      <path
         id="path112"
         d="m 10974.4,22131.8 c -0.4,0 -0.7,0 -1.1,0 -6.3,0 -12.5,0.3 -18.6,0.7 -100.2,81.8 -197.3,167 -291.1,255.2 -11.4,39.1 -17.5,81 -17.1,124.7 1.8,209.1 150.5,378.2 332.3,378.2 0.4,0 0.7,0 1.1,0 182.3,-0.6 328.6,-171 326.8,-380.6 -1.8,-209.1 -150.5,-378.2 -332.3,-378.2"
         style="fill:#9b8da2;fill-opacity:1;fill-rule:nonzero;stroke:none"
         transform="matrix(0.13333333,0,0,-0.13333333,0,5333.3333)" />
      <path
         id="path113"
         d="m 10954.7,22132.5 c -136.1,9.2 -249.4,113.2 -291.1,255.2 93.8,-88.2 190.9,-173.4 291.1,-255.2"
         style="fill:#918796;fill-opacity:1;fill-rule:nonzero;stroke:none"
         transform="matrix(0.13333333,0,0,-0.13333333,0,5333.3333)" />
      <path
         id="path114"
         d="m 7597.61,25095.5 397.71,-2265.3 247.74,-1411 798.48,7.1 75.47,0.7 c 344.33,67.7 466.28,1018.4 272.45,2121.6 -4.22,24.9 -9.01,50.3 -13.76,75.1 -199.61,1065.7 -624.03,1865 -960.34,1798.4 l -70.56,-28.1 -747.19,-298.5"
         style="fill:#ffffff;fill-opacity:1;fill-rule:nonzero;stroke:none"
         transform="matrix(0.13333333,0,0,-0.13333333,0,5333.3333)" />
      <path
         id="path115"
         d="m 8243.06,21419.2 -247.74,1411 601.66,816.2 c 0,0 180.5,-477.5 390.95,-477.5 17.49,0 35.21,3.3 53.02,10.5 219.58,87.6 274.55,572.7 274.55,572.7 l 60.2,-128.4 c 4.75,-24.8 9.54,-50.2 13.76,-75.1 62.47,-355.5 92.14,-695.2 92.13,-994.6 0,-79.9 -2.11,-157 -6.28,-230.7 -13.87,-245.3 -50.47,-453.5 -107.65,-607.8 -49.92,-134.7 -115.55,-228.3 -195.36,-269.1 -17.74,-9.1 -36.17,-15.6 -55.29,-19.4 l -75.47,-0.7 -18.08,-0.2 -368.34,-3.3 h -4.14 l -9.12,-0.1 -325.38,-2.9 -73.42,-0.6"
         style="fill:#c5bdc9;fill-opacity:1;fill-rule:nonzero;stroke:none"
         transform="matrix(0.13333333,0,0,-0.13333333,0,5333.3333)" />
      <path
         id="path116"
         d="m 7773.36,24997.5 600.69,-3421.2 722.43,6.5 c 158.72,58.4 344.71,767.6 139.09,1938.6 -161.77,921.3 -477.56,1561.6 -705.91,1718.1 -17.43,11.9 -48.58,30.4 -74.53,30.5 z m 469.71,-3734.8 c -75.76,0 -140.7,54.5 -153.81,129.2 l -645.51,3676.5 c -12.79,72.8 27.22,144.6 95.87,172.1 l 817.7,326.8 c 8.96,3.6 18.24,6.4 27.74,8.3 73.17,14.5 188.23,12.7 321.17,-78.4 344.99,-236.4 673.53,-990.7 837.01,-1921.8 187.5,-1067.7 111.69,-2201.2 -395.9,-2301.8 -9.55,-1.9 -19.26,-2.9 -29.01,-3 l -873.85,-7.9 h -1.41"
         style="fill:#371a45;fill-opacity:1;fill-rule:nonzero;stroke:none"
         transform="matrix(0.13333333,0,0,-0.13333333,0,5333.3333)" />
      <path
         id="path117"
         d="m 7306.07,23408.8 0.61,-1.2 c 10.72,-86.9 24.2,-174.8 39.95,-264.5 178.14,-1014.8 579.34,-1787.2 896.43,-1723.9 307.53,60.9 423.01,887.7 265.4,1866.9 -4.41,27.9 -9.39,56.4 -14.38,84.9 -178.14,1014.8 -579.87,1787.1 -896.47,1724.5 -288.85,-57.5 -407.52,-788.5 -291.54,-1686.7"
         style="fill:#ffffff;fill-opacity:1;fill-rule:nonzero;stroke:none"
         transform="matrix(0.13333333,0,0,-0.13333333,0,5333.3333)" />
      <path
         id="path118"
         d="m 7306.68,23407.6 c 10.72,-86.9 24.2,-174.8 39.95,-264.5 178.14,-1014.8 579.34,-1787.2 896.43,-1723.9 307.53,60.9 423.01,887.7 265.4,1866.9 -94.61,-375.3 -307.27,-1042.6 -602.87,-893.2 -172.6,87.7 -417.6,591.2 -598.91,1014.7"
         style="fill:#d8d8d8;fill-opacity:1;fill-rule:nonzero;stroke:none"
         transform="matrix(0.13333333,0,0,-0.13333333,0,5333.3333)" />
      <path
         id="path119"
         d="m 7500.29,23170.4 c 148.25,-844.3 436.4,-1430.3 644.41,-1572.8 27.98,-19.2 52.81,-28.7 67.85,-25.4 126.76,25.1 323.02,658.2 127.51,1771.6 -148.21,844.3 -436.35,1430.3 -644.38,1572.8 -27.96,19.2 -52.83,28.5 -67.87,25.4 -126.74,-25.1 -322.95,-658.3 -127.52,-1771.6 z m 706.64,-1911.1 c -65.06,0 -147.6,18.1 -238.77,80.6 -320.14,219.3 -624.56,916.6 -775.53,1776.5 -168.19,957.7 -122.73,2033.5 374.44,2132.1 69.67,13.8 179.19,12.1 305.17,-74.2 320.14,-219.3 624.56,-916.6 775.49,-1776.4 168.19,-957.8 122.75,-2033.6 -374.44,-2132.2 -19.24,-3.8 -41.53,-6.4 -66.36,-6.4"
         style="fill:#371a45;fill-opacity:1;fill-rule:nonzero;stroke:none"
         transform="matrix(0.13333333,0,0,-0.13333333,0,5333.3333)" />
      <path
         id="path120"
         d="m 5903.85,20216.1 c -6.17,1090.9 162.07,1874.3 564.66,2634.6 447.34,844.8 1995.83,1364.8 2309.24,835.1 218.17,-368.8 -180.49,-594.3 -312.92,-656.8 -21.09,-9.9 -28.85,-35.6 -16.68,-55.5 79.85,-130.5 332.61,-583.6 338.94,-1099.1 6.01,-489.1 -114.68,-933.7 -713.9,-1134.9"
         style="fill:#ffffff;fill-opacity:1;fill-rule:nonzero;stroke:none"
         transform="matrix(0.13333333,0,0,-0.13333333,0,5333.3333)" />
      <path
         id="path121"
         d="m 5747.65,20215.2 c -7.02,812 92.95,1647.2 431.29,2396.4 62.18,136.5 121.94,264.2 199.3,395.1 216.81,343.1 549.59,597.6 905.76,779.4 361.7,177.5 765.99,311.4 1176.76,255.3 324.7,-39.6 591.79,-323.2 525.35,-667.7 -49.72,-228.7 -245.53,-380.6 -435,-476.3 l -18.25,-9 c 41.49,17.5 76.13,77.2 63.78,127.7 -1.13,12.8 -10.33,30.9 -14.33,37.9 l 1.23,-2 9.89,-16.3 c 322.59,-534.6 483.44,-1222.2 223.55,-1816.4 -89.12,-191.5 -248.14,-357.6 -436.1,-449.7 -91.06,-48.8 -187.27,-79.2 -282.84,-104.1 -41.82,-10.9 -84.55,14.2 -95.43,56 -10.04,38.4 10.38,77.3 45.73,92.1 241.16,109.5 432.06,268.4 517.84,511.4 156.92,520.5 18.62,1101.2 -249.84,1564.2 -67.09,102.1 -16.68,245.3 96.18,288.1 130.31,68 297.37,179.4 268.19,336.5 -29.82,132.2 -129.59,198.6 -270.36,219.3 -565.37,59 -1229.04,-282.6 -1613.88,-690.1 -150.55,-161 -241.6,-359.1 -331.94,-557.9 -165.62,-372.1 -274.5,-767.1 -335.1,-1171.6 -53.19,-360.5 -70.84,-728.1 -69.39,-1097.1 -4.06,-204.4 -305.27,-209.2 -312.39,-1.2"
         style="fill:#371a45;fill-opacity:1;fill-rule:nonzero;stroke:none"
         transform="matrix(0.13333333,0,0,-0.13333333,0,5333.3333)" />
      <path
         id="path122"
         d="m 8841.77,20216.1 c 0,0 171.54,-647.5 171.54,-1026.5"
         style="fill:#ffffff;fill-opacity:1;fill-rule:nonzero;stroke:none"
         transform="matrix(0.13333333,0,0,-0.13333333,0,5333.3333)" />
      <path
         id="path123"
         d="m 8992.76,20256.1 c 47.11,-264.7 83.66,-526.4 98.45,-794.6 4.21,-89.6 6.19,-179.8 0.19,-271.9 -2.8,-43.1 -40.03,-75.8 -83.16,-73 -39.73,2.6 -70.55,34.5 -73.03,73 -35,331.8 -139.62,668.8 -244.54,986.8 -63.99,212.8 252.51,296.8 302.09,79.7"
         style="fill:#371a45;fill-opacity:1;fill-rule:nonzero;stroke:none"
         transform="matrix(0.13333333,0,0,-0.13333333,0,5333.3333)" />
      <path
         id="path124"
         d="m 17240.3,19437.8 c -34.7,-215.7 -260.3,-412.3 -473.2,-412.3 -49.8,0 -118.6,10.9 -162.9,63 -37.1,43.6 -50.7,109.7 -38.1,186.4 34.7,215.7 260.3,411.9 472.9,411.9 50,0 118.9,-10.9 163.1,-62.7 36.8,-43.6 50.5,-109.7 38.2,-186.3 m -201.3,760 c -464.8,0 -902.6,-376.8 -977.5,-841.5 -75.3,-465 240.9,-841.8 705.6,-841.8 465,0 902.8,376.8 977.8,841.8 74.9,464.7 -240.9,841.5 -705.9,841.5"
         style="fill:#dddcdb;fill-opacity:1;fill-rule:nonzero;stroke:none"
         transform="matrix(0.13333333,0,0,-0.13333333,0,5333.3333)" />
      <path
         id="path125"
         d="m 17589.9,19602 c -119.4,208.7 -344.5,344.2 -623.4,344.2 -176.9,0 -350.1,-54.7 -500.7,-148.2 154.1,149.3 360.4,243.7 573.2,243.7 176.3,0 330.1,-66.7 433.2,-187.7 60.8,-71.4 100.5,-157.4 117.7,-252"
         style="fill:#f5f4f4;fill-opacity:1;fill-rule:nonzero;stroke:none"
         transform="matrix(0.13333333,0,0,-0.13333333,0,5333.3333)" />
      <path
         id="path126"
         d="m 17240.3,19437.7 h 0.5 -0.5 m -201.3,92.9 c -135.5,0 -296.4,-141.6 -318.7,-280.6 -6.3,-38.1 0.7,-57.3 3,-60.4 1.8,-1.5 15.1,-7.9 43.8,-7.9 135.5,0 296.4,141.6 319,280.7 6.1,38.5 -1.2,58 -3.4,61.1 -1.1,0.6 -14.7,7.1 -43.7,7.1 m -271.9,-661.3 c -117.1,0 -217.2,41.9 -281.9,118.1 -67.4,79.1 -93.4,190.2 -73.3,312.8 46.6,289 339.6,542.8 627.1,542.8 117,0 217.1,-41.7 281.8,-117.3 67.3,-79.8 93.3,-190.5 73.8,-312.6 l -0.1,-0.2 c -46.7,-289.6 -339.9,-543.6 -627.4,-543.6 m 271.9,1172.4 c -390.8,0 -760.2,-318.7 -823.3,-710.3 -29.3,-181 12.7,-348.9 118.2,-473 103.1,-121 256.9,-187.7 433.2,-187.7 391,0 760.4,318.7 823.6,710.5 29.1,180.9 -12.9,348.8 -118.5,472.8 -103.1,121 -256.9,187.7 -433.2,187.7 m -271.9,-1683.4 c -269.4,0 -507.7,105.7 -671.1,297.7 -165.9,194.9 -232.9,452.4 -188.7,725.3 86.5,536.3 594.2,972.8 1131.7,972.8 269.3,0 507.7,-105.7 671.1,-297.6 165.9,-194.8 233,-452.3 189,-725.1 -86.5,-536.6 -594.3,-973.1 -1132,-973.1"
         style="fill:#371a45;fill-opacity:1;fill-rule:nonzero;stroke:none"
         transform="matrix(0.13333333,0,0,-0.13333333,0,5333.3333)" />
      <path
         id="path127"
         d="m 18906.5,19356.1 -899,-2741.6 -804.8,-2455.8 h -4416 l 498.2,1520.2 1205.5,3677.2 h 4416.1"
         style="fill:#edae3e;fill-opacity:1;fill-rule:nonzero;stroke:none"
         transform="matrix(0.13333333,0,0,-0.13333333,0,5333.3333)" />
      <path
         id="path128"
         d="m 18007.5,16614.5 -804.8,-2455.8 h -4416 l 498.2,1520.2 c 0,0 386.6,-887.6 1631.5,-1052 676.3,-89 1287.5,408.8 1340.2,1089.1 23.8,304.6 119.9,644.3 362.4,960.6 354.5,461.5 955.9,215.9 1388.5,-62.1"
         style="fill:#d18c28;fill-opacity:1;fill-rule:nonzero;stroke:none"
         transform="matrix(0.13333333,0,0,-0.13333333,0,5333.3333)" />
      <path
         id="path129"
         d="m 13002.4,14315 h 4087.2 l 1601.2,4885 h -4087.2 l -1601.2,-4885 m 4200.4,-312.4 h -4416 c -50.1,0 -97.1,24.1 -126.5,64.6 -29.3,40.5 -37.5,92.7 -21.9,140.3 l 1703.6,5197.3 c 21,64.2 80.9,107.6 148.4,107.6 h 4416 c 50.1,0 97.1,-24 126.5,-64.5 29.4,-40.6 37.5,-92.8 22,-140.3 l -1703.6,-5197.4 c -21.1,-64.2 -80.9,-107.6 -148.5,-107.6"
         style="fill:#371a45;fill-opacity:1;fill-rule:nonzero;stroke:none"
         transform="matrix(0.13333333,0,0,-0.13333333,0,5333.3333)" />
      <path
         id="path130"
         d="m 17983.6,18668.3 h -2627.2 l 214.7,687.9 h 2627.3 l -214.8,-687.9"
         style="fill:#dddcdb;fill-opacity:1;fill-rule:nonzero;stroke:none"
         transform="matrix(0.13333333,0,0,-0.13333333,0,5333.3333)" />
      <path
         id="path131"
         d="m 17983.7,18668.5 v 0 l 87.8,281.1 h 0.1 l -87.9,-281.1"
         style="fill:#fae7c5;fill-opacity:1;fill-rule:nonzero;stroke:none"
         transform="matrix(0.13333333,0,0,-0.13333333,0,5333.3333)" />
      <path
         id="path132"
         d="m 17983.7,18668.5 h -2627.2 l 214.8,687.6 h 288.5 l -48.8,-156.4 c -38.7,-124 54,-250.1 183.9,-250.1 h 2076.6 l -87.8,-281.1"
         style="fill:#f5f4f4;fill-opacity:1;fill-rule:nonzero;stroke:none"
         transform="matrix(0.13333333,0,0,-0.13333333,0,5333.3333)" />
      <path
         id="path133"
         d="m 15568.8,18824.5 h 2300 l 117.2,375.5 h -2300 z m 2414.8,-312.4 h -2627.2 c -49.7,0 -96.4,23.6 -125.9,63.6 -29.4,40 -38,91.7 -23.2,139.1 l 214.7,687.9 c 20.4,65.3 80.8,109.7 149.1,109.7 h 2627.3 c 49.7,0 96.4,-23.6 125.8,-63.7 29.5,-40 38.1,-91.6 23.3,-139 l -214.8,-688 c -20.3,-65.2 -80.7,-109.6 -149.1,-109.6"
         style="fill:#371a45;fill-opacity:1;fill-rule:nonzero;stroke:none"
         transform="matrix(0.13333333,0,0,-0.13333333,0,5333.3333)" />
      <path
         id="path134"
         d="m 18654.2,16607.9 c -62.1,-379.6 -130,-696.3 -204.6,-955.6 0,0 0,-0.4 -0.4,-1.5 -195.3,-682.2 -433.9,-970.4 -719.3,-970 -1410.1,1.5 -1434.3,1221.4 -1054.3,1917.3 415.9,761.8 1480.7,467.4 1480.7,467.4 l 191,583 c 0,0 435.8,-252.2 306.9,-1040.6"
         style="fill:#ffffff;fill-opacity:1;fill-rule:nonzero;stroke:none"
         transform="matrix(0.13333333,0,0,-0.13333333,0,5333.3333)" />
      <path
         id="path135"
         d="m 17730.5,14680.8 c -0.2,0 -0.4,0 -0.6,0 -66,0.1 -128.9,2.8 -189,8 -113.8,9.9 -217.2,28.9 -310.6,55.5 -558.2,159 -763.9,594.4 -763.6,1046.1 0.2,284.4 82,575.3 208.9,807.7 0,0 -216.4,-1099.2 610.7,-1359.7 153.2,-48.2 287.9,-68.2 405.9,-68.2 561.3,0 746,452.5 757,480.6 -195.1,-681.7 -433.6,-970 -718.7,-970"
         style="fill:#c5bdc9;fill-opacity:1;fill-rule:nonzero;stroke:none"
         transform="matrix(0.13333333,0,0,-0.13333333,0,5333.3333)" />
      <path
         id="path136"
         d="m 17687,16967.5 c -298,0 -675.9,-81.1 -874.4,-444.4 -185.3,-339.3 -283.5,-875.3 -61.3,-1250.2 171.1,-288.8 500.4,-435.4 978.9,-435.9 h 0.2 c 217.1,0 526.8,311.7 769.6,1796 58.2,355.5 -9.6,581.1 -86.8,715.1 l -108.5,-331.2 c -26,-79.3 -109.9,-124.2 -190.1,-101.9 -16.7,4.6 -198.6,52.5 -427.6,52.5 z m 43.5,-2442.9 h -0.6 c -742.9,0.8 -1088.4,320.7 -1247.3,589 -286,482.6 -178,1130.9 55.9,1559.2 375.8,688.2 1180.8,631.6 1513,574.7 l 147.4,449.7 c 14.6,44.8 48.7,80.5 92.7,97.3 43.9,16.8 93.1,12.9 133.9,-10.7 21.6,-12.5 527.5,-316.5 382.8,-1201.3 -232.8,-1423.1 -565.3,-2057.9 -1077.8,-2057.9"
         style="fill:#371a45;fill-opacity:1;fill-rule:nonzero;stroke:none"
         transform="matrix(0.13333333,0,0,-0.13333333,0,5333.3333)" />
      <path
         id="path137"
         d="m 7544.36,17216.3 c -48.22,0 -93.36,29.9 -110.4,78 -21.63,61 10.25,127.9 71.24,149.5 1405.62,498.6 1266.26,2558.7 1264.7,2579.5 -4.91,64.4 43.41,120.7 107.88,125.7 64.72,4.9 120.76,-43.4 125.71,-107.8 7.08,-92 155.18,-2259.5 -1419.97,-2818.2 -12.94,-4.5 -26.17,-6.7 -39.16,-6.7"
         style="fill:#371a45;fill-opacity:1;fill-rule:nonzero;stroke:none"
         transform="matrix(0.13333333,0,0,-0.13333333,0,5333.3333)" />
      <path
         id="path138"
         d="m 25822.4,20219.9 c -12.6,0 -24.2,3.5 -34.9,11.1 -127.5,90.8 -7,671.2 437.6,1031.4 239.7,194.4 524.5,264.7 741.2,264.7 199.6,0 341.4,-59.6 337.2,-137.2 -12,-222.2 -359.6,-158.5 -833.8,-534 -266.4,-211 -510.3,-636 -647.3,-636"
         style="fill:#bce4fa;fill-opacity:1;fill-rule:nonzero;stroke:none"
         transform="matrix(0.13333333,0,0,-0.13333333,0,5333.3333)" />
      <path
         id="path139"
         d="m 26157.9,19417.3 c -85.1,0 -187.4,40.4 -284.9,140.9 -174.6,180.1 -206.1,452.9 -53.3,506.5 20.8,7.3 41.2,10.7 61.2,10.7 150.5,0 276.9,-191 396.2,-319.7 157.1,-169.4 54.9,-338.4 -119.2,-338.4"
         style="fill:#bce4fa;fill-opacity:1;fill-rule:nonzero;stroke:none"
         transform="matrix(0.13333333,0,0,-0.13333333,0,5333.3333)" />
      <path
         id="path140"
         d="m 27303.6,23188.6 c -86.2,0 -156.2,69.9 -156.2,156.2 v 4489.8 c 0,86.2 70,156.2 156.2,156.2 86.3,0 156.2,-70 156.2,-156.2 v -4489.8 c 0,-86.3 -69.9,-156.2 -156.2,-156.2"
         style="fill:#371a45;fill-opacity:1;fill-rule:nonzero;stroke:none"
         transform="matrix(0.13333333,0,0,-0.13333333,0,5333.3333)" />
      <path
         id="path141"
         d="m 28024.8,27195 c 0,-76.7 -62.2,-138.9 -139,-138.9 -76.7,0 -139,62.2 -139,138.9 0,76.8 62.3,139 139,139 76.8,0 139,-62.2 139,-139"
         style="fill:#371a45;fill-opacity:1;fill-rule:nonzero;stroke:none"
         transform="matrix(0.13333333,0,0,-0.13333333,0,5333.3333)" />
      <path
         id="path142"
         d="m 28024.8,25430.9 c 0,-76.7 -62.2,-138.9 -139,-138.9 -76.7,0 -139,62.2 -139,138.9 0,76.8 62.3,139 139,139 76.8,0 139,-62.2 139,-139"
         style="fill:#371a45;fill-opacity:1;fill-rule:nonzero;stroke:none"
         transform="matrix(0.13333333,0,0,-0.13333333,0,5333.3333)" />
      <path
         id="path143"
         d="m 28024.8,23666.8 c 0,-76.7 -62.2,-138.9 -139,-138.9 -76.7,0 -139,62.2 -139,138.9 0,76.8 62.3,139 139,139 76.8,0 139,-62.2 139,-139"
         style="fill:#371a45;fill-opacity:1;fill-rule:nonzero;stroke:none"
         transform="matrix(0.13333333,0,0,-0.13333333,0,5333.3333)" />
      <path
         id="path144"
         d="m 24769.3,29003.7 c -43.7,0 -81.5,19.1 -111.9,60.3 -464.5,629.7 929.1,2591 1693,3034.9 39.6,23 71.7,33.9 97,33.9 214.3,0 -65,-782.3 -468,-1564.5 -403,-782.3 -929.7,-1564.6 -1210.1,-1564.6"
         style="fill:#fdc3c3;fill-opacity:1;fill-rule:nonzero;stroke:none"
         transform="matrix(0.13333333,0,0,-0.13333333,0,5333.3333)" />
      <path
         id="path145"
         d="m 6991.48,26767.5 c -239.3,0 -412.15,172.9 -412.15,425.5 0,239.3 166.18,425.5 412.15,425.5 232.69,0 412.2,-186.2 412.2,-425.5 0,-252.6 -179.51,-425.5 -412.2,-425.5 z m 166.23,1382.7 c -245.96,86.5 -671.43,399 -671.43,771.3 0,252.6 152.85,458.6 578.38,797.7 365.61,285.8 551.72,478.7 551.72,724.6 0,239.3 -159.51,445.4 -452,445.4 -438.8,0 -698.09,-412.1 -784.48,-412.1 -99.72,0 -285.89,152.8 -285.89,312.4 0,93.1 33.26,159.6 126.32,246 212.76,179.5 511.91,239.3 718.01,239.3 604.92,0 1056.98,-525.2 1056.98,-1043.7 0,-279.3 -93.05,-518.6 -471.99,-831 -332.42,-279.2 -511.86,-405.5 -511.86,-624.9 0,-179.5 93.05,-299.2 272.56,-465.4 l -126.32,-159.6"
         style="fill:#ffffff;fill-opacity:1;fill-rule:nonzero;stroke:none"
         transform="matrix(0.13333333,0,0,-0.13333333,0,5333.3333)" />
      <path
         id="path146"
         d="m 6938.35,31587.2 c -128.68,0 -575.26,-22.5 -919.45,-313 -3.79,-3.1 -7.47,-6.4 -11.09,-9.8 -105.32,-97.7 -226.19,-240 -226.19,-474.9 0,-336.5 328.98,-624.8 598.29,-624.8 147.19,0 244.6,88.4 338.79,173.9 110.74,100.6 262.38,238.2 445.68,238.2 41.77,0 139.6,0 139.6,-133 0,-101.4 -121.05,-235.6 -431.74,-478.5 l -2.27,-1.8 c -440.87,-351.3 -696.09,-634.4 -696.09,-1042 0,-449.6 381.98,-820.3 721.48,-996.5 -364.33,-45 -628.42,-344.7 -628.42,-732 0,-420.7 311.5,-737.9 724.54,-737.9 413.09,0 724.61,317.2 724.61,737.9 0,304.6 -172.49,560.6 -425.61,674.5 42.85,20.1 81.44,50 112.18,88.9 l 126.32,159.5 c 101.27,128 87.01,312.3 -32.74,423.2 -172.36,159.5 -172.36,198.5 -172.36,236.1 0,52.1 142.94,171.1 308.49,309 28.91,24 59.21,49.3 90.87,75.9 409.67,338.1 584.47,658.4 584.47,1071 0,335.9 -141.74,675.9 -388.89,932.9 -262.5,272.9 -610.71,423.2 -980.47,423.2 z m 53.13,-3968.7 c 232.69,0 412.21,-186.2 412.21,-425.5 0,-252.6 -179.52,-425.5 -412.21,-425.5 -239.31,0 -412.13,172.9 -412.13,425.5 0,239.3 166.16,425.5 412.13,425.5 m -53.13,3656.3 c 604.91,0 1056.96,-525.1 1056.96,-1043.7 0,-279.3 -93.04,-518.6 -471.99,-831 -332.4,-279.2 -511.85,-405.5 -511.85,-624.9 0,-179.5 93.05,-299.2 272.56,-465.4 l -126.32,-159.5 c -245.97,86.4 -671.43,398.9 -671.43,771.2 0,252.6 152.86,458.6 578.37,797.7 365.62,285.8 551.73,478.7 551.73,724.6 0,239.3 -159.52,445.4 -452,445.4 -438.79,0 -698.1,-412.1 -784.47,-412.1 -99.73,0 -285.89,152.8 -285.89,312.4 0,93.1 33.25,159.6 126.32,246 212.74,179.5 511.91,239.3 718.01,239.3"
         style="fill:#371a45;fill-opacity:1;fill-rule:nonzero;stroke:none"
         transform="matrix(0.13333333,0,0,-0.13333333,0,5333.3333)" />
    </g>
  </g>
</svg>
